<mxfile host="Electron" agent="Mozilla/5.0 (Windows NT 10.0; Win64; x64) AppleWebKit/537.36 (KHTML, like Gecko) draw.io/25.0.2 Chrome/128.0.6613.186 Electron/32.2.5 Safari/537.36" version="25.0.2" pages="7">
  <diagram id="ywgrt5iHm2Y5bo9fATXf" name="Module 4 : Specialized Infrastructure">
    <mxGraphModel dx="1863" dy="702" grid="1" gridSize="10" guides="1" tooltips="1" connect="1" arrows="1" fold="1" page="1" pageScale="1" pageWidth="827" pageHeight="1169" math="0" shadow="0">
      <root>
        <mxCell id="0" />
        <mxCell id="1" parent="0" />
        <mxCell id="Mn6l3UYsuZS0TiWTPpmY-5" value="" style="rounded=0;whiteSpace=wrap;html=1;strokeColor=#FF8000;fontSize=12;fontColor=#000000;fillColor=none;" parent="1" vertex="1">
          <mxGeometry x="160" y="320" width="350" height="310" as="geometry" />
        </mxCell>
        <mxCell id="m7l4k4xZJMfM7vUmarLr-1" value="Outpost Architecture" style="text;html=1;strokeColor=none;fillColor=none;align=center;verticalAlign=middle;whiteSpace=wrap;rounded=0;fontSize=16;fontColor=#000000;fontStyle=1" parent="1" vertex="1">
          <mxGeometry x="-60" y="40" width="230" height="30" as="geometry" />
        </mxCell>
        <mxCell id="Mn6l3UYsuZS0TiWTPpmY-11" style="edgeStyle=orthogonalEdgeStyle;rounded=0;orthogonalLoop=1;jettySize=auto;html=1;entryX=0.25;entryY=1;entryDx=0;entryDy=0;fontSize=12;fontColor=#FF8000;endArrow=none;endFill=0;exitX=0.25;exitY=0;exitDx=0;exitDy=0;" parent="1" source="Mn6l3UYsuZS0TiWTPpmY-1" target="Mn6l3UYsuZS0TiWTPpmY-7" edge="1">
          <mxGeometry relative="1" as="geometry">
            <mxPoint x="285" y="360" as="sourcePoint" />
          </mxGeometry>
        </mxCell>
        <mxCell id="Mn6l3UYsuZS0TiWTPpmY-1" value="Outpost Networking Device" style="rounded=0;whiteSpace=wrap;html=1;strokeColor=#B3B3B3;fontSize=12;fontColor=#000000;fillColor=none;" parent="1" vertex="1">
          <mxGeometry x="250" y="360" width="70" height="60" as="geometry" />
        </mxCell>
        <mxCell id="Mn6l3UYsuZS0TiWTPpmY-37" style="edgeStyle=orthogonalEdgeStyle;rounded=0;orthogonalLoop=1;jettySize=auto;html=1;fontSize=10;fontColor=#000000;endArrow=classic;endFill=1;" parent="1" source="Mn6l3UYsuZS0TiWTPpmY-2" target="Mn6l3UYsuZS0TiWTPpmY-36" edge="1">
          <mxGeometry relative="1" as="geometry" />
        </mxCell>
        <mxCell id="Mn6l3UYsuZS0TiWTPpmY-2" value="Servers" style="rounded=0;whiteSpace=wrap;html=1;strokeColor=#B3B3B3;fontSize=12;fontColor=#000000;fillColor=none;" parent="1" vertex="1">
          <mxGeometry x="205" y="563" width="280" height="60" as="geometry" />
        </mxCell>
        <mxCell id="Mn6l3UYsuZS0TiWTPpmY-3" value="Outpost Networking Device" style="rounded=0;whiteSpace=wrap;html=1;strokeColor=#B3B3B3;fontSize=12;fontColor=#000000;fillColor=none;" parent="1" vertex="1">
          <mxGeometry x="360" y="360" width="70" height="60" as="geometry" />
        </mxCell>
        <mxCell id="Mn6l3UYsuZS0TiWTPpmY-6" value="Outpost" style="text;html=1;strokeColor=none;fillColor=none;align=center;verticalAlign=middle;whiteSpace=wrap;rounded=0;fontSize=12;fontColor=#FF8000;" parent="1" vertex="1">
          <mxGeometry x="156" y="320" width="60" height="30" as="geometry" />
        </mxCell>
        <mxCell id="Mn6l3UYsuZS0TiWTPpmY-35" style="edgeStyle=orthogonalEdgeStyle;rounded=0;orthogonalLoop=1;jettySize=auto;html=1;exitX=0.75;exitY=0;exitDx=0;exitDy=0;dashed=1;fontSize=10;fontColor=#000000;endArrow=classic;endFill=1;fillColor=#d5e8d4;strokeColor=#82b366;" parent="1" source="Mn6l3UYsuZS0TiWTPpmY-7" edge="1">
          <mxGeometry relative="1" as="geometry">
            <mxPoint x="480" y="120" as="targetPoint" />
          </mxGeometry>
        </mxCell>
        <mxCell id="Mn6l3UYsuZS0TiWTPpmY-7" value="Customer Networking Device" style="rounded=0;whiteSpace=wrap;html=1;strokeColor=#B3B3B3;fontSize=12;fontColor=#000000;fillColor=none;" parent="1" vertex="1">
          <mxGeometry x="250" y="190" width="70" height="60" as="geometry" />
        </mxCell>
        <mxCell id="Mn6l3UYsuZS0TiWTPpmY-45" style="edgeStyle=orthogonalEdgeStyle;rounded=0;orthogonalLoop=1;jettySize=auto;html=1;entryX=0.5;entryY=1;entryDx=0;entryDy=0;fontSize=10;fontColor=#000000;endArrow=classic;endFill=1;fillColor=#d5e8d4;strokeColor=#82b366;dashed=1;exitX=0.75;exitY=0;exitDx=0;exitDy=0;" parent="1" source="Mn6l3UYsuZS0TiWTPpmY-8" target="Mn6l3UYsuZS0TiWTPpmY-44" edge="1">
          <mxGeometry relative="1" as="geometry">
            <Array as="points">
              <mxPoint x="413" y="170" />
              <mxPoint x="480" y="170" />
            </Array>
          </mxGeometry>
        </mxCell>
        <mxCell id="Mn6l3UYsuZS0TiWTPpmY-47" style="edgeStyle=orthogonalEdgeStyle;rounded=0;orthogonalLoop=1;jettySize=auto;html=1;dashed=1;fontSize=10;fontColor=#97D077;endArrow=classic;endFill=1;fillColor=#e1d5e7;strokeColor=#9673a6;" parent="1" source="Mn6l3UYsuZS0TiWTPpmY-8" target="Mn6l3UYsuZS0TiWTPpmY-29" edge="1">
          <mxGeometry relative="1" as="geometry">
            <Array as="points">
              <mxPoint x="395" y="180" />
              <mxPoint x="24" y="180" />
            </Array>
          </mxGeometry>
        </mxCell>
        <mxCell id="Mn6l3UYsuZS0TiWTPpmY-8" value="Customer Networking Device" style="rounded=0;whiteSpace=wrap;html=1;strokeColor=#B3B3B3;fontSize=12;fontColor=#000000;fillColor=none;" parent="1" vertex="1">
          <mxGeometry x="360" y="190" width="70" height="60" as="geometry" />
        </mxCell>
        <mxCell id="Mn6l3UYsuZS0TiWTPpmY-12" style="edgeStyle=orthogonalEdgeStyle;rounded=0;orthogonalLoop=1;jettySize=auto;html=1;entryX=0.75;entryY=1;entryDx=0;entryDy=0;fontSize=12;fontColor=#FF8000;exitX=0.75;exitY=0;exitDx=0;exitDy=0;endArrow=none;endFill=0;" parent="1" source="Mn6l3UYsuZS0TiWTPpmY-1" target="Mn6l3UYsuZS0TiWTPpmY-7" edge="1">
          <mxGeometry relative="1" as="geometry">
            <mxPoint x="295" y="321" as="sourcePoint" />
            <mxPoint x="295" y="251" as="targetPoint" />
          </mxGeometry>
        </mxCell>
        <mxCell id="Mn6l3UYsuZS0TiWTPpmY-13" value="LAGS" style="text;html=1;strokeColor=none;fillColor=none;align=center;verticalAlign=middle;whiteSpace=wrap;rounded=0;fontSize=12;fontColor=#000000;" parent="1" vertex="1">
          <mxGeometry x="190" y="279" width="60" height="30" as="geometry" />
        </mxCell>
        <mxCell id="Mn6l3UYsuZS0TiWTPpmY-14" value="" style="ellipse;whiteSpace=wrap;html=1;strokeColor=#000000;fontSize=12;fontColor=#000000;fillColor=none;" parent="1" vertex="1">
          <mxGeometry x="250" y="279" width="80" height="30" as="geometry" />
        </mxCell>
        <mxCell id="Mn6l3UYsuZS0TiWTPpmY-15" style="edgeStyle=orthogonalEdgeStyle;rounded=0;orthogonalLoop=1;jettySize=auto;html=1;entryX=0.75;entryY=1;entryDx=0;entryDy=0;fontSize=12;fontColor=#FF8000;exitX=0.75;exitY=0;exitDx=0;exitDy=0;endArrow=none;endFill=0;" parent="1" source="Mn6l3UYsuZS0TiWTPpmY-3" target="Mn6l3UYsuZS0TiWTPpmY-8" edge="1">
          <mxGeometry relative="1" as="geometry">
            <mxPoint x="405" y="360" as="sourcePoint" />
            <mxPoint x="405" y="250" as="targetPoint" />
          </mxGeometry>
        </mxCell>
        <mxCell id="Mn6l3UYsuZS0TiWTPpmY-16" style="edgeStyle=orthogonalEdgeStyle;rounded=0;orthogonalLoop=1;jettySize=auto;html=1;entryX=0.25;entryY=1;entryDx=0;entryDy=0;fontSize=12;fontColor=#FF8000;endArrow=none;endFill=0;exitX=0.25;exitY=0;exitDx=0;exitDy=0;" parent="1" source="Mn6l3UYsuZS0TiWTPpmY-3" target="Mn6l3UYsuZS0TiWTPpmY-8" edge="1">
          <mxGeometry relative="1" as="geometry">
            <mxPoint x="390" y="360" as="sourcePoint" />
            <mxPoint x="390" y="250" as="targetPoint" />
          </mxGeometry>
        </mxCell>
        <mxCell id="Mn6l3UYsuZS0TiWTPpmY-17" value="" style="ellipse;whiteSpace=wrap;html=1;strokeColor=#000000;fontSize=12;fontColor=#000000;fillColor=none;" parent="1" vertex="1">
          <mxGeometry x="360" y="279" width="70" height="30" as="geometry" />
        </mxCell>
        <mxCell id="Mn6l3UYsuZS0TiWTPpmY-18" value="&lt;ul&gt;&lt;li&gt;Each outpost comes with redundant Top Of Rack switches (OND)&lt;/li&gt;&lt;li&gt;Servers are connected redundantly to ONDs&lt;/li&gt;&lt;li&gt;OND should be connected redundantly to On Premise Network&lt;/li&gt;&lt;ul&gt;&lt;li&gt;Redundant physical connection&lt;/li&gt;&lt;li&gt;Redundant switches&lt;/li&gt;&lt;/ul&gt;&lt;/ul&gt;" style="text;html=1;strokeColor=none;fillColor=none;align=left;verticalAlign=middle;whiteSpace=wrap;rounded=0;fontSize=12;fontColor=#000000;" parent="1" vertex="1">
          <mxGeometry x="530" y="225" width="400" height="80" as="geometry" />
        </mxCell>
        <mxCell id="Mn6l3UYsuZS0TiWTPpmY-22" value="" style="endArrow=none;dashed=1;html=1;rounded=0;fontSize=12;fontColor=#000000;entryX=0.6;entryY=1.02;entryDx=0;entryDy=0;entryPerimeter=0;fillColor=#e1d5e7;strokeColor=#9673a6;" parent="1" edge="1">
          <mxGeometry width="50" height="50" relative="1" as="geometry">
            <mxPoint x="280" y="359" as="sourcePoint" />
            <mxPoint x="280" y="251.20000000000005" as="targetPoint" />
          </mxGeometry>
        </mxCell>
        <mxCell id="Mn6l3UYsuZS0TiWTPpmY-23" value="" style="endArrow=none;dashed=1;html=1;rounded=0;fontSize=12;fontColor=#000000;entryX=0.6;entryY=1.02;entryDx=0;entryDy=0;entryPerimeter=0;fillColor=#d5e8d4;strokeColor=#82b366;" parent="1" edge="1">
          <mxGeometry width="50" height="50" relative="1" as="geometry">
            <mxPoint x="292.5" y="360" as="sourcePoint" />
            <mxPoint x="292.5" y="252.20000000000005" as="targetPoint" />
          </mxGeometry>
        </mxCell>
        <mxCell id="Mn6l3UYsuZS0TiWTPpmY-27" value="" style="endArrow=none;dashed=1;html=1;rounded=0;fontSize=12;fontColor=#000000;entryX=0.6;entryY=1.02;entryDx=0;entryDy=0;entryPerimeter=0;fillColor=#e1d5e7;strokeColor=#9673a6;" parent="1" edge="1">
          <mxGeometry width="50" height="50" relative="1" as="geometry">
            <mxPoint x="390" y="357.8" as="sourcePoint" />
            <mxPoint x="390" y="250.00000000000006" as="targetPoint" />
          </mxGeometry>
        </mxCell>
        <mxCell id="Mn6l3UYsuZS0TiWTPpmY-28" value="" style="endArrow=none;dashed=1;html=1;rounded=0;fontSize=12;fontColor=#000000;entryX=0.6;entryY=1.02;entryDx=0;entryDy=0;entryPerimeter=0;fillColor=#d5e8d4;strokeColor=#82b366;" parent="1" edge="1">
          <mxGeometry width="50" height="50" relative="1" as="geometry">
            <mxPoint x="400" y="357.8" as="sourcePoint" />
            <mxPoint x="400" y="250.00000000000006" as="targetPoint" />
          </mxGeometry>
        </mxCell>
        <mxCell id="Mn6l3UYsuZS0TiWTPpmY-30" style="edgeStyle=orthogonalEdgeStyle;rounded=0;orthogonalLoop=1;jettySize=auto;html=1;entryX=0;entryY=0.5;entryDx=0;entryDy=0;fontSize=12;fontColor=#000000;endArrow=none;endFill=0;fillColor=#e1d5e7;strokeColor=#9673a6;dashed=1;" parent="1" source="Mn6l3UYsuZS0TiWTPpmY-29" target="Mn6l3UYsuZS0TiWTPpmY-7" edge="1">
          <mxGeometry relative="1" as="geometry">
            <Array as="points">
              <mxPoint x="24" y="220" />
            </Array>
          </mxGeometry>
        </mxCell>
        <mxCell id="Mn6l3UYsuZS0TiWTPpmY-49" style="edgeStyle=orthogonalEdgeStyle;rounded=0;orthogonalLoop=1;jettySize=auto;html=1;entryX=1;entryY=0.5;entryDx=0;entryDy=0;dashed=1;fontSize=10;fontColor=#CC99FF;endArrow=classic;endFill=1;fillColor=#e1d5e7;strokeColor=#9673a6;" parent="1" source="Mn6l3UYsuZS0TiWTPpmY-29" target="Mn6l3UYsuZS0TiWTPpmY-33" edge="1">
          <mxGeometry relative="1" as="geometry" />
        </mxCell>
        <mxCell id="Mn6l3UYsuZS0TiWTPpmY-29" value="Customer Edge Router" style="sketch=0;outlineConnect=0;fontColor=#232F3E;gradientColor=none;fillColor=#4D27AA;strokeColor=none;dashed=0;verticalLabelPosition=bottom;verticalAlign=top;align=center;html=1;fontSize=12;fontStyle=0;aspect=fixed;pointerEvents=1;shape=mxgraph.aws4.customer_gateway;" parent="1" vertex="1">
          <mxGeometry y="350" width="48" height="48" as="geometry" />
        </mxCell>
        <mxCell id="Mn6l3UYsuZS0TiWTPpmY-31" value="VLAN A" style="text;html=1;strokeColor=none;fillColor=none;align=center;verticalAlign=middle;whiteSpace=wrap;rounded=0;fontSize=10;fontColor=#CC99FF;" parent="1" vertex="1">
          <mxGeometry x="195" y="195" width="60" height="30" as="geometry" />
        </mxCell>
        <mxCell id="Mn6l3UYsuZS0TiWTPpmY-32" value="Outpost Service Link" style="text;html=1;strokeColor=none;fillColor=none;align=center;verticalAlign=middle;whiteSpace=wrap;rounded=0;fontSize=10;fontColor=#000000;" parent="1" vertex="1">
          <mxGeometry x="-80" y="290" width="100" height="30" as="geometry" />
        </mxCell>
        <mxCell id="Mn6l3UYsuZS0TiWTPpmY-51" style="edgeStyle=orthogonalEdgeStyle;rounded=0;orthogonalLoop=1;jettySize=auto;html=1;dashed=1;fontSize=10;fontColor=#CC99FF;endArrow=classic;endFill=1;" parent="1" source="Mn6l3UYsuZS0TiWTPpmY-33" target="Mn6l3UYsuZS0TiWTPpmY-50" edge="1">
          <mxGeometry relative="1" as="geometry" />
        </mxCell>
        <mxCell id="Mn6l3UYsuZS0TiWTPpmY-33" value="Connection options :&amp;nbsp;&lt;br&gt;&lt;ul&gt;&lt;li&gt;Internet&lt;/li&gt;&lt;li&gt;Direct Connect&lt;/li&gt;&lt;ul&gt;&lt;li&gt;Public VIF&lt;/li&gt;&lt;li&gt;Private VIF&lt;/li&gt;&lt;li&gt;Transit VIF&lt;/li&gt;&lt;/ul&gt;&lt;/ul&gt;" style="text;html=1;strokeColor=default;fillColor=none;align=left;verticalAlign=middle;whiteSpace=wrap;rounded=0;fontSize=10;fontColor=#000000;" parent="1" vertex="1">
          <mxGeometry x="-300" y="319" width="210" height="110" as="geometry" />
        </mxCell>
        <mxCell id="Mn6l3UYsuZS0TiWTPpmY-39" style="edgeStyle=orthogonalEdgeStyle;rounded=0;orthogonalLoop=1;jettySize=auto;html=1;entryX=0.5;entryY=1;entryDx=0;entryDy=0;fontSize=10;fontColor=#000000;endArrow=classic;endFill=1;" parent="1" source="Mn6l3UYsuZS0TiWTPpmY-36" target="Mn6l3UYsuZS0TiWTPpmY-3" edge="1">
          <mxGeometry relative="1" as="geometry">
            <Array as="points">
              <mxPoint x="395" y="510" />
            </Array>
          </mxGeometry>
        </mxCell>
        <mxCell id="Mn6l3UYsuZS0TiWTPpmY-41" style="edgeStyle=orthogonalEdgeStyle;rounded=0;orthogonalLoop=1;jettySize=auto;html=1;entryX=0.5;entryY=1;entryDx=0;entryDy=0;fontSize=10;fontColor=#000000;endArrow=classic;endFill=1;" parent="1" source="Mn6l3UYsuZS0TiWTPpmY-36" target="Mn6l3UYsuZS0TiWTPpmY-1" edge="1">
          <mxGeometry relative="1" as="geometry" />
        </mxCell>
        <mxCell id="Mn6l3UYsuZS0TiWTPpmY-36" value="" style="sketch=0;outlineConnect=0;fontColor=#232F3E;gradientColor=none;fillColor=#4D27AA;strokeColor=none;dashed=0;verticalLabelPosition=bottom;verticalAlign=top;align=center;html=1;fontSize=12;fontStyle=0;aspect=fixed;pointerEvents=1;shape=mxgraph.aws4.customer_gateway;direction=south;" parent="1" vertex="1">
          <mxGeometry x="326" y="490" width="38" height="38" as="geometry" />
        </mxCell>
        <mxCell id="Mn6l3UYsuZS0TiWTPpmY-42" value="Local Gateway" style="text;html=1;strokeColor=none;fillColor=none;align=center;verticalAlign=middle;whiteSpace=wrap;rounded=0;fontSize=10;fontColor=#000000;" parent="1" vertex="1">
          <mxGeometry x="301" y="464" width="80" height="30" as="geometry" />
        </mxCell>
        <mxCell id="Mn6l3UYsuZS0TiWTPpmY-43" value="VLAN B" style="text;html=1;strokeColor=none;fillColor=none;align=center;verticalAlign=middle;whiteSpace=wrap;rounded=0;fontSize=10;fontColor=#97D077;" parent="1" vertex="1">
          <mxGeometry x="293" y="161" width="60" height="30" as="geometry" />
        </mxCell>
        <mxCell id="Mn6l3UYsuZS0TiWTPpmY-44" value="On Premise Network" style="text;html=1;strokeColor=none;fillColor=none;align=center;verticalAlign=middle;whiteSpace=wrap;rounded=0;fontSize=10;fontColor=#000000;" parent="1" vertex="1">
          <mxGeometry x="450" y="90" width="60" height="30" as="geometry" />
        </mxCell>
        <mxCell id="Mn6l3UYsuZS0TiWTPpmY-46" value="VLAN B" style="text;html=1;strokeColor=none;fillColor=none;align=center;verticalAlign=middle;whiteSpace=wrap;rounded=0;fontSize=10;fontColor=#97D077;" parent="1" vertex="1">
          <mxGeometry x="430" y="170" width="60" height="30" as="geometry" />
        </mxCell>
        <mxCell id="Mn6l3UYsuZS0TiWTPpmY-48" value="VLAN A" style="text;html=1;strokeColor=none;fillColor=none;align=center;verticalAlign=middle;whiteSpace=wrap;rounded=0;fontSize=10;fontColor=#CC99FF;" parent="1" vertex="1">
          <mxGeometry x="353" y="160" width="60" height="30" as="geometry" />
        </mxCell>
        <mxCell id="Mn6l3UYsuZS0TiWTPpmY-50" value="Outpost Interface Endpoint" style="sketch=0;outlineConnect=0;fontColor=#232F3E;gradientColor=none;fillColor=#4D27AA;strokeColor=none;dashed=0;verticalLabelPosition=bottom;verticalAlign=top;align=center;html=1;fontSize=10;fontStyle=0;aspect=fixed;pointerEvents=1;shape=mxgraph.aws4.endpoint;" parent="1" vertex="1">
          <mxGeometry x="-430" y="351" width="46" height="46" as="geometry" />
        </mxCell>
      </root>
    </mxGraphModel>
  </diagram>
  <diagram name="Module 5 : Connecting Networks" id="HIl3oG0vk_UKeu9B903S">
    <mxGraphModel dx="1036" dy="3040" grid="1" gridSize="10" guides="1" tooltips="1" connect="1" arrows="1" fold="1" page="1" pageScale="1" pageWidth="827" pageHeight="1169" math="0" shadow="0">
      <root>
        <mxCell id="0" />
        <mxCell id="1" parent="0" />
        <mxCell id="nTWNfDeP7VJ2LCtQPWOW-62" value="" style="shape=cylinder3;whiteSpace=wrap;html=1;boundedLbl=1;backgroundOutline=1;size=15;fillColor=#bac8d3;rotation=-90;strokeColor=#23445d;textOpacity=40;opacity=40;" parent="1" vertex="1">
          <mxGeometry x="226.51" y="-115.25" width="51.75" height="292" as="geometry" />
        </mxCell>
        <mxCell id="RoPygs3i1z20y74ub6jw-10" value="" style="shape=cylinder3;whiteSpace=wrap;html=1;boundedLbl=1;backgroundOutline=1;size=15;fillColor=#bac8d3;rotation=-90;strokeColor=#23445d;opacity=40;" parent="1" vertex="1">
          <mxGeometry x="391.69" y="129.63" width="40" height="595.12" as="geometry" />
        </mxCell>
        <mxCell id="nTWNfDeP7VJ2LCtQPWOW-36" value="" style="ellipse;whiteSpace=wrap;html=1;fillColor=none;" parent="1" vertex="1">
          <mxGeometry x="410" y="-716.89" width="195" height="163.77" as="geometry" />
        </mxCell>
        <mxCell id="nTWNfDeP7VJ2LCtQPWOW-37" style="edgeStyle=orthogonalEdgeStyle;rounded=0;orthogonalLoop=1;jettySize=auto;html=1;entryX=0;entryY=0.5;entryDx=0;entryDy=0;endArrow=none;endFill=0;" parent="1" source="nTWNfDeP7VJ2LCtQPWOW-3" target="nTWNfDeP7VJ2LCtQPWOW-36" edge="1">
          <mxGeometry relative="1" as="geometry" />
        </mxCell>
        <mxCell id="nTWNfDeP7VJ2LCtQPWOW-3" value="" style="rounded=1;whiteSpace=wrap;html=1;fillColor=none;" parent="1" vertex="1">
          <mxGeometry x="130" y="-740" width="200" height="210" as="geometry" />
        </mxCell>
        <mxCell id="nTWNfDeP7VJ2LCtQPWOW-8" value="" style="rounded=1;whiteSpace=wrap;html=1;fillColor=none;dashed=1;" parent="1" vertex="1">
          <mxGeometry x="155" y="-700" width="50" height="140" as="geometry" />
        </mxCell>
        <mxCell id="G8TudDkYZaf4ChXSM93s-2" value="" style="points=[[0,0],[0.25,0],[0.5,0],[0.75,0],[1,0],[1,0.25],[1,0.5],[1,0.75],[1,1],[0.75,1],[0.5,1],[0.25,1],[0,1],[0,0.75],[0,0.5],[0,0.25]];outlineConnect=0;gradientColor=none;html=1;whiteSpace=wrap;fontSize=12;fontStyle=0;container=1;pointerEvents=0;collapsible=0;recursiveResize=0;shape=mxgraph.aws4.group;grIcon=mxgraph.aws4.group_account;strokeColor=#7F00FF;fillColor=none;verticalAlign=top;align=left;spacingLeft=30;fontColor=#CD2264;dashed=0;" parent="1" vertex="1">
          <mxGeometry x="85.38" y="894.75" width="910" height="440" as="geometry" />
        </mxCell>
        <mxCell id="G8TudDkYZaf4ChXSM93s-1" value="" style="sketch=0;points=[[0,0,0],[0.25,0,0],[0.5,0,0],[0.75,0,0],[1,0,0],[0,1,0],[0.25,1,0],[0.5,1,0],[0.75,1,0],[1,1,0],[0,0.25,0],[0,0.5,0],[0,0.75,0],[1,0.25,0],[1,0.5,0],[1,0.75,0]];outlineConnect=0;fontColor=#232F3E;gradientColor=#945DF2;gradientDirection=north;fillColor=#5A30B5;strokeColor=#ffffff;dashed=0;verticalLabelPosition=bottom;verticalAlign=top;align=center;html=1;fontSize=12;fontStyle=0;aspect=fixed;shape=mxgraph.aws4.resourceIcon;resIcon=mxgraph.aws4.cloud_wan;" parent="G8TudDkYZaf4ChXSM93s-2" vertex="1">
          <mxGeometry width="38" height="38" as="geometry" />
        </mxCell>
        <mxCell id="G8TudDkYZaf4ChXSM93s-3" value="Cloud WAN Code Network" style="text;html=1;strokeColor=none;fillColor=none;align=center;verticalAlign=middle;whiteSpace=wrap;rounded=0;fontColor=#7F00FF;" parent="G8TudDkYZaf4ChXSM93s-2" vertex="1">
          <mxGeometry x="31" y="4" width="172" height="30" as="geometry" />
        </mxCell>
        <mxCell id="G8TudDkYZaf4ChXSM93s-5" value="Development" style="rounded=1;whiteSpace=wrap;html=1;strokeColor=#FF3333;fontColor=#000000;fillColor=none;" parent="G8TudDkYZaf4ChXSM93s-2" vertex="1">
          <mxGeometry x="104" y="153" width="460" height="50" as="geometry" />
        </mxCell>
        <mxCell id="G8TudDkYZaf4ChXSM93s-6" value="Production" style="rounded=1;whiteSpace=wrap;html=1;strokeColor=#009900;fontColor=#000000;fillColor=none;" parent="G8TudDkYZaf4ChXSM93s-2" vertex="1">
          <mxGeometry x="104" y="213" width="460" height="50" as="geometry" />
        </mxCell>
        <mxCell id="G8TudDkYZaf4ChXSM93s-7" value="Shared" style="rounded=1;whiteSpace=wrap;html=1;strokeColor=#B3B3B3;fontColor=#000000;fillColor=none;" parent="G8TudDkYZaf4ChXSM93s-2" vertex="1">
          <mxGeometry x="104" y="273" width="460" height="50" as="geometry" />
        </mxCell>
        <mxCell id="G8TudDkYZaf4ChXSM93s-4" value="" style="sketch=0;outlineConnect=0;fontColor=#232F3E;gradientColor=none;fillColor=#4D27AA;strokeColor=none;dashed=0;verticalLabelPosition=bottom;verticalAlign=top;align=center;html=1;fontSize=10;fontStyle=0;aspect=fixed;pointerEvents=1;shape=mxgraph.aws4.cloud_wan_segment_network;" parent="G8TudDkYZaf4ChXSM93s-2" vertex="1">
          <mxGeometry x="114" y="223" width="28" height="28" as="geometry" />
        </mxCell>
        <mxCell id="G8TudDkYZaf4ChXSM93s-8" value="Segment" style="text;html=1;strokeColor=none;fillColor=none;align=left;verticalAlign=middle;whiteSpace=wrap;rounded=0;fontSize=10;fontColor=#000000;" parent="G8TudDkYZaf4ChXSM93s-2" vertex="1">
          <mxGeometry x="145" y="223" width="49" height="30" as="geometry" />
        </mxCell>
        <mxCell id="G8TudDkYZaf4ChXSM93s-9" value="" style="sketch=0;outlineConnect=0;fontColor=#232F3E;gradientColor=none;fillColor=#4D27AA;strokeColor=none;dashed=0;verticalLabelPosition=bottom;verticalAlign=top;align=center;html=1;fontSize=10;fontStyle=0;aspect=fixed;pointerEvents=1;shape=mxgraph.aws4.cloud_wan_segment_network;" parent="G8TudDkYZaf4ChXSM93s-2" vertex="1">
          <mxGeometry x="112" y="163" width="28" height="28" as="geometry" />
        </mxCell>
        <mxCell id="G8TudDkYZaf4ChXSM93s-10" value="Segment" style="text;html=1;strokeColor=none;fillColor=none;align=left;verticalAlign=middle;whiteSpace=wrap;rounded=0;fontSize=10;fontColor=#000000;" parent="G8TudDkYZaf4ChXSM93s-2" vertex="1">
          <mxGeometry x="143" y="163" width="49" height="30" as="geometry" />
        </mxCell>
        <mxCell id="G8TudDkYZaf4ChXSM93s-11" value="" style="sketch=0;outlineConnect=0;fontColor=#232F3E;gradientColor=none;fillColor=#4D27AA;strokeColor=none;dashed=0;verticalLabelPosition=bottom;verticalAlign=top;align=center;html=1;fontSize=10;fontStyle=0;aspect=fixed;pointerEvents=1;shape=mxgraph.aws4.cloud_wan_segment_network;" parent="G8TudDkYZaf4ChXSM93s-2" vertex="1">
          <mxGeometry x="114" y="283" width="28" height="28" as="geometry" />
        </mxCell>
        <mxCell id="G8TudDkYZaf4ChXSM93s-12" value="Segment" style="text;html=1;strokeColor=none;fillColor=none;align=left;verticalAlign=middle;whiteSpace=wrap;rounded=0;fontSize=10;fontColor=#000000;" parent="G8TudDkYZaf4ChXSM93s-2" vertex="1">
          <mxGeometry x="145" y="283" width="49" height="30" as="geometry" />
        </mxCell>
        <mxCell id="G8TudDkYZaf4ChXSM93s-15" style="edgeStyle=orthogonalEdgeStyle;rounded=0;orthogonalLoop=1;jettySize=auto;html=1;exitX=0;exitY=0.5;exitDx=0;exitDy=0;entryX=1;entryY=0.5;entryDx=0;entryDy=0;fontSize=10;fontColor=#000000;exitPerimeter=0;" parent="G8TudDkYZaf4ChXSM93s-2" source="G8TudDkYZaf4ChXSM93s-17" target="G8TudDkYZaf4ChXSM93s-5" edge="1">
          <mxGeometry relative="1" as="geometry">
            <mxPoint x="629" y="137" as="sourcePoint" />
          </mxGeometry>
        </mxCell>
        <mxCell id="G8TudDkYZaf4ChXSM93s-17" value="VPC Dev" style="sketch=0;points=[[0,0,0],[0.25,0,0],[0.5,0,0],[0.75,0,0],[1,0,0],[0,1,0],[0.25,1,0],[0.5,1,0],[0.75,1,0],[1,1,0],[0,0.25,0],[0,0.5,0],[0,0.75,0],[1,0.25,0],[1,0.5,0],[1,0.75,0]];outlineConnect=0;fontColor=#232F3E;gradientColor=#945DF2;gradientDirection=north;fillColor=#5A30B5;strokeColor=#ffffff;dashed=0;verticalLabelPosition=bottom;verticalAlign=top;align=center;html=1;fontSize=10;fontStyle=0;aspect=fixed;shape=mxgraph.aws4.resourceIcon;resIcon=mxgraph.aws4.vpc;" parent="G8TudDkYZaf4ChXSM93s-2" vertex="1">
          <mxGeometry x="689" y="160" width="37" height="37" as="geometry" />
        </mxCell>
        <mxCell id="G8TudDkYZaf4ChXSM93s-19" style="edgeStyle=orthogonalEdgeStyle;rounded=0;orthogonalLoop=1;jettySize=auto;html=1;entryX=1;entryY=0.5;entryDx=0;entryDy=0;fontSize=10;fontColor=#000000;" parent="G8TudDkYZaf4ChXSM93s-2" source="G8TudDkYZaf4ChXSM93s-18" target="G8TudDkYZaf4ChXSM93s-6" edge="1">
          <mxGeometry relative="1" as="geometry" />
        </mxCell>
        <mxCell id="G8TudDkYZaf4ChXSM93s-18" value="VPC Prod" style="sketch=0;points=[[0,0,0],[0.25,0,0],[0.5,0,0],[0.75,0,0],[1,0,0],[0,1,0],[0.25,1,0],[0.5,1,0],[0.75,1,0],[1,1,0],[0,0.25,0],[0,0.5,0],[0,0.75,0],[1,0.25,0],[1,0.5,0],[1,0.75,0]];outlineConnect=0;fontColor=#232F3E;gradientColor=#945DF2;gradientDirection=north;fillColor=#5A30B5;strokeColor=#ffffff;dashed=0;verticalLabelPosition=bottom;verticalAlign=top;align=center;html=1;fontSize=10;fontStyle=0;aspect=fixed;shape=mxgraph.aws4.resourceIcon;resIcon=mxgraph.aws4.vpc;" parent="G8TudDkYZaf4ChXSM93s-2" vertex="1">
          <mxGeometry x="689" y="220" width="37" height="37" as="geometry" />
        </mxCell>
        <mxCell id="G8TudDkYZaf4ChXSM93s-22" value="" style="group" parent="G8TudDkYZaf4ChXSM93s-2" vertex="1" connectable="0">
          <mxGeometry x="579" y="140" width="100" height="31" as="geometry" />
        </mxCell>
        <mxCell id="G8TudDkYZaf4ChXSM93s-20" value="" style="sketch=0;outlineConnect=0;fontColor=#232F3E;gradientColor=none;fillColor=#4D27AA;strokeColor=none;dashed=0;verticalLabelPosition=bottom;verticalAlign=top;align=center;html=1;fontSize=12;fontStyle=0;aspect=fixed;pointerEvents=1;shape=mxgraph.aws4.transit_gateway_attachment;" parent="G8TudDkYZaf4ChXSM93s-22" vertex="1">
          <mxGeometry width="28" height="28" as="geometry" />
        </mxCell>
        <mxCell id="G8TudDkYZaf4ChXSM93s-21" value="Attachment" style="text;html=1;strokeColor=none;fillColor=none;align=left;verticalAlign=middle;whiteSpace=wrap;rounded=0;fontSize=10;fontColor=#000000;" parent="G8TudDkYZaf4ChXSM93s-22" vertex="1">
          <mxGeometry x="32" y="1" width="68" height="30" as="geometry" />
        </mxCell>
        <mxCell id="G8TudDkYZaf4ChXSM93s-23" value="" style="group" parent="G8TudDkYZaf4ChXSM93s-2" vertex="1" connectable="0">
          <mxGeometry x="579" y="203" width="100" height="31" as="geometry" />
        </mxCell>
        <mxCell id="G8TudDkYZaf4ChXSM93s-24" value="" style="sketch=0;outlineConnect=0;fontColor=#232F3E;gradientColor=none;fillColor=#4D27AA;strokeColor=none;dashed=0;verticalLabelPosition=bottom;verticalAlign=top;align=center;html=1;fontSize=12;fontStyle=0;aspect=fixed;pointerEvents=1;shape=mxgraph.aws4.transit_gateway_attachment;" parent="G8TudDkYZaf4ChXSM93s-23" vertex="1">
          <mxGeometry width="28" height="28" as="geometry" />
        </mxCell>
        <mxCell id="G8TudDkYZaf4ChXSM93s-25" value="Attachment" style="text;html=1;strokeColor=none;fillColor=none;align=left;verticalAlign=middle;whiteSpace=wrap;rounded=0;fontSize=10;fontColor=#000000;" parent="G8TudDkYZaf4ChXSM93s-23" vertex="1">
          <mxGeometry x="32" y="1" width="68" height="30" as="geometry" />
        </mxCell>
        <mxCell id="G8TudDkYZaf4ChXSM93s-27" style="edgeStyle=orthogonalEdgeStyle;rounded=0;orthogonalLoop=1;jettySize=auto;html=1;entryX=1;entryY=0.5;entryDx=0;entryDy=0;fontSize=10;fontColor=#000000;" parent="G8TudDkYZaf4ChXSM93s-2" source="G8TudDkYZaf4ChXSM93s-26" target="G8TudDkYZaf4ChXSM93s-7" edge="1">
          <mxGeometry relative="1" as="geometry" />
        </mxCell>
        <mxCell id="G8TudDkYZaf4ChXSM93s-26" value="Site to site VPN" style="sketch=0;points=[[0,0,0],[0.25,0,0],[0.5,0,0],[0.75,0,0],[1,0,0],[0,1,0],[0.25,1,0],[0.5,1,0],[0.75,1,0],[1,1,0],[0,0.25,0],[0,0.5,0],[0,0.75,0],[1,0.25,0],[1,0.5,0],[1,0.75,0]];outlineConnect=0;fontColor=#232F3E;gradientColor=#945DF2;gradientDirection=north;fillColor=#5A30B5;strokeColor=#ffffff;dashed=0;verticalLabelPosition=bottom;verticalAlign=top;align=center;html=1;fontSize=10;fontStyle=0;aspect=fixed;shape=mxgraph.aws4.resourceIcon;resIcon=mxgraph.aws4.site_to_site_vpn;" parent="G8TudDkYZaf4ChXSM93s-2" vertex="1">
          <mxGeometry x="689" y="279" width="38" height="38" as="geometry" />
        </mxCell>
        <mxCell id="G8TudDkYZaf4ChXSM93s-28" value="" style="group" parent="G8TudDkYZaf4ChXSM93s-2" vertex="1" connectable="0">
          <mxGeometry x="579" y="267" width="100" height="31" as="geometry" />
        </mxCell>
        <mxCell id="G8TudDkYZaf4ChXSM93s-29" value="" style="sketch=0;outlineConnect=0;fontColor=#232F3E;gradientColor=none;fillColor=#4D27AA;strokeColor=none;dashed=0;verticalLabelPosition=bottom;verticalAlign=top;align=center;html=1;fontSize=12;fontStyle=0;aspect=fixed;pointerEvents=1;shape=mxgraph.aws4.transit_gateway_attachment;" parent="G8TudDkYZaf4ChXSM93s-28" vertex="1">
          <mxGeometry width="28" height="28" as="geometry" />
        </mxCell>
        <mxCell id="G8TudDkYZaf4ChXSM93s-30" value="Attachment" style="text;html=1;strokeColor=none;fillColor=none;align=left;verticalAlign=middle;whiteSpace=wrap;rounded=0;fontSize=10;fontColor=#000000;" parent="G8TudDkYZaf4ChXSM93s-28" vertex="1">
          <mxGeometry x="32" y="1" width="68" height="30" as="geometry" />
        </mxCell>
        <mxCell id="G8TudDkYZaf4ChXSM93s-33" value="Core Network Policy" style="sketch=0;pointerEvents=1;shadow=0;dashed=0;html=1;strokeColor=none;labelPosition=center;verticalLabelPosition=bottom;verticalAlign=top;align=center;fillColor=#505050;shape=mxgraph.mscae.intune.policy;fontSize=10;fontColor=#000000;" parent="G8TudDkYZaf4ChXSM93s-2" vertex="1">
          <mxGeometry x="318" y="22" width="34" height="32" as="geometry" />
        </mxCell>
        <mxCell id="G8TudDkYZaf4ChXSM93s-35" value="Region 1" style="points=[[0,0],[0.25,0],[0.5,0],[0.75,0],[1,0],[1,0.25],[1,0.5],[1,0.75],[1,1],[0.75,1],[0.5,1],[0.25,1],[0,1],[0,0.75],[0,0.5],[0,0.25]];outlineConnect=0;gradientColor=none;html=1;whiteSpace=wrap;fontSize=12;fontStyle=0;container=1;pointerEvents=0;collapsible=0;recursiveResize=0;shape=mxgraph.aws4.group;grIcon=mxgraph.aws4.group_region;strokeColor=#147EBA;fillColor=none;verticalAlign=top;align=left;spacingLeft=30;fontColor=#147EBA;dashed=1;" parent="G8TudDkYZaf4ChXSM93s-2" vertex="1">
          <mxGeometry x="210" y="100" width="130" height="300" as="geometry" />
        </mxCell>
        <mxCell id="G8TudDkYZaf4ChXSM93s-37" value="Cloud Network Edge" style="sketch=0;outlineConnect=0;fontColor=#232F3E;gradientColor=none;fillColor=#4D27AA;strokeColor=none;dashed=0;verticalLabelPosition=bottom;verticalAlign=top;align=center;html=1;fontSize=12;fontStyle=0;aspect=fixed;pointerEvents=1;shape=mxgraph.aws4.cloud_wan_virtual_pop;" parent="G8TudDkYZaf4ChXSM93s-35" vertex="1">
          <mxGeometry x="46" y="240" width="38" height="38" as="geometry" />
        </mxCell>
        <mxCell id="G8TudDkYZaf4ChXSM93s-36" value="Region 2" style="points=[[0,0],[0.25,0],[0.5,0],[0.75,0],[1,0],[1,0.25],[1,0.5],[1,0.75],[1,1],[0.75,1],[0.5,1],[0.25,1],[0,1],[0,0.75],[0,0.5],[0,0.25]];outlineConnect=0;gradientColor=none;html=1;whiteSpace=wrap;fontSize=12;fontStyle=0;container=1;pointerEvents=0;collapsible=0;recursiveResize=0;shape=mxgraph.aws4.group;grIcon=mxgraph.aws4.group_region;strokeColor=#147EBA;fillColor=none;verticalAlign=top;align=left;spacingLeft=30;fontColor=#147EBA;dashed=1;" parent="G8TudDkYZaf4ChXSM93s-2" vertex="1">
          <mxGeometry x="390" y="100" width="130" height="300" as="geometry" />
        </mxCell>
        <mxCell id="G8TudDkYZaf4ChXSM93s-38" value="Cloud Network Edge" style="sketch=0;outlineConnect=0;fontColor=#232F3E;gradientColor=none;fillColor=#4D27AA;strokeColor=none;dashed=0;verticalLabelPosition=bottom;verticalAlign=top;align=center;html=1;fontSize=12;fontStyle=0;aspect=fixed;pointerEvents=1;shape=mxgraph.aws4.cloud_wan_virtual_pop;" parent="G8TudDkYZaf4ChXSM93s-36" vertex="1">
          <mxGeometry x="46" y="235" width="38" height="38" as="geometry" />
        </mxCell>
        <mxCell id="G8TudDkYZaf4ChXSM93s-34" value="&lt;ul style=&quot;font-size: 12px;&quot;&gt;&lt;li style=&quot;font-size: 12px;&quot;&gt;Define all your network architecture in a &lt;b style=&quot;font-size: 12px;&quot;&gt;core network policy&lt;/b&gt; (segments, attachments, routing configurations)&lt;/li&gt;&lt;li style=&quot;font-size: 12px;&quot;&gt;Each Core Network can span multiple regions. Each region will have a cloud network edge attached to it. A cloud Network Edge is built on the same technology that Transit Gateway, but peering 2 edges can be dynamic (BGP)&lt;/li&gt;&lt;li style=&quot;font-size: 12px;&quot;&gt;A Segment corresponds to a route table. All attachments attached to a segment can talk to each other. Shared Segment can be created as well.&lt;/li&gt;&lt;li style=&quot;font-size: 12px;&quot;&gt;A segment can span multiple regions&lt;/li&gt;&lt;li style=&quot;font-size: 12px;&quot;&gt;A network resource such as VPC or site to site VPN is binded to a segment via an attachment&lt;/li&gt;&lt;/ul&gt;" style="text;html=1;strokeColor=none;fillColor=none;align=left;verticalAlign=middle;whiteSpace=wrap;rounded=0;fontSize=12;fontColor=#000000;" parent="1" vertex="1">
          <mxGeometry x="85.38" y="744.75" width="910" height="100" as="geometry" />
        </mxCell>
        <mxCell id="qB0BAYFAu2bKielhK25V-1" value="Cloud WAN components" style="text;html=1;strokeColor=none;fillColor=none;align=center;verticalAlign=middle;whiteSpace=wrap;rounded=0;fontSize=16;fontColor=#000000;fontStyle=1" parent="1" vertex="1">
          <mxGeometry x="85.38" y="694.75" width="230" height="30" as="geometry" />
        </mxCell>
        <mxCell id="nTWNfDeP7VJ2LCtQPWOW-1" value="SD-WAN" style="text;html=1;strokeColor=none;fillColor=none;align=center;verticalAlign=middle;whiteSpace=wrap;rounded=0;fontSize=16;fontColor=#000000;fontStyle=1" parent="1" vertex="1">
          <mxGeometry y="-970" width="230" height="30" as="geometry" />
        </mxCell>
        <mxCell id="nTWNfDeP7VJ2LCtQPWOW-4" value="Site 1" style="text;html=1;strokeColor=none;fillColor=none;align=center;verticalAlign=middle;whiteSpace=wrap;rounded=0;" parent="1" vertex="1">
          <mxGeometry x="145" y="-740" width="60" height="30" as="geometry" />
        </mxCell>
        <mxCell id="nTWNfDeP7VJ2LCtQPWOW-5" value="" style="sketch=0;pointerEvents=1;shadow=0;dashed=0;html=1;strokeColor=none;labelPosition=center;verticalLabelPosition=bottom;verticalAlign=top;align=center;fillColor=#515151;shape=mxgraph.mscae.system_center.primary_site" parent="1" vertex="1">
          <mxGeometry x="170" y="-680" width="28" height="35" as="geometry" />
        </mxCell>
        <mxCell id="nTWNfDeP7VJ2LCtQPWOW-10" style="edgeStyle=orthogonalEdgeStyle;rounded=0;orthogonalLoop=1;jettySize=auto;html=1;entryX=1;entryY=0.5;entryDx=0;entryDy=0;" parent="1" source="nTWNfDeP7VJ2LCtQPWOW-6" target="nTWNfDeP7VJ2LCtQPWOW-8" edge="1">
          <mxGeometry relative="1" as="geometry" />
        </mxCell>
        <mxCell id="nTWNfDeP7VJ2LCtQPWOW-25" style="edgeStyle=orthogonalEdgeStyle;rounded=0;orthogonalLoop=1;jettySize=auto;html=1;entryX=0;entryY=0.5;entryDx=0;entryDy=0;entryPerimeter=0;dashed=1;" parent="1" source="nTWNfDeP7VJ2LCtQPWOW-6" target="nTWNfDeP7VJ2LCtQPWOW-23" edge="1">
          <mxGeometry relative="1" as="geometry" />
        </mxCell>
        <mxCell id="nTWNfDeP7VJ2LCtQPWOW-6" value="Wan Edge" style="verticalLabelPosition=bottom;sketch=0;html=1;fillColor=#6ABD46;strokeColor=#ffffff;verticalAlign=top;align=center;points=[[0.085,0.085,0],[0.915,0.085,0],[0.915,0.915,0],[0.085,0.915,0],[0.25,0,0],[0.5,0,0],[0.75,0,0],[1,0.25,0],[1,0.5,0],[1,0.75,0],[0.75,1,0],[0.5,1,0],[0.25,1,0],[0,0.75,0],[0,0.5,0],[0,0.25,0]];pointerEvents=1;shape=mxgraph.cisco_safe.compositeIcon;bgIcon=mxgraph.cisco_safe.architecture.generic_appliance;resIcon=mxgraph.cisco_safe.architecture.sd_wan;" parent="1" vertex="1">
          <mxGeometry x="267" y="-645" width="30" height="30" as="geometry" />
        </mxCell>
        <mxCell id="nTWNfDeP7VJ2LCtQPWOW-7" value="" style="sketch=0;pointerEvents=1;shadow=0;dashed=0;html=1;strokeColor=none;labelPosition=center;verticalLabelPosition=bottom;verticalAlign=top;align=center;fillColor=#515151;shape=mxgraph.mscae.system_center.primary_site" parent="1" vertex="1">
          <mxGeometry x="170" y="-620" width="28" height="35" as="geometry" />
        </mxCell>
        <mxCell id="nTWNfDeP7VJ2LCtQPWOW-38" style="edgeStyle=orthogonalEdgeStyle;rounded=0;orthogonalLoop=1;jettySize=auto;html=1;exitX=0;exitY=0.75;exitDx=0;exitDy=0;entryX=1;entryY=0;entryDx=0;entryDy=0;endArrow=none;endFill=0;" parent="1" source="nTWNfDeP7VJ2LCtQPWOW-11" target="nTWNfDeP7VJ2LCtQPWOW-36" edge="1">
          <mxGeometry relative="1" as="geometry" />
        </mxCell>
        <mxCell id="nTWNfDeP7VJ2LCtQPWOW-11" value="" style="rounded=1;whiteSpace=wrap;html=1;fillColor=none;" parent="1" vertex="1">
          <mxGeometry x="720" y="-830" width="220" height="170" as="geometry" />
        </mxCell>
        <mxCell id="nTWNfDeP7VJ2LCtQPWOW-12" value="Cloud" style="text;html=1;strokeColor=none;fillColor=none;align=center;verticalAlign=middle;whiteSpace=wrap;rounded=0;" parent="1" vertex="1">
          <mxGeometry x="733" y="-830" width="60" height="30" as="geometry" />
        </mxCell>
        <mxCell id="nTWNfDeP7VJ2LCtQPWOW-13" value="" style="shape=image;verticalLabelPosition=bottom;labelBackgroundColor=default;verticalAlign=top;aspect=fixed;imageAspect=0;image=data:image/png,iVBORw0KGgoAAAANSUhEUgAAAT4AAACfCAMAAABX0UX9AAAAyVBMVEX///8jLz7/mQD/kwD/lAD/lgAfLDsAGS4aKDgAFywAFSsdKjoQITP/kQAAEyq+wcQADic2QE0GHC8PIDKoq7Dz9PWztbne3+HHycz/5sudoabX2dvt7u/5+frDxcgACCSKj5Vtc3v/+O3/37uUmJ1WXWdiaXJ/hIv/+O//0J7/y5L/79v/uWpASVV1e4JIUFv/slf/xof/4L4tOEb/2Kz/8OD/rEX/tWD/v3j/nxT/06T/pTH/6tEAABlaYWtmbHX/w3//rk3/pCs/D3fcAAAN3UlEQVR4nO1cd0PiThOmpDdCQi8CAiKggCjYOCzf/0O9KduSbED9eWS5d5+/7kLK5NmZ2Wkxl+Pg4ODg4ODg4ODg4ODg4ODg4ODg4ODg4ODg4GAJnXap0hqNRq1Kqd3JRoRu/cIXIUMJfoRuYzRWVE12XMMwXEfWVGXfqp9YiPZo6WiqL0IowXjU6J5YhJ+gWrsyNEOR8iQkxbVva7Ez22WA8QX9VvXBbXjCspXysNIY3OIqerxbKduGHpFAN1RnX6v+19f7u2gMVFnJU6HL+SiBC1cKoCs9umrmDR2c0atQT2j/UcAZvTZ5vGI4Ok0ERXb6DKtgqWyncBdqgH1FCj9y4Q/Ggno3DV95T33eAD3NJhagcytL+TS4+VN7kS9jb1PXnIBRJqyngeiRJNrtJga+sEf1/TK6QZ64rXVoCfMKfSWyR806Qp4vfJnQPxUdtmkqcU/okFyinNBGDzQm6GCpl6564Uowqn5947Dc4Yu+4QvekJo4FN/WIVfD6FMe2ELWrzbgsbZ9TALrDOjztlpH0yzLi16iO2DexnpUQ8anXCVvd6ESV0m3lAeOEf0qPNQ1CN2TDMeyez5sDYvBOn2SItvlQavWaHu4qExu7cg76eiCKibISL8deOlkyNF1EPsDeGyAL9LV/KQWxsvdTrvWX3rBH/P0SYaWn5Sijr4zMghvLuPwZYwUU2vH75ZbRrQWmycC3nqQZ2z30AVuOR5NVksD2ZXofpYBePTpsjFJEuFJvkduKq8v0eEKOuomAuNudCMyRombjpCmqVA1sTd1qbFQtXXfoyg6Eyj96S1raVHpFdY/HITUEUVJ54d1KyR9nLglUk9lD45U0f2INYqhzmziUT+QmHd15P+IbbaMDNSKXwC3VXiZG1+Yqpy4Id5tLJoNnDMqFEdPbA+J992H6iotpZQTMFcaXDaUx5Bh9L8B7MukMjqIA9+E8wNFB6fmpJyAqMeGuoAeghYInTmw93Ow+0GVGeS/AKBbVLog+UgwggwfE4seQSj4vwK8zRKR1wJzGvVtwNaVMawLEPFiAJyU4EgE0UfZaM4dDeyrsBsrIf8f822ANE+zoNPUovEaulLHviB1Mf4B1FEkQoTAXRTnxnwbMFmtkauDLNaJVgtRPYaICHEkSEuizxsdpH1k+QTlrUrE3qBpWl1UllKigXAZek2Lpst5ldHc4seoOjT6cDwTCezAfhtsqsCjRYORDlRbslaIw+a85CazvLMGnT68A0TSXmCaQZ0KBtA2GZXDeIYs9ZFJW16yB/+UAtLpw/FHJKsFpqn6aT8MDiOXoV0iUkuIVPsU++0f0sAU+pC7J4MN6Cd7QYQILoyUTFEpWos8ZBwp1Cvaff8Ms7duuzK5Wt6Wy7fL/WIEim4p9BGJB3Z+ICEDHSLACVkyhdtxPEDuxIrNkmHlJ2elg93a3tJcQ9F1SdJ1RTEczdavRo06iiqijQtUFNDwa4KEDPg15PxwtoJcX7wJUkkU6yVDcxcXZxIHdiaak+x0SYqh4qAi+sq0AA7UosCJsHZF8ItalHK8/tSnNTsUWR7Qmk2soaV+oV8UpQ9VTnDq3wUUgFJK10jwC1U2nip7GNFbbYqq9BmfdKkuVZrkh+nDLQsLWlg7VDfUHAdFfRxZI9dHyy4aCn0JPStmecYgV5cONqhT6MOJPopBgLNDeQbcnV14CQq2LZpCdSe9FBtwlZRxGgbQcaMtScnbN3zocWOK0YcjYGicoFSKslxYbUD5GWQ8rSbf6cv0URupl+yZsIHuPcmeosrl8WCxWLyNb/Oq5ZAzVzH6UP6FyAC6gwpbsC7vVqInUDpMSJralasqFC9o9X/9zX8FRIs1bziLBrElVtu1/hgrYTzYQD0fEJmAUimR5IIzYMm0DYs3B5uO1dJC0YwEg3Z8UI4JEC3WvLWguKQOPWzOEcMWwPnBUime5wBxICQUtZHKuSNoTHQrziDVX2YNIl3qUdc3JevIEf1KkJaBoI7YVS+A9QJzBr6RPvkSR3t0Hx2bI5aFGRDJukovVabTh6I44PxAPksU8qpAtcFmAun+ajuyPdBIAhmcM8CF3rTd8AB9KPEIJllA3iopRJAG6jJhKAOzEMnNfRWdATG0QJlYyBq3yMFQplEC0KvNAVAbJChQgUAmklAAgsNAGro+ZZL7OmrYPHTauFamwKpFG5YKUE9O9ECgsbLAmQGqIkEJLMMHbh9OFqUtFB01PPWRSJSzBp5WSe0RNtK1D1UAAr0ApdJI9RkWovxLu5CHxNzGYeBGM2WeK1tgblItCs+CJulDg5JyJ9cB/7YjZ4DdxVdP+Kzv7qC4kfQ9tT0BsGipwcQeLX6SPuQX1RIMUmI70AKXTOF0BnXe+QA62HswTF+K9lVxWO0k40LozjzyYak0uj3CxNjuoiTlux6sg2TUWKOvcXBM2Qcxa+smA0No2XoZshMzMOhc1QacNaKU+g4D713Mzee28Tca9NmwOlEEptg3+lmGuZ0W0y3o/Fpwpb49SIAtxGFt58VBHX1bq5LlGNrmDIcGlEno5BKxGXB+yhsM0O3vpq5o56WO6WcL1PCJD1ME6JQjWSdl9fG0XoqGwgppGQTotOSmfcinNfBHNOxlHQOiYpB4iUaskErZO9rRUebktooiS7BOlFJf/Y8m99PcWvvIN0zZokR0OeSo+dYHdqxkpFMKTU70FDVhmvnoTSgc+NGjYY+pX522sAzf3nNOAGL0Oy9ZE/TyndoeVjvwtwl5K2lli4h5Uyp5b9ETKF/2hcGNIsvjUSPCfn2UJ1anx1rO4aNFqo+hLSetSmU0KFuo6yvjYSqa4yKGy/LU3KXikifQonPUNNFdVbsfL/qeCJXRZJ+3XEJzne8UGk6HqHHphuu4ZIPD84jEtx12ouNVjdBH846R72Ropb4auYKSrngi+B/jRzseCnvbbgCyWp+AZHvmWsdnUJRnf6yiSWqfpFAkuIhtPzQoedZiPojkeAkWWg+UZQGjE4nifwjbpn89TvJLi45yVevIp7z+99gsNjpCtFK+RJasfbjkVVDXM3RKgFYnjJP6YUGLUD+N2u4uHfxbAL4gVyyPGZRkSndfcg3kyBq++Ur2gvoSRLPJphVTCNuPf6WATrmyk51JdJFjMNmjxOgMejHxFdkYEWRVeoajpOQGdUtzQvTokVn/jxz+rvZSa1X1vh77EyRQEFVpsax6IeoT3Q6G+3Rv53Ms+Sr2oo1J+kt0L2oh0gKzein8vXTQgbVHY9kfawCRqP+XTlzLfTuHATUf7cpkv7y9Xe4nlXZG691t1/pXt/eKp6mucr9cZCbIWaNb9cCJ4+Dg4ODg4ODg4ODgOAdcbprDBw/D5uY6a1nOC7uXm9eCYBaLgodi0RQK27tm1kKdB64fHgumIBaiEAWzcJe1aOxjdyMU49RBFLdZS5eb3rBsBM2tmcadD3OTsXxrUzRXWQuRhsvVQfI8+rJe+qbpuZHiE5M72TDh8BLWu85axnePv4IgzrKWI4m5GWwRor/VFsM91/8XyWn29OVmgZRC4SVrQeJYm6ZZeH18mj2sd/PNtW8g15fz5pSw6GLWxuthaIaiFB6yliSGzZzuUy63kD9zfmKRaNgVQnGKz6wRmAaofQITPvvyUwDG8MycCVPxCNTvOWtBAFYmXM/CjIkVPYz3kD4x+7AZYGYigyg+sRoHIgD6BHaytqaI9jMvkGZgR4vjsolXFRhvcZihPDFcvhYLmMDnKVs2vF4VTfMJ/u8VuOrLLEWK4w4ZsG8Yws0ua4EgrqfPQaxnwsgALPJrplIl0CwIBIG+CrKwvOuVCcSCvi7MR1hyfSGuH0kF9AQ0Px6yNeLdewHXq2CF4EVgJ2iO4kGMpuliUXzMzEFvZp8mYQ8mTMxXIlNRH4nrVVQBAYOn18HN7NWM+BIR1QdA2MJgmcPDUBQKCQaF1cMp/eDu7tmMSmF+oBVshiGCyYJjpuGGUqUUBfPzNN2Zy+FNIcad93QiHX8PfhRXpxDmR9gRMSABoSiuXv5uStK8e6X0NswVqWngGDNxFQUvSQuGSlh4fPkrW951c7YVky01Pw+PbF67sIzKTL5LxfVTap/Bp/Bjtv5N17MZvr8KNOr88DMW3oW2m3mb4xg2jwcaNaJQ9NRwtv7vpjwf3n34Skd/lmg+xpcpPM6u50OYfxzudHkcFoXXm+nwR0MT15vh9OZTiHYv4uRtEx5uHdhu5i3KL+FInxUpovi8vZk9NOdfMejrTXM4e9o+i+YB4kLyXimtoKDaUmQz5kviKwQG7+p3xMxi4fn14+Z9Nn0ZrpvN3Rxg11wPH16md0+r7ac/qiKk2epR8nLXvucTP0/Ow4+xO9asjvPoMxk0F00E0GgUj7OGyNvS94Yg3xXOwnQhNk8CPYz5WxCEm7TY6NP72cy+vfs9wIrbKSCaz7NUH+oHfeb0lK/+S2iuTqKCQvHjkG7diLjwcma4nMbz+F/n7miFVhDPlT0f80Ql5Fe5uzuaDT5tz83vxbB7/wsMij53LNcAfhPz2euRiPd73BWF7ZS9wvvfxCV14PgH1Hlq95RBLZsBzF88Cn+uhn6y9/n0cFYR8G9jM7zbfptD0a81PK9m6/9LrUtgs549fha+kMr66ZyXF78+TZusNioyw2XzYXazfRYFNEqLERwqPH88zR52XOUO4nozb66HL9PZ7M7HbDZ9eVg35/xDKg4ODg4ODg4ODg4ODg4ODg4ODg4ODg4ODg6Ofwb/A18iD3I6BhLfAAAAAElFTkSuQmCC;" parent="1" vertex="1">
          <mxGeometry x="796" y="-800" width="68" height="34" as="geometry" />
        </mxCell>
        <mxCell id="nTWNfDeP7VJ2LCtQPWOW-27" style="edgeStyle=orthogonalEdgeStyle;rounded=0;orthogonalLoop=1;jettySize=auto;html=1;entryX=1;entryY=0.5;entryDx=0;entryDy=0;entryPerimeter=0;dashed=1;" parent="1" source="nTWNfDeP7VJ2LCtQPWOW-14" target="nTWNfDeP7VJ2LCtQPWOW-23" edge="1">
          <mxGeometry relative="1" as="geometry" />
        </mxCell>
        <mxCell id="nTWNfDeP7VJ2LCtQPWOW-14" value="Wan Edge" style="verticalLabelPosition=bottom;sketch=0;html=1;fillColor=#6ABD46;strokeColor=#ffffff;verticalAlign=top;align=center;points=[[0.085,0.085,0],[0.915,0.085,0],[0.915,0.915,0],[0.085,0.915,0],[0.25,0,0],[0.5,0,0],[0.75,0,0],[1,0.25,0],[1,0.5,0],[1,0.75,0],[0.75,1,0],[0.5,1,0],[0.25,1,0],[0,0.75,0],[0,0.5,0],[0,0.25,0]];pointerEvents=1;shape=mxgraph.cisco_safe.compositeIcon;bgIcon=mxgraph.cisco_safe.architecture.generic_appliance;resIcon=mxgraph.cisco_safe.architecture.sd_wan;" parent="1" vertex="1">
          <mxGeometry x="813" y="-740" width="30" height="30" as="geometry" />
        </mxCell>
        <mxCell id="nTWNfDeP7VJ2LCtQPWOW-39" style="edgeStyle=orthogonalEdgeStyle;rounded=0;orthogonalLoop=1;jettySize=auto;html=1;entryX=0.5;entryY=1;entryDx=0;entryDy=0;endArrow=none;endFill=0;" parent="1" source="nTWNfDeP7VJ2LCtQPWOW-15" target="nTWNfDeP7VJ2LCtQPWOW-36" edge="1">
          <mxGeometry relative="1" as="geometry" />
        </mxCell>
        <mxCell id="nTWNfDeP7VJ2LCtQPWOW-15" value="" style="rounded=1;whiteSpace=wrap;html=1;fillColor=none;" parent="1" vertex="1">
          <mxGeometry x="660" y="-630" width="170" height="220" as="geometry" />
        </mxCell>
        <mxCell id="nTWNfDeP7VJ2LCtQPWOW-16" value="" style="rounded=1;whiteSpace=wrap;html=1;fillColor=none;dashed=1;" parent="1" vertex="1">
          <mxGeometry x="757.5" y="-590" width="50" height="140" as="geometry" />
        </mxCell>
        <mxCell id="nTWNfDeP7VJ2LCtQPWOW-17" value="Site 2" style="text;html=1;strokeColor=none;fillColor=none;align=center;verticalAlign=middle;whiteSpace=wrap;rounded=0;" parent="1" vertex="1">
          <mxGeometry x="670" y="-630" width="60" height="30" as="geometry" />
        </mxCell>
        <mxCell id="nTWNfDeP7VJ2LCtQPWOW-18" value="" style="sketch=0;pointerEvents=1;shadow=0;dashed=0;html=1;strokeColor=none;labelPosition=center;verticalLabelPosition=bottom;verticalAlign=top;align=center;fillColor=#515151;shape=mxgraph.mscae.system_center.primary_site" parent="1" vertex="1">
          <mxGeometry x="772.5" y="-570" width="28" height="35" as="geometry" />
        </mxCell>
        <mxCell id="nTWNfDeP7VJ2LCtQPWOW-19" style="edgeStyle=orthogonalEdgeStyle;rounded=0;orthogonalLoop=1;jettySize=auto;html=1;entryX=0;entryY=0.5;entryDx=0;entryDy=0;" parent="1" source="nTWNfDeP7VJ2LCtQPWOW-20" target="nTWNfDeP7VJ2LCtQPWOW-16" edge="1">
          <mxGeometry relative="1" as="geometry" />
        </mxCell>
        <mxCell id="nTWNfDeP7VJ2LCtQPWOW-28" style="edgeStyle=orthogonalEdgeStyle;rounded=0;orthogonalLoop=1;jettySize=auto;html=1;entryX=0.5;entryY=1;entryDx=0;entryDy=0;entryPerimeter=0;dashed=1;" parent="1" source="nTWNfDeP7VJ2LCtQPWOW-20" target="nTWNfDeP7VJ2LCtQPWOW-23" edge="1">
          <mxGeometry relative="1" as="geometry">
            <Array as="points">
              <mxPoint x="670" y="-520" />
              <mxPoint x="670" y="-830" />
            </Array>
          </mxGeometry>
        </mxCell>
        <mxCell id="nTWNfDeP7VJ2LCtQPWOW-20" value="Wan Edge" style="verticalLabelPosition=bottom;sketch=0;html=1;fillColor=#6ABD46;strokeColor=#ffffff;verticalAlign=top;align=center;points=[[0.085,0.085,0],[0.915,0.085,0],[0.915,0.915,0],[0.085,0.915,0],[0.25,0,0],[0.5,0,0],[0.75,0,0],[1,0.25,0],[1,0.5,0],[1,0.75,0],[0.75,1,0],[0.5,1,0],[0.25,1,0],[0,0.75,0],[0,0.5,0],[0,0.25,0]];pointerEvents=1;shape=mxgraph.cisco_safe.compositeIcon;bgIcon=mxgraph.cisco_safe.architecture.generic_appliance;resIcon=mxgraph.cisco_safe.architecture.sd_wan;" parent="1" vertex="1">
          <mxGeometry x="690" y="-535" width="30" height="30" as="geometry" />
        </mxCell>
        <mxCell id="nTWNfDeP7VJ2LCtQPWOW-21" value="" style="sketch=0;pointerEvents=1;shadow=0;dashed=0;html=1;strokeColor=none;labelPosition=center;verticalLabelPosition=bottom;verticalAlign=top;align=center;fillColor=#515151;shape=mxgraph.mscae.system_center.primary_site" parent="1" vertex="1">
          <mxGeometry x="772.5" y="-510" width="28" height="35" as="geometry" />
        </mxCell>
        <mxCell id="nTWNfDeP7VJ2LCtQPWOW-22" value="" style="rounded=1;whiteSpace=wrap;html=1;fillColor=none;" parent="1" vertex="1">
          <mxGeometry x="380" y="-920" width="200" height="150" as="geometry" />
        </mxCell>
        <mxCell id="nTWNfDeP7VJ2LCtQPWOW-23" value="Wan Control Plane" style="verticalLabelPosition=bottom;sketch=0;html=1;fillColor=#6ABD46;strokeColor=#ffffff;verticalAlign=top;align=center;points=[[0.085,0.085,0],[0.915,0.085,0],[0.915,0.915,0],[0.085,0.915,0],[0.25,0,0],[0.5,0,0],[0.75,0,0],[1,0.25,0],[1,0.5,0],[1,0.75,0],[0.75,1,0],[0.5,1,0],[0.25,1,0],[0,0.75,0],[0,0.5,0],[0,0.25,0]];pointerEvents=1;shape=mxgraph.cisco_safe.compositeIcon;bgIcon=mxgraph.cisco_safe.architecture.generic_appliance;resIcon=mxgraph.cisco_safe.architecture.sd_wan_2;dashed=1;" parent="1" vertex="1">
          <mxGeometry x="450" y="-880" width="50" height="50" as="geometry" />
        </mxCell>
        <mxCell id="nTWNfDeP7VJ2LCtQPWOW-24" value="Site 3" style="text;html=1;strokeColor=none;fillColor=none;align=center;verticalAlign=middle;whiteSpace=wrap;rounded=0;" parent="1" vertex="1">
          <mxGeometry x="380" y="-920" width="60" height="30" as="geometry" />
        </mxCell>
        <mxCell id="nTWNfDeP7VJ2LCtQPWOW-30" value="Internet" style="aspect=fixed;perimeter=ellipsePerimeter;html=1;align=center;shadow=0;dashed=0;spacingTop=3;image;image=img/lib/active_directory/internet_cloud.svg;fillColor=none;" parent="1" vertex="1">
          <mxGeometry x="435" y="-694.22" width="55" height="34.65" as="geometry" />
        </mxCell>
        <mxCell id="nTWNfDeP7VJ2LCtQPWOW-34" value="MPLS" style="aspect=fixed;perimeter=ellipsePerimeter;html=1;align=center;shadow=0;dashed=0;spacingTop=3;image;image=img/lib/active_directory/internet_cloud.svg;fillColor=none;" parent="1" vertex="1">
          <mxGeometry x="515" y="-694.22" width="55" height="34.65" as="geometry" />
        </mxCell>
        <mxCell id="nTWNfDeP7VJ2LCtQPWOW-35" value="4G / 5G" style="aspect=fixed;perimeter=ellipsePerimeter;html=1;align=center;shadow=0;dashed=0;spacingTop=3;image;image=img/lib/active_directory/internet_cloud.svg;fillColor=none;" parent="1" vertex="1">
          <mxGeometry x="475" y="-627.77" width="55" height="34.65" as="geometry" />
        </mxCell>
        <mxCell id="nTWNfDeP7VJ2LCtQPWOW-40" value="&lt;ul&gt;&lt;li&gt;Centralized Management&lt;/li&gt;&lt;ul&gt;&lt;li&gt;Configuration&lt;/li&gt;&lt;li&gt;Reporting / Monitoring&lt;/li&gt;&lt;/ul&gt;&lt;li&gt;Dynamic Path selection&lt;/li&gt;&lt;ul&gt;&lt;li&gt;Improves latency&lt;/li&gt;&lt;li&gt;Bandwidth optimization&lt;/li&gt;&lt;li&gt;Improve resiliency (load balancing)&lt;/li&gt;&lt;/ul&gt;&lt;li&gt;Security&lt;/li&gt;&lt;ul&gt;&lt;li&gt;Built-in firewalls and encryption&lt;/li&gt;&lt;/ul&gt;&lt;/ul&gt;" style="text;html=1;strokeColor=none;fillColor=none;align=left;verticalAlign=middle;whiteSpace=wrap;rounded=0;" parent="1" vertex="1">
          <mxGeometry x="40" y="-910" width="310" height="130" as="geometry" />
        </mxCell>
        <mxCell id="nTWNfDeP7VJ2LCtQPWOW-41" value="Transit Gateway Connect" style="text;html=1;strokeColor=none;fillColor=none;align=center;verticalAlign=middle;whiteSpace=wrap;rounded=0;fontSize=16;fontColor=#000000;fontStyle=1" parent="1" vertex="1">
          <mxGeometry x="37" y="-366" width="230" height="30" as="geometry" />
        </mxCell>
        <mxCell id="RoPygs3i1z20y74ub6jw-16" value="" style="edgeStyle=orthogonalEdgeStyle;rounded=0;orthogonalLoop=1;jettySize=auto;html=1;fontSize=10;endArrow=none;endFill=0;" parent="1" source="nTWNfDeP7VJ2LCtQPWOW-42" target="nTWNfDeP7VJ2LCtQPWOW-43" edge="1">
          <mxGeometry relative="1" as="geometry" />
        </mxCell>
        <mxCell id="nTWNfDeP7VJ2LCtQPWOW-42" value="Transit&amp;nbsp;&lt;br&gt;Gateway" style="sketch=0;points=[[0,0,0],[0.25,0,0],[0.5,0,0],[0.75,0,0],[1,0,0],[0,1,0],[0.25,1,0],[0.5,1,0],[0.75,1,0],[1,1,0],[0,0.25,0],[0,0.5,0],[0,0.75,0],[1,0.25,0],[1,0.5,0],[1,0.75,0]];outlineConnect=0;fontColor=#232F3E;gradientColor=#945DF2;gradientDirection=north;fillColor=#5A30B5;strokeColor=#ffffff;dashed=0;verticalLabelPosition=bottom;verticalAlign=top;align=center;html=1;fontSize=12;fontStyle=0;aspect=fixed;shape=mxgraph.aws4.resourceIcon;resIcon=mxgraph.aws4.transit_gateway;" parent="1" vertex="1">
          <mxGeometry x="46.63" y="-3.1299999999999955" width="54" height="54" as="geometry" />
        </mxCell>
        <mxCell id="nTWNfDeP7VJ2LCtQPWOW-43" value="VPC" style="sketch=0;outlineConnect=0;gradientColor=none;html=1;whiteSpace=wrap;fontSize=12;fontStyle=0;shape=mxgraph.aws4.group;grIcon=mxgraph.aws4.group_vpc;strokeColor=#879196;fillColor=none;verticalAlign=top;align=left;spacingLeft=30;fontColor=#879196;dashed=0;" parent="1" vertex="1">
          <mxGeometry x="356.13" y="-76.13" width="240" height="200" as="geometry" />
        </mxCell>
        <mxCell id="nTWNfDeP7VJ2LCtQPWOW-45" value="Public subnet" style="points=[[0,0],[0.25,0],[0.5,0],[0.75,0],[1,0],[1,0.25],[1,0.5],[1,0.75],[1,1],[0.75,1],[0.5,1],[0.25,1],[0,1],[0,0.75],[0,0.5],[0,0.25]];outlineConnect=0;gradientColor=none;html=1;whiteSpace=wrap;fontSize=12;fontStyle=0;container=1;pointerEvents=0;collapsible=0;recursiveResize=0;shape=mxgraph.aws4.group;grIcon=mxgraph.aws4.group_security_group;grStroke=0;strokeColor=#248814;fillColor=#E9F3E6;verticalAlign=top;align=left;spacingLeft=30;fontColor=#248814;dashed=0;" parent="1" vertex="1">
          <mxGeometry x="407.13" y="-35.129999999999995" width="130" height="130" as="geometry" />
        </mxCell>
        <mxCell id="nTWNfDeP7VJ2LCtQPWOW-44" value="SD Wan &lt;br&gt;Edge" style="sketch=0;points=[[0,0,0],[0.25,0,0],[0.5,0,0],[0.75,0,0],[1,0,0],[0,1,0],[0.25,1,0],[0.5,1,0],[0.75,1,0],[1,1,0],[0,0.25,0],[0,0.5,0],[0,0.75,0],[1,0.25,0],[1,0.5,0],[1,0.75,0]];outlineConnect=0;fontColor=#232F3E;gradientColor=#F78E04;gradientDirection=north;fillColor=#D05C17;strokeColor=#ffffff;dashed=0;verticalLabelPosition=bottom;verticalAlign=top;align=center;html=1;fontSize=12;fontStyle=0;aspect=fixed;shape=mxgraph.aws4.resourceIcon;resIcon=mxgraph.aws4.ec2;" parent="nTWNfDeP7VJ2LCtQPWOW-45" vertex="1">
          <mxGeometry x="44" y="45" width="42" height="42" as="geometry" />
        </mxCell>
        <mxCell id="nTWNfDeP7VJ2LCtQPWOW-48" value="VGW" style="sketch=0;outlineConnect=0;fontColor=#232F3E;gradientColor=none;fillColor=#4D27AA;strokeColor=none;dashed=0;verticalLabelPosition=bottom;verticalAlign=top;align=center;html=1;fontSize=12;fontStyle=0;aspect=fixed;pointerEvents=1;shape=mxgraph.aws4.vpn_gateway;" parent="1" vertex="1">
          <mxGeometry x="581.13" y="-26.129999999999995" width="30" height="30" as="geometry" />
        </mxCell>
        <mxCell id="nTWNfDeP7VJ2LCtQPWOW-57" style="edgeStyle=orthogonalEdgeStyle;rounded=0;orthogonalLoop=1;jettySize=auto;html=1;entryX=0;entryY=0.5;entryDx=0;entryDy=0;endArrow=none;endFill=0;" parent="1" source="nTWNfDeP7VJ2LCtQPWOW-49" target="nTWNfDeP7VJ2LCtQPWOW-53" edge="1">
          <mxGeometry relative="1" as="geometry" />
        </mxCell>
        <mxCell id="nTWNfDeP7VJ2LCtQPWOW-49" value="IGW" style="sketch=0;outlineConnect=0;fontColor=#232F3E;gradientColor=none;fillColor=#4D27AA;strokeColor=none;dashed=0;verticalLabelPosition=bottom;verticalAlign=top;align=center;html=1;fontSize=12;fontStyle=0;aspect=fixed;pointerEvents=1;shape=mxgraph.aws4.internet_gateway;" parent="1" vertex="1">
          <mxGeometry x="579.13" y="53.870000000000005" width="34" height="34" as="geometry" />
        </mxCell>
        <mxCell id="nTWNfDeP7VJ2LCtQPWOW-56" style="edgeStyle=orthogonalEdgeStyle;rounded=0;orthogonalLoop=1;jettySize=auto;html=1;exitX=0;exitY=0.5;exitDx=0;exitDy=0;endArrow=none;endFill=0;" parent="1" source="nTWNfDeP7VJ2LCtQPWOW-52" target="nTWNfDeP7VJ2LCtQPWOW-48" edge="1">
          <mxGeometry relative="1" as="geometry" />
        </mxCell>
        <mxCell id="nTWNfDeP7VJ2LCtQPWOW-52" value="Corporate data center" style="points=[[0,0],[0.25,0],[0.5,0],[0.75,0],[1,0],[1,0.25],[1,0.5],[1,0.75],[1,1],[0.75,1],[0.5,1],[0.25,1],[0,1],[0,0.75],[0,0.5],[0,0.25]];outlineConnect=0;gradientColor=none;html=1;whiteSpace=wrap;fontSize=12;fontStyle=0;container=1;pointerEvents=0;collapsible=0;recursiveResize=0;shape=mxgraph.aws4.group;grIcon=mxgraph.aws4.group_corporate_data_center;strokeColor=#5A6C86;fillColor=none;verticalAlign=top;align=left;spacingLeft=30;fontColor=#5A6C86;dashed=0;" parent="1" vertex="1">
          <mxGeometry x="739.13" y="-106.13" width="170" height="110" as="geometry" />
        </mxCell>
        <mxCell id="nTWNfDeP7VJ2LCtQPWOW-54" value="" style="sketch=0;outlineConnect=0;fontColor=#232F3E;gradientColor=none;fillColor=#232F3D;strokeColor=none;dashed=0;verticalLabelPosition=bottom;verticalAlign=top;align=center;html=1;fontSize=12;fontStyle=0;aspect=fixed;pointerEvents=1;shape=mxgraph.aws4.traditional_server;" parent="nTWNfDeP7VJ2LCtQPWOW-52" vertex="1">
          <mxGeometry x="77" y="49.33" width="20" height="34.67" as="geometry" />
        </mxCell>
        <mxCell id="nTWNfDeP7VJ2LCtQPWOW-53" value="Corporate data center" style="points=[[0,0],[0.25,0],[0.5,0],[0.75,0],[1,0],[1,0.25],[1,0.5],[1,0.75],[1,1],[0.75,1],[0.5,1],[0.25,1],[0,1],[0,0.75],[0,0.5],[0,0.25]];outlineConnect=0;gradientColor=none;html=1;whiteSpace=wrap;fontSize=12;fontStyle=0;container=1;pointerEvents=0;collapsible=0;recursiveResize=0;shape=mxgraph.aws4.group;grIcon=mxgraph.aws4.group_corporate_data_center;strokeColor=#5A6C86;fillColor=none;verticalAlign=top;align=left;spacingLeft=30;fontColor=#5A6C86;dashed=0;" parent="1" vertex="1">
          <mxGeometry x="736.13" y="31.870000000000005" width="170" height="110" as="geometry" />
        </mxCell>
        <mxCell id="nTWNfDeP7VJ2LCtQPWOW-55" value="" style="sketch=0;outlineConnect=0;fontColor=#232F3E;gradientColor=none;fillColor=#232F3D;strokeColor=none;dashed=0;verticalLabelPosition=bottom;verticalAlign=top;align=center;html=1;fontSize=12;fontStyle=0;aspect=fixed;pointerEvents=1;shape=mxgraph.aws4.traditional_server;" parent="nTWNfDeP7VJ2LCtQPWOW-53" vertex="1">
          <mxGeometry x="83" y="37.66999999999999" width="20" height="34.67" as="geometry" />
        </mxCell>
        <mxCell id="nTWNfDeP7VJ2LCtQPWOW-66" value="Connect Attachment" style="text;html=1;strokeColor=none;fillColor=none;align=center;verticalAlign=middle;whiteSpace=wrap;rounded=0;fontStyle=1" parent="1" vertex="1">
          <mxGeometry x="180.63" y="29.870000000000005" width="123" height="30" as="geometry" />
        </mxCell>
        <mxCell id="nTWNfDeP7VJ2LCtQPWOW-67" value="" style="shape=cylinder3;whiteSpace=wrap;html=1;boundedLbl=1;backgroundOutline=1;size=15;fillColor=#bac8d3;rotation=-90;strokeColor=#23445d;" parent="1" vertex="1">
          <mxGeometry x="97.13" y="141.87" width="21.75" height="45.87" as="geometry" />
        </mxCell>
        <mxCell id="nTWNfDeP7VJ2LCtQPWOW-68" value="GRE Tunnel" style="text;html=1;strokeColor=none;fillColor=none;align=left;verticalAlign=middle;whiteSpace=wrap;rounded=0;" parent="1" vertex="1">
          <mxGeometry x="135.57" y="149.81" width="123" height="30" as="geometry" />
        </mxCell>
        <mxCell id="nTWNfDeP7VJ2LCtQPWOW-69" style="edgeStyle=orthogonalEdgeStyle;rounded=0;orthogonalLoop=1;jettySize=auto;html=1;exitX=1;exitY=0.5;exitDx=0;exitDy=0;exitPerimeter=0;entryX=1;entryY=0;entryDx=0;entryDy=26.902499999999996;entryPerimeter=0;endArrow=none;endFill=0;" parent="1" source="nTWNfDeP7VJ2LCtQPWOW-67" target="nTWNfDeP7VJ2LCtQPWOW-67" edge="1">
          <mxGeometry relative="1" as="geometry" />
        </mxCell>
        <mxCell id="nTWNfDeP7VJ2LCtQPWOW-71" value="Option 1 : TGW Connect over VPC Attachment" style="text;html=1;strokeColor=none;fillColor=none;align=left;verticalAlign=middle;whiteSpace=wrap;rounded=0;fontSize=14;fontColor=#000000;fontStyle=1" parent="1" vertex="1">
          <mxGeometry x="70" y="-145.25" width="430" height="30" as="geometry" />
        </mxCell>
        <mxCell id="nTWNfDeP7VJ2LCtQPWOW-72" value="Option 2 : TGW Connect over Direct Connect" style="text;html=1;strokeColor=none;fillColor=none;align=left;verticalAlign=middle;whiteSpace=wrap;rounded=0;fontSize=14;fontColor=#000000;fontStyle=1" parent="1" vertex="1">
          <mxGeometry x="85.38" y="230.18" width="430" height="30" as="geometry" />
        </mxCell>
        <mxCell id="nTWNfDeP7VJ2LCtQPWOW-73" value="Corporate data center" style="points=[[0,0],[0.25,0],[0.5,0],[0.75,0],[1,0],[1,0.25],[1,0.5],[1,0.75],[1,1],[0.75,1],[0.5,1],[0.25,1],[0,1],[0,0.75],[0,0.5],[0,0.25]];outlineConnect=0;gradientColor=none;html=1;whiteSpace=wrap;fontSize=12;fontStyle=0;container=1;pointerEvents=0;collapsible=0;recursiveResize=0;shape=mxgraph.aws4.group;grIcon=mxgraph.aws4.group_corporate_data_center;strokeColor=#5A6C86;fillColor=none;verticalAlign=top;align=left;spacingLeft=30;fontColor=#5A6C86;dashed=0;" parent="1" vertex="1">
          <mxGeometry x="730.38" y="340.18" width="230" height="150" as="geometry" />
        </mxCell>
        <mxCell id="nTWNfDeP7VJ2LCtQPWOW-74" value="SD Wan Device" style="sketch=0;outlineConnect=0;fontColor=#232F3E;gradientColor=none;fillColor=#232F3D;strokeColor=none;dashed=0;verticalLabelPosition=bottom;verticalAlign=top;align=center;html=1;fontSize=12;fontStyle=0;aspect=fixed;pointerEvents=1;shape=mxgraph.aws4.traditional_server;" parent="nTWNfDeP7VJ2LCtQPWOW-73" vertex="1">
          <mxGeometry x="87" y="69.99999999999999" width="20" height="34.67" as="geometry" />
        </mxCell>
        <mxCell id="nTWNfDeP7VJ2LCtQPWOW-75" value="CGW" style="sketch=0;outlineConnect=0;fontColor=#232F3E;gradientColor=none;fillColor=#4D27AA;strokeColor=none;dashed=0;verticalLabelPosition=bottom;verticalAlign=top;align=center;html=1;fontSize=12;fontStyle=0;aspect=fixed;pointerEvents=1;shape=mxgraph.aws4.customer_gateway;" parent="nTWNfDeP7VJ2LCtQPWOW-73" vertex="1">
          <mxGeometry x="-14.5" y="73.34" width="28" height="28" as="geometry" />
        </mxCell>
        <mxCell id="nTWNfDeP7VJ2LCtQPWOW-76" value="Servers" style="sketch=0;outlineConnect=0;fontColor=#232F3E;gradientColor=none;fillColor=#232F3D;strokeColor=none;dashed=0;verticalLabelPosition=bottom;verticalAlign=top;align=center;html=1;fontSize=12;fontStyle=0;aspect=fixed;pointerEvents=1;shape=mxgraph.aws4.traditional_server;" parent="nTWNfDeP7VJ2LCtQPWOW-73" vertex="1">
          <mxGeometry x="180" y="69.99999999999997" width="20" height="34.67" as="geometry" />
        </mxCell>
        <mxCell id="nTWNfDeP7VJ2LCtQPWOW-87" style="edgeStyle=orthogonalEdgeStyle;rounded=0;orthogonalLoop=1;jettySize=auto;html=1;fontSize=10;endArrow=none;endFill=0;" parent="1" source="nTWNfDeP7VJ2LCtQPWOW-75" target="nTWNfDeP7VJ2LCtQPWOW-82" edge="1">
          <mxGeometry relative="1" as="geometry" />
        </mxCell>
        <mxCell id="RoPygs3i1z20y74ub6jw-1" value="Direct Connect&lt;br&gt;Gateway" style="sketch=0;outlineConnect=0;fontColor=#232F3E;gradientColor=none;fillColor=#4D27AA;strokeColor=none;dashed=0;verticalLabelPosition=bottom;verticalAlign=top;align=center;html=1;fontSize=12;fontStyle=0;aspect=fixed;pointerEvents=1;shape=mxgraph.aws4.gateway;" parent="1" vertex="1">
          <mxGeometry x="247.38" y="408.96000000000004" width="35.5" height="36.43" as="geometry" />
        </mxCell>
        <mxCell id="RoPygs3i1z20y74ub6jw-2" style="edgeStyle=orthogonalEdgeStyle;rounded=0;orthogonalLoop=1;jettySize=auto;html=1;endArrow=none;endFill=0;" parent="1" source="nTWNfDeP7VJ2LCtQPWOW-81" target="RoPygs3i1z20y74ub6jw-1" edge="1">
          <mxGeometry relative="1" as="geometry" />
        </mxCell>
        <mxCell id="RoPygs3i1z20y74ub6jw-3" value="Transit VIF" style="text;html=1;strokeColor=none;fillColor=none;align=center;verticalAlign=middle;whiteSpace=wrap;rounded=0;fontSize=10;" parent="1" vertex="1">
          <mxGeometry x="313.38" y="400.18" width="64" height="30" as="geometry" />
        </mxCell>
        <mxCell id="RoPygs3i1z20y74ub6jw-4" value="" style="group" parent="1" vertex="1" connectable="0">
          <mxGeometry x="402.88" y="345.4423008849558" width="200" height="155.45769911504428" as="geometry" />
        </mxCell>
        <mxCell id="nTWNfDeP7VJ2LCtQPWOW-79" value="" style="rounded=0;whiteSpace=wrap;html=1;fontSize=14;fillColor=none;strokeColor=#9933FF;" parent="RoPygs3i1z20y74ub6jw-4" vertex="1">
          <mxGeometry y="5.4576991150442495" width="200" height="150" as="geometry" />
        </mxCell>
        <mxCell id="nTWNfDeP7VJ2LCtQPWOW-78" value="" style="sketch=0;points=[[0,0,0],[0.25,0,0],[0.5,0,0],[0.75,0,0],[1,0,0],[0,1,0],[0.25,1,0],[0.5,1,0],[0.75,1,0],[1,1,0],[0,0.25,0],[0,0.5,0],[0,0.75,0],[1,0.25,0],[1,0.5,0],[1,0.75,0]];outlineConnect=0;fontColor=#232F3E;gradientColor=#945DF2;gradientDirection=north;fillColor=#5A30B5;strokeColor=#ffffff;dashed=0;verticalLabelPosition=bottom;verticalAlign=top;align=center;html=1;fontSize=12;fontStyle=0;aspect=fixed;shape=mxgraph.aws4.resourceIcon;resIcon=mxgraph.aws4.direct_connect;" parent="RoPygs3i1z20y74ub6jw-4" vertex="1">
          <mxGeometry y="5.4576991150442495" width="28.9" height="28.9" as="geometry" />
        </mxCell>
        <mxCell id="nTWNfDeP7VJ2LCtQPWOW-80" value="Direct Connect Location" style="text;html=1;strokeColor=none;fillColor=none;align=center;verticalAlign=middle;whiteSpace=wrap;rounded=0;fontSize=10;" parent="RoPygs3i1z20y74ub6jw-4" vertex="1">
          <mxGeometry x="19.999523809523794" width="131.42857142857144" height="39.823008849557525" as="geometry" />
        </mxCell>
        <mxCell id="nTWNfDeP7VJ2LCtQPWOW-81" value="&lt;font style=&quot;font-size: 10px;&quot;&gt;Direct Connect &lt;br&gt;Router&lt;/font&gt;" style="sketch=0;outlineConnect=0;fontColor=#232F3E;gradientColor=none;fillColor=#4D27AA;strokeColor=none;dashed=0;verticalLabelPosition=bottom;verticalAlign=top;align=center;html=1;fontSize=12;fontStyle=0;aspect=fixed;pointerEvents=1;shape=mxgraph.aws4.customer_gateway;" parent="RoPygs3i1z20y74ub6jw-4" vertex="1">
          <mxGeometry x="42" y="67.94769911504426" width="28" height="28" as="geometry" />
        </mxCell>
        <mxCell id="nTWNfDeP7VJ2LCtQPWOW-88" style="edgeStyle=orthogonalEdgeStyle;rounded=0;orthogonalLoop=1;jettySize=auto;html=1;fontSize=10;endArrow=none;endFill=0;" parent="RoPygs3i1z20y74ub6jw-4" source="nTWNfDeP7VJ2LCtQPWOW-82" target="nTWNfDeP7VJ2LCtQPWOW-81" edge="1">
          <mxGeometry relative="1" as="geometry" />
        </mxCell>
        <mxCell id="nTWNfDeP7VJ2LCtQPWOW-82" value="&lt;span style=&quot;font-size: 10px;&quot;&gt;Customer &lt;br&gt;Router&lt;/span&gt;" style="sketch=0;outlineConnect=0;fontColor=#232F3E;gradientColor=none;fillColor=#4D27AA;strokeColor=none;dashed=0;verticalLabelPosition=bottom;verticalAlign=top;align=center;html=1;fontSize=12;fontStyle=0;aspect=fixed;pointerEvents=1;shape=mxgraph.aws4.customer_gateway;" parent="RoPygs3i1z20y74ub6jw-4" vertex="1">
          <mxGeometry x="139.5" y="67.94769911504426" width="28" height="28" as="geometry" />
        </mxCell>
        <mxCell id="RoPygs3i1z20y74ub6jw-8" style="edgeStyle=orthogonalEdgeStyle;rounded=0;orthogonalLoop=1;jettySize=auto;html=1;fontSize=10;endArrow=none;endFill=0;" parent="1" source="RoPygs3i1z20y74ub6jw-7" target="RoPygs3i1z20y74ub6jw-1" edge="1">
          <mxGeometry relative="1" as="geometry" />
        </mxCell>
        <mxCell id="RoPygs3i1z20y74ub6jw-7" value="Transit&amp;nbsp;&lt;br&gt;Gateway" style="sketch=0;points=[[0,0,0],[0.25,0,0],[0.5,0,0],[0.75,0,0],[1,0,0],[0,1,0],[0.25,1,0],[0.5,1,0],[0.75,1,0],[1,1,0],[0,0.25,0],[0,0.5,0],[0,0.75,0],[1,0.25,0],[1,0.5,0],[1,0.75,0]];outlineConnect=0;fontColor=#232F3E;gradientColor=#945DF2;gradientDirection=north;fillColor=#5A30B5;strokeColor=#ffffff;dashed=0;verticalLabelPosition=bottom;verticalAlign=top;align=center;html=1;fontSize=12;fontStyle=0;aspect=fixed;shape=mxgraph.aws4.resourceIcon;resIcon=mxgraph.aws4.transit_gateway;" parent="1" vertex="1">
          <mxGeometry x="57.88" y="400.18" width="54" height="54" as="geometry" />
        </mxCell>
        <mxCell id="RoPygs3i1z20y74ub6jw-9" value="Connect Attachment" style="text;html=1;strokeColor=none;fillColor=none;align=center;verticalAlign=middle;whiteSpace=wrap;rounded=0;fontSize=10;fontStyle=1" parent="1" vertex="1">
          <mxGeometry x="127.88" y="400.18" width="100" height="30" as="geometry" />
        </mxCell>
        <mxCell id="RoPygs3i1z20y74ub6jw-11" value="" style="shape=cylinder3;whiteSpace=wrap;html=1;boundedLbl=1;backgroundOutline=1;size=15;fillColor=#bac8d3;rotation=-90;strokeColor=#23445d;" parent="1" vertex="1">
          <mxGeometry x="79.66" y="520.1800000000001" width="21.75" height="45.87" as="geometry" />
        </mxCell>
        <mxCell id="RoPygs3i1z20y74ub6jw-12" value="GRE Tunnel" style="text;html=1;strokeColor=none;fillColor=none;align=left;verticalAlign=middle;whiteSpace=wrap;rounded=0;" parent="1" vertex="1">
          <mxGeometry x="118.1" y="528.12" width="123" height="30" as="geometry" />
        </mxCell>
        <mxCell id="RoPygs3i1z20y74ub6jw-13" style="edgeStyle=orthogonalEdgeStyle;rounded=0;orthogonalLoop=1;jettySize=auto;html=1;exitX=1;exitY=0.5;exitDx=0;exitDy=0;exitPerimeter=0;entryX=1;entryY=0;entryDx=0;entryDy=26.902499999999996;entryPerimeter=0;endArrow=none;endFill=0;" parent="1" source="RoPygs3i1z20y74ub6jw-11" target="RoPygs3i1z20y74ub6jw-11" edge="1">
          <mxGeometry relative="1" as="geometry" />
        </mxCell>
        <mxCell id="RoPygs3i1z20y74ub6jw-14" value="&lt;font style=&quot;font-size: 10px;&quot;&gt;Direct Connect&lt;/font&gt;" style="sketch=0;points=[[0,0,0],[0.25,0,0],[0.5,0,0],[0.75,0,0],[1,0,0],[0,1,0],[0.25,1,0],[0.5,1,0],[0.75,1,0],[1,1,0],[0,0.25,0],[0,0.5,0],[0,0.75,0],[1,0.25,0],[1,0.5,0],[1,0.75,0]];outlineConnect=0;fontColor=#232F3E;gradientColor=#945DF2;gradientDirection=north;fillColor=#5A30B5;strokeColor=#ffffff;dashed=0;verticalLabelPosition=bottom;verticalAlign=top;align=center;html=1;fontSize=12;fontStyle=0;aspect=fixed;shape=mxgraph.aws4.resourceIcon;resIcon=mxgraph.aws4.direct_connect;" parent="1" vertex="1">
          <mxGeometry x="647.88" y="373.96000000000004" width="31" height="31" as="geometry" />
        </mxCell>
        <mxCell id="RoPygs3i1z20y74ub6jw-18" value="VPC Attachment" style="text;html=1;strokeColor=none;fillColor=none;align=center;verticalAlign=middle;whiteSpace=wrap;rounded=0;fontSize=10;" parent="1" vertex="1">
          <mxGeometry x="187.13" y="-0.12999999999999545" width="110" height="30" as="geometry" />
        </mxCell>
        <mxCell id="RoPygs3i1z20y74ub6jw-19" value="&lt;ul&gt;&lt;li&gt;Create a TGW Connect Attachemnt&lt;br&gt;&lt;/li&gt;&lt;li&gt;Create a connect peer that points to the appliance IP address&lt;/li&gt;&lt;li&gt;On peer, up to 5 Gbps bandwidth&lt;/li&gt;&lt;li&gt;Multiple Peers can be created for a single attachment to aggregate tunnels for better bandwidth (up to 20 Gbps)&lt;/li&gt;&lt;li&gt;All routes are dynamically transmitted with BGP protocol&lt;/li&gt;&lt;/ul&gt;" style="text;html=1;strokeColor=none;fillColor=none;align=left;verticalAlign=middle;whiteSpace=wrap;rounded=0;fontSize=10;" parent="1" vertex="1">
          <mxGeometry x="440" y="-300" width="326.5" height="74.75" as="geometry" />
        </mxCell>
        <mxCell id="RoPygs3i1z20y74ub6jw-20" value="Connect Attachment over a DX Attachment" style="text;html=1;strokeColor=none;fillColor=none;align=center;verticalAlign=middle;whiteSpace=wrap;rounded=0;fontSize=10;" parent="1" vertex="1">
          <mxGeometry x="131.41" y="340.18" width="236.47" height="30" as="geometry" />
        </mxCell>
        <mxCell id="RoPygs3i1z20y74ub6jw-22" value="&lt;ul&gt;&lt;li&gt;Before Transit Gateway Connect, connection between appliance and Transit Gateway, was through Site-to-site VPN. Hard limitations on bandwidth.&lt;/li&gt;&lt;/ul&gt;" style="text;html=1;strokeColor=none;fillColor=none;align=left;verticalAlign=middle;whiteSpace=wrap;rounded=0;fontSize=10;" parent="1" vertex="1">
          <mxGeometry x="16.75" y="-320" width="326.5" height="74.75" as="geometry" />
        </mxCell>
        <mxCell id="u_tW7pjIhFTwMtbXmYis-1" value="Transit Gateway Multicast" style="text;html=1;strokeColor=none;fillColor=none;align=center;verticalAlign=middle;whiteSpace=wrap;rounded=0;fontSize=16;fontColor=#000000;fontStyle=1" parent="1" vertex="1">
          <mxGeometry x="41.330000000000005" y="-1730" width="230" height="30" as="geometry" />
        </mxCell>
        <mxCell id="u_tW7pjIhFTwMtbXmYis-2" value="VPC" style="points=[[0,0],[0.25,0],[0.5,0],[0.75,0],[1,0],[1,0.25],[1,0.5],[1,0.75],[1,1],[0.75,1],[0.5,1],[0.25,1],[0,1],[0,0.75],[0,0.5],[0,0.25]];outlineConnect=0;gradientColor=none;html=1;whiteSpace=wrap;fontSize=12;fontStyle=0;container=1;pointerEvents=0;collapsible=0;recursiveResize=0;shape=mxgraph.aws4.group;grIcon=mxgraph.aws4.group_vpc;strokeColor=#248814;fillColor=none;verticalAlign=top;align=left;spacingLeft=30;fontColor=#AAB7B8;dashed=0;" parent="1" vertex="1">
          <mxGeometry x="106.58" y="-1640" width="473.42" height="300" as="geometry" />
        </mxCell>
        <mxCell id="u_tW7pjIhFTwMtbXmYis-32" value="" style="rounded=0;whiteSpace=wrap;html=1;fontSize=10;fillColor=none;dashed=1;strokeColor=#000000;" parent="u_tW7pjIhFTwMtbXmYis-2" vertex="1">
          <mxGeometry x="190" y="74" width="80" height="386" as="geometry" />
        </mxCell>
        <mxCell id="u_tW7pjIhFTwMtbXmYis-3" value="Subnet" style="sketch=0;outlineConnect=0;gradientColor=none;html=1;whiteSpace=wrap;fontSize=12;fontStyle=0;shape=mxgraph.aws4.group;grIcon=mxgraph.aws4.group_subnet;strokeColor=#879196;fillColor=none;verticalAlign=top;align=left;spacingLeft=30;fontColor=#879196;dashed=0;" parent="u_tW7pjIhFTwMtbXmYis-2" vertex="1">
          <mxGeometry x="33.12" y="30" width="396.88" height="140" as="geometry" />
        </mxCell>
        <mxCell id="u_tW7pjIhFTwMtbXmYis-24" value="" style="rounded=0;whiteSpace=wrap;html=1;fontSize=10;fillColor=none;dashed=1;strokeColor=#FF3333;" parent="u_tW7pjIhFTwMtbXmYis-2" vertex="1">
          <mxGeometry x="23.42" y="63" width="436.58" height="117" as="geometry" />
        </mxCell>
        <mxCell id="u_tW7pjIhFTwMtbXmYis-4" value="Subnet" style="sketch=0;outlineConnect=0;gradientColor=none;html=1;whiteSpace=wrap;fontSize=12;fontStyle=0;shape=mxgraph.aws4.group;grIcon=mxgraph.aws4.group_subnet;strokeColor=#879196;fillColor=none;verticalAlign=top;align=left;spacingLeft=30;fontColor=#879196;dashed=0;" parent="u_tW7pjIhFTwMtbXmYis-2" vertex="1">
          <mxGeometry x="33.11999999999999" y="191" width="396.88" height="100" as="geometry" />
        </mxCell>
        <mxCell id="u_tW7pjIhFTwMtbXmYis-8" value="TGW ENI" style="sketch=0;outlineConnect=0;fontColor=#232F3E;gradientColor=none;fillColor=#4D27AA;strokeColor=none;dashed=0;verticalLabelPosition=bottom;verticalAlign=top;align=center;html=1;fontSize=10;fontStyle=0;aspect=fixed;pointerEvents=1;shape=mxgraph.aws4.elastic_network_interface;" parent="u_tW7pjIhFTwMtbXmYis-2" vertex="1">
          <mxGeometry x="370" y="94.23" width="33.77" height="33.77" as="geometry" />
        </mxCell>
        <mxCell id="u_tW7pjIhFTwMtbXmYis-10" value="TGW ENI" style="sketch=0;outlineConnect=0;fontColor=#232F3E;gradientColor=none;fillColor=#4D27AA;strokeColor=none;dashed=0;verticalLabelPosition=bottom;verticalAlign=top;align=center;html=1;fontSize=10;fontStyle=0;aspect=fixed;pointerEvents=1;shape=mxgraph.aws4.elastic_network_interface;" parent="u_tW7pjIhFTwMtbXmYis-2" vertex="1">
          <mxGeometry x="370" y="224.12000000000012" width="33.77" height="33.77" as="geometry" />
        </mxCell>
        <mxCell id="u_tW7pjIhFTwMtbXmYis-12" value="ENI" style="sketch=0;outlineConnect=0;fontColor=#232F3E;gradientColor=none;fillColor=#4D27AA;strokeColor=none;dashed=0;verticalLabelPosition=bottom;verticalAlign=top;align=center;html=1;fontSize=10;fontStyle=0;aspect=fixed;pointerEvents=1;shape=mxgraph.aws4.elastic_network_interface;" parent="u_tW7pjIhFTwMtbXmYis-2" vertex="1">
          <mxGeometry x="210.66999999999996" y="92.00000000000013" width="33.77" height="33.77" as="geometry" />
        </mxCell>
        <mxCell id="u_tW7pjIhFTwMtbXmYis-13" value="EC2" style="sketch=0;points=[[0,0,0],[0.25,0,0],[0.5,0,0],[0.75,0,0],[1,0,0],[0,1,0],[0.25,1,0],[0.5,1,0],[0.75,1,0],[1,1,0],[0,0.25,0],[0,0.5,0],[0,0.75,0],[1,0.25,0],[1,0.5,0],[1,0.75,0]];outlineConnect=0;fontColor=#232F3E;gradientColor=#F78E04;gradientDirection=north;fillColor=#D05C17;strokeColor=#ffffff;dashed=0;verticalLabelPosition=bottom;verticalAlign=top;align=center;html=1;fontSize=12;fontStyle=0;aspect=fixed;shape=mxgraph.aws4.resourceIcon;resIcon=mxgraph.aws4.ec2;" parent="u_tW7pjIhFTwMtbXmYis-2" vertex="1">
          <mxGeometry x="133.42" y="90" width="38" height="38" as="geometry" />
        </mxCell>
        <mxCell id="u_tW7pjIhFTwMtbXmYis-14" value="EC2" style="sketch=0;points=[[0,0,0],[0.25,0,0],[0.5,0,0],[0.75,0,0],[1,0,0],[0,1,0],[0.25,1,0],[0.5,1,0],[0.75,1,0],[1,1,0],[0,0.25,0],[0,0.5,0],[0,0.75,0],[1,0.25,0],[1,0.5,0],[1,0.75,0]];outlineConnect=0;fontColor=#232F3E;gradientColor=#F78E04;gradientDirection=north;fillColor=#D05C17;strokeColor=#ffffff;dashed=0;verticalLabelPosition=bottom;verticalAlign=top;align=center;html=1;fontSize=12;fontStyle=0;aspect=fixed;shape=mxgraph.aws4.resourceIcon;resIcon=mxgraph.aws4.ec2;" parent="u_tW7pjIhFTwMtbXmYis-2" vertex="1">
          <mxGeometry x="140.76999999999998" y="224.1199999999999" width="38" height="38" as="geometry" />
        </mxCell>
        <mxCell id="u_tW7pjIhFTwMtbXmYis-15" value="ENI" style="sketch=0;outlineConnect=0;fontColor=#232F3E;gradientColor=none;fillColor=#4D27AA;strokeColor=none;dashed=0;verticalLabelPosition=bottom;verticalAlign=top;align=center;html=1;fontSize=10;fontStyle=0;aspect=fixed;pointerEvents=1;shape=mxgraph.aws4.elastic_network_interface;" parent="u_tW7pjIhFTwMtbXmYis-2" vertex="1">
          <mxGeometry x="214.66999999999996" y="224.11000000000013" width="33.77" height="33.77" as="geometry" />
        </mxCell>
        <mxCell id="u_tW7pjIhFTwMtbXmYis-5" value="VPC" style="points=[[0,0],[0.25,0],[0.5,0],[0.75,0],[1,0],[1,0.25],[1,0.5],[1,0.75],[1,1],[0.75,1],[0.5,1],[0.25,1],[0,1],[0,0.75],[0,0.5],[0,0.25]];outlineConnect=0;gradientColor=none;html=1;whiteSpace=wrap;fontSize=12;fontStyle=0;container=1;pointerEvents=0;collapsible=0;recursiveResize=0;shape=mxgraph.aws4.group;grIcon=mxgraph.aws4.group_vpc;strokeColor=#248814;fillColor=none;verticalAlign=top;align=left;spacingLeft=30;fontColor=#AAB7B8;dashed=0;" parent="1" vertex="1">
          <mxGeometry x="109.23" y="-1329" width="471.9" height="269" as="geometry" />
        </mxCell>
        <mxCell id="u_tW7pjIhFTwMtbXmYis-34" value="" style="rounded=0;whiteSpace=wrap;html=1;fontSize=10;fillColor=none;strokeColor=#000000;" parent="u_tW7pjIhFTwMtbXmYis-5" vertex="1">
          <mxGeometry x="190.82" y="80.11" width="80" height="159.89" as="geometry" />
        </mxCell>
        <mxCell id="u_tW7pjIhFTwMtbXmYis-7" value="Subnet" style="sketch=0;outlineConnect=0;gradientColor=none;html=1;whiteSpace=wrap;fontSize=12;fontStyle=0;shape=mxgraph.aws4.group;grIcon=mxgraph.aws4.group_subnet;strokeColor=#879196;fillColor=none;verticalAlign=top;align=left;spacingLeft=30;fontColor=#879196;dashed=0;" parent="u_tW7pjIhFTwMtbXmYis-5" vertex="1">
          <mxGeometry x="32.38" y="40" width="396.88" height="210" as="geometry" />
        </mxCell>
        <mxCell id="u_tW7pjIhFTwMtbXmYis-25" value="" style="rounded=0;whiteSpace=wrap;html=1;fontSize=10;fillColor=none;dashed=1;strokeColor=#FF3333;" parent="u_tW7pjIhFTwMtbXmYis-5" vertex="1">
          <mxGeometry x="17.66" y="69.39" width="436.58" height="190.61" as="geometry" />
        </mxCell>
        <mxCell id="u_tW7pjIhFTwMtbXmYis-11" value="TGW ENI" style="sketch=0;outlineConnect=0;fontColor=#232F3E;gradientColor=none;fillColor=#4D27AA;strokeColor=none;dashed=0;verticalLabelPosition=bottom;verticalAlign=top;align=center;html=1;fontSize=10;fontStyle=0;aspect=fixed;pointerEvents=1;shape=mxgraph.aws4.elastic_network_interface;" parent="u_tW7pjIhFTwMtbXmYis-5" vertex="1">
          <mxGeometry x="369.35" y="80.11000000000013" width="33.77" height="33.77" as="geometry" />
        </mxCell>
        <mxCell id="u_tW7pjIhFTwMtbXmYis-16" value="EC2" style="sketch=0;points=[[0,0,0],[0.25,0,0],[0.5,0,0],[0.75,0,0],[1,0,0],[0,1,0],[0.25,1,0],[0.5,1,0],[0.75,1,0],[1,1,0],[0,0.25,0],[0,0.5,0],[0,0.75,0],[1,0.25,0],[1,0.5,0],[1,0.75,0]];outlineConnect=0;fontColor=#232F3E;gradientColor=#F78E04;gradientDirection=north;fillColor=#D05C17;strokeColor=#ffffff;dashed=0;verticalLabelPosition=bottom;verticalAlign=top;align=center;html=1;fontSize=12;fontStyle=0;aspect=fixed;shape=mxgraph.aws4.resourceIcon;resIcon=mxgraph.aws4.ec2;" parent="u_tW7pjIhFTwMtbXmYis-5" vertex="1">
          <mxGeometry x="138.12" y="89" width="38" height="38" as="geometry" />
        </mxCell>
        <mxCell id="u_tW7pjIhFTwMtbXmYis-17" value="ENI" style="sketch=0;outlineConnect=0;fontColor=#232F3E;gradientColor=none;fillColor=#4D27AA;strokeColor=none;dashed=0;verticalLabelPosition=bottom;verticalAlign=top;align=center;html=1;fontSize=10;fontStyle=0;aspect=fixed;pointerEvents=1;shape=mxgraph.aws4.elastic_network_interface;" parent="u_tW7pjIhFTwMtbXmYis-5" vertex="1">
          <mxGeometry x="208.12" y="91" width="33.77" height="33.77" as="geometry" />
        </mxCell>
        <mxCell id="u_tW7pjIhFTwMtbXmYis-22" value="EC2" style="sketch=0;points=[[0,0,0],[0.25,0,0],[0.5,0,0],[0.75,0,0],[1,0,0],[0,1,0],[0.25,1,0],[0.5,1,0],[0.75,1,0],[1,1,0],[0,0.25,0],[0,0.5,0],[0,0.75,0],[1,0.25,0],[1,0.5,0],[1,0.75,0]];outlineConnect=0;fontColor=#232F3E;gradientColor=#F78E04;gradientDirection=north;fillColor=#D05C17;strokeColor=#ffffff;dashed=0;verticalLabelPosition=bottom;verticalAlign=top;align=center;html=1;fontSize=12;fontStyle=0;aspect=fixed;shape=mxgraph.aws4.resourceIcon;resIcon=mxgraph.aws4.ec2;" parent="u_tW7pjIhFTwMtbXmYis-5" vertex="1">
          <mxGeometry x="138.12" y="179" width="38" height="38" as="geometry" />
        </mxCell>
        <mxCell id="u_tW7pjIhFTwMtbXmYis-23" value="ENI" style="sketch=0;outlineConnect=0;fontColor=#232F3E;gradientColor=none;fillColor=#4D27AA;strokeColor=none;dashed=0;verticalLabelPosition=bottom;verticalAlign=top;align=center;html=1;fontSize=10;fontStyle=0;aspect=fixed;pointerEvents=1;shape=mxgraph.aws4.elastic_network_interface;" parent="u_tW7pjIhFTwMtbXmYis-5" vertex="1">
          <mxGeometry x="209.94" y="179" width="33.77" height="33.77" as="geometry" />
        </mxCell>
        <mxCell id="u_tW7pjIhFTwMtbXmYis-26" value="Multicast domain" style="text;html=1;strokeColor=none;fillColor=none;align=left;verticalAlign=middle;whiteSpace=wrap;rounded=0;fontSize=10;" parent="1" vertex="1">
          <mxGeometry x="637" y="-1694" width="113.5" height="30" as="geometry" />
        </mxCell>
        <mxCell id="u_tW7pjIhFTwMtbXmYis-27" value="" style="endArrow=none;dashed=1;html=1;rounded=0;fontSize=10;fontColor=#FF3333;strokeColor=#FF3333;" parent="1" edge="1">
          <mxGeometry width="50" height="50" relative="1" as="geometry">
            <mxPoint x="596.13" y="-1680" as="sourcePoint" />
            <mxPoint x="630" y="-1680" as="targetPoint" />
          </mxGeometry>
        </mxCell>
        <mxCell id="u_tW7pjIhFTwMtbXmYis-28" value="TGW (multicast enabled)" style="sketch=0;points=[[0,0,0],[0.25,0,0],[0.5,0,0],[0.75,0,0],[1,0,0],[0,1,0],[0.25,1,0],[0.5,1,0],[0.75,1,0],[1,1,0],[0,0.25,0],[0,0.5,0],[0,0.75,0],[1,0.25,0],[1,0.5,0],[1,0.75,0]];outlineConnect=0;fontColor=#232F3E;gradientColor=#945DF2;gradientDirection=north;fillColor=#5A30B5;strokeColor=#ffffff;dashed=0;verticalLabelPosition=bottom;verticalAlign=top;align=center;html=1;fontSize=12;fontStyle=0;aspect=fixed;shape=mxgraph.aws4.resourceIcon;resIcon=mxgraph.aws4.transit_gateway;" parent="1" vertex="1">
          <mxGeometry x="673" y="-1390" width="78" height="78" as="geometry" />
        </mxCell>
        <mxCell id="u_tW7pjIhFTwMtbXmYis-29" style="edgeStyle=orthogonalEdgeStyle;rounded=0;orthogonalLoop=1;jettySize=auto;html=1;entryX=0.5;entryY=0;entryDx=0;entryDy=0;entryPerimeter=0;strokeColor=#000000;fontSize=10;fontColor=#FF3333;endArrow=none;endFill=0;" parent="1" source="u_tW7pjIhFTwMtbXmYis-8" target="u_tW7pjIhFTwMtbXmYis-28" edge="1">
          <mxGeometry relative="1" as="geometry" />
        </mxCell>
        <mxCell id="u_tW7pjIhFTwMtbXmYis-30" style="edgeStyle=orthogonalEdgeStyle;rounded=0;orthogonalLoop=1;jettySize=auto;html=1;entryX=0;entryY=0.5;entryDx=0;entryDy=0;entryPerimeter=0;strokeColor=#000000;fontSize=10;fontColor=#FF3333;endArrow=none;endFill=0;" parent="1" source="u_tW7pjIhFTwMtbXmYis-10" target="u_tW7pjIhFTwMtbXmYis-28" edge="1">
          <mxGeometry relative="1" as="geometry" />
        </mxCell>
        <mxCell id="u_tW7pjIhFTwMtbXmYis-31" style="edgeStyle=orthogonalEdgeStyle;rounded=0;orthogonalLoop=1;jettySize=auto;html=1;entryX=0;entryY=0.75;entryDx=0;entryDy=0;entryPerimeter=0;strokeColor=#000000;fontSize=10;fontColor=#FF3333;endArrow=none;endFill=0;" parent="1" source="u_tW7pjIhFTwMtbXmYis-11" target="u_tW7pjIhFTwMtbXmYis-28" edge="1">
          <mxGeometry relative="1" as="geometry" />
        </mxCell>
        <mxCell id="u_tW7pjIhFTwMtbXmYis-35" value="" style="endArrow=none;dashed=1;html=1;rounded=0;fontSize=10;fontColor=#FF3333;strokeColor=#000000;" parent="1" edge="1">
          <mxGeometry width="50" height="50" relative="1" as="geometry">
            <mxPoint x="596.1300000000001" y="-1660" as="sourcePoint" />
            <mxPoint x="630" y="-1660" as="targetPoint" />
          </mxGeometry>
        </mxCell>
        <mxCell id="u_tW7pjIhFTwMtbXmYis-36" value="" style="endArrow=none;html=1;rounded=0;fontSize=10;fontColor=#FF3333;strokeColor=#000000;" parent="1" edge="1">
          <mxGeometry width="50" height="50" relative="1" as="geometry">
            <mxPoint x="594.8800000000001" y="-1640" as="sourcePoint" />
            <mxPoint x="632" y="-1640" as="targetPoint" />
          </mxGeometry>
        </mxCell>
        <mxCell id="u_tW7pjIhFTwMtbXmYis-37" value="Multicast group 224.0.0.251" style="text;html=1;strokeColor=none;fillColor=none;align=left;verticalAlign=middle;whiteSpace=wrap;rounded=0;fontSize=10;" parent="1" vertex="1">
          <mxGeometry x="640.25" y="-1654" width="139.75" height="30" as="geometry" />
        </mxCell>
        <mxCell id="u_tW7pjIhFTwMtbXmYis-38" value="Multicast group 224.0.0.100" style="text;html=1;strokeColor=none;fillColor=none;align=left;verticalAlign=middle;whiteSpace=wrap;rounded=0;fontSize=10;" parent="1" vertex="1">
          <mxGeometry x="640.13" y="-1673" width="139.75" height="30" as="geometry" />
        </mxCell>
        <mxCell id="u_tW7pjIhFTwMtbXmYis-42" style="edgeStyle=orthogonalEdgeStyle;rounded=0;orthogonalLoop=1;jettySize=auto;html=1;entryX=0.5;entryY=1;entryDx=0;entryDy=0;entryPerimeter=0;strokeColor=#000000;fontSize=10;fontColor=#FF3333;endArrow=none;endFill=0;" parent="1" source="u_tW7pjIhFTwMtbXmYis-39" target="u_tW7pjIhFTwMtbXmYis-28" edge="1">
          <mxGeometry relative="1" as="geometry" />
        </mxCell>
        <mxCell id="u_tW7pjIhFTwMtbXmYis-39" value="multicast association" style="sketch=0;points=[[0,0,0],[0.25,0,0],[0.5,0,0],[0.75,0,0],[1,0,0],[0,1,0],[0.25,1,0],[0.5,1,0],[0.75,1,0],[1,1,0],[0,0.25,0],[0,0.5,0],[0,0.75,0],[1,0.25,0],[1,0.5,0],[1,0.75,0]];outlineConnect=0;fontColor=#232F3E;gradientColor=#945DF2;gradientDirection=north;fillColor=#5A30B5;strokeColor=#ffffff;dashed=0;verticalLabelPosition=bottom;verticalAlign=top;align=center;html=1;fontSize=12;fontStyle=0;aspect=fixed;shape=mxgraph.aws4.resourceIcon;resIcon=mxgraph.aws4.transit_gateway;" parent="1" vertex="1">
          <mxGeometry x="637" y="-1177.88" width="27.88" height="27.88" as="geometry" />
        </mxCell>
        <mxCell id="u_tW7pjIhFTwMtbXmYis-40" style="edgeStyle=orthogonalEdgeStyle;rounded=0;orthogonalLoop=1;jettySize=auto;html=1;entryX=0;entryY=0.5;entryDx=0;entryDy=0;entryPerimeter=0;strokeColor=#000000;fontSize=10;fontColor=#FF3333;endArrow=none;endFill=0;" parent="1" source="u_tW7pjIhFTwMtbXmYis-23" target="u_tW7pjIhFTwMtbXmYis-39" edge="1">
          <mxGeometry relative="1" as="geometry" />
        </mxCell>
        <mxCell id="u_tW7pjIhFTwMtbXmYis-41" style="edgeStyle=orthogonalEdgeStyle;rounded=0;orthogonalLoop=1;jettySize=auto;html=1;entryX=0;entryY=0.5;entryDx=0;entryDy=0;entryPerimeter=0;strokeColor=#000000;fontSize=10;fontColor=#FF3333;endArrow=none;endFill=0;" parent="1" source="u_tW7pjIhFTwMtbXmYis-17" target="u_tW7pjIhFTwMtbXmYis-39" edge="1">
          <mxGeometry relative="1" as="geometry">
            <Array as="points">
              <mxPoint x="410" y="-1221" />
              <mxPoint x="410" y="-1164" />
            </Array>
          </mxGeometry>
        </mxCell>
        <mxCell id="u_tW7pjIhFTwMtbXmYis-45" style="edgeStyle=orthogonalEdgeStyle;rounded=0;orthogonalLoop=1;jettySize=auto;html=1;entryX=0.75;entryY=0;entryDx=0;entryDy=0;entryPerimeter=0;strokeColor=#000000;fontSize=10;fontColor=#FF3333;endArrow=none;endFill=0;" parent="1" source="u_tW7pjIhFTwMtbXmYis-43" target="u_tW7pjIhFTwMtbXmYis-28" edge="1">
          <mxGeometry relative="1" as="geometry" />
        </mxCell>
        <mxCell id="u_tW7pjIhFTwMtbXmYis-43" value="multicast association" style="sketch=0;points=[[0,0,0],[0.25,0,0],[0.5,0,0],[0.75,0,0],[1,0,0],[0,1,0],[0.25,1,0],[0.5,1,0],[0.75,1,0],[1,1,0],[0,0.25,0],[0,0.5,0],[0,0.75,0],[1,0.25,0],[1,0.5,0],[1,0.75,0]];outlineConnect=0;fontColor=#232F3E;gradientColor=#945DF2;gradientDirection=north;fillColor=#5A30B5;strokeColor=#ffffff;dashed=0;verticalLabelPosition=bottom;verticalAlign=top;align=center;html=1;fontSize=12;fontStyle=0;aspect=fixed;shape=mxgraph.aws4.resourceIcon;resIcon=mxgraph.aws4.transit_gateway;" parent="1" vertex="1">
          <mxGeometry x="605" y="-1610" width="27.88" height="27.88" as="geometry" />
        </mxCell>
        <mxCell id="u_tW7pjIhFTwMtbXmYis-44" style="edgeStyle=orthogonalEdgeStyle;rounded=0;orthogonalLoop=1;jettySize=auto;html=1;entryX=0;entryY=0.5;entryDx=0;entryDy=0;entryPerimeter=0;strokeColor=#000000;fontSize=10;fontColor=#FF3333;endArrow=none;endFill=0;" parent="1" source="u_tW7pjIhFTwMtbXmYis-12" target="u_tW7pjIhFTwMtbXmYis-43" edge="1">
          <mxGeometry relative="1" as="geometry">
            <Array as="points">
              <mxPoint x="410" y="-1531" />
              <mxPoint x="410" y="-1596" />
            </Array>
          </mxGeometry>
        </mxCell>
        <mxCell id="u_tW7pjIhFTwMtbXmYis-46" value="&lt;ul&gt;&lt;li&gt;A subnet must be associated with a multicast domain. Domain enables logical seggregation&lt;/li&gt;&lt;li&gt;1 subnet = 1 multicast domain.&lt;/li&gt;&lt;li&gt;In a single domain, multiple groups can be defined&lt;/li&gt;&lt;li&gt;if member supports IGMP protocol, it can send join and leave message to registering a group&lt;/li&gt;&lt;li&gt;if not, it can use AWS TGW API to register or leave a group&lt;/li&gt;&lt;li&gt;By default, only one source (that can send messages), and multiple group members (that receives messages)&lt;/li&gt;&lt;/ul&gt;" style="text;html=1;strokeColor=none;fillColor=none;align=left;verticalAlign=middle;whiteSpace=wrap;rounded=0;fontSize=12;fontColor=#000000;" parent="1" vertex="1">
          <mxGeometry x="827" y="-1582.12" width="450" height="142.12" as="geometry" />
        </mxCell>
        <mxCell id="u_tW7pjIhFTwMtbXmYis-47" value="&lt;ul&gt;&lt;li&gt;max 20 multicast domain for a TGW (adjustable)&lt;/li&gt;&lt;li&gt;1 source per group (adjustable)&lt;/li&gt;&lt;li&gt;100 group members per group&lt;/li&gt;&lt;li&gt;10 000 members per TGW (adjustable)&lt;/li&gt;&lt;/ul&gt;" style="text;html=1;strokeColor=none;fillColor=none;align=left;verticalAlign=middle;whiteSpace=wrap;rounded=0;fontSize=12;fontColor=#000000;" parent="1" vertex="1">
          <mxGeometry x="827" y="-1350" width="450" height="142.12" as="geometry" />
        </mxCell>
        <mxCell id="Nbi36h-DLI-Xkn04NWu4-1" value="Demo PrivateLink" style="text;html=1;strokeColor=none;fillColor=none;align=center;verticalAlign=middle;whiteSpace=wrap;rounded=0;fontSize=16;fontColor=#000000;fontStyle=1" vertex="1" parent="1">
          <mxGeometry x="82.07" y="1420" width="230" height="30" as="geometry" />
        </mxCell>
        <mxCell id="Nbi36h-DLI-Xkn04NWu4-2" value="VPC Consumer" style="sketch=0;outlineConnect=0;gradientColor=none;html=1;whiteSpace=wrap;fontSize=12;fontStyle=0;shape=mxgraph.aws4.group;grIcon=mxgraph.aws4.group_vpc;strokeColor=#879196;fillColor=none;verticalAlign=top;align=left;spacingLeft=30;fontColor=#879196;dashed=0;" vertex="1" parent="1">
          <mxGeometry x="90" y="1510" width="217.13" height="150" as="geometry" />
        </mxCell>
        <mxCell id="Nbi36h-DLI-Xkn04NWu4-3" value="VPC Producer" style="sketch=0;outlineConnect=0;gradientColor=none;html=1;whiteSpace=wrap;fontSize=12;fontStyle=0;shape=mxgraph.aws4.group;grIcon=mxgraph.aws4.group_vpc;strokeColor=#879196;fillColor=none;verticalAlign=top;align=left;spacingLeft=30;fontColor=#879196;dashed=0;" vertex="1" parent="1">
          <mxGeometry x="350" y="1510" width="450" height="150" as="geometry" />
        </mxCell>
        <mxCell id="Nbi36h-DLI-Xkn04NWu4-8" style="edgeStyle=orthogonalEdgeStyle;rounded=0;orthogonalLoop=1;jettySize=auto;html=1;" edge="1" parent="1" source="Nbi36h-DLI-Xkn04NWu4-4" target="Nbi36h-DLI-Xkn04NWu4-5">
          <mxGeometry relative="1" as="geometry" />
        </mxCell>
        <mxCell id="Nbi36h-DLI-Xkn04NWu4-4" value="NLB" style="sketch=0;outlineConnect=0;fontColor=#232F3E;gradientColor=none;fillColor=#8C4FFF;strokeColor=none;dashed=0;verticalLabelPosition=bottom;verticalAlign=top;align=center;html=1;fontSize=12;fontStyle=0;aspect=fixed;pointerEvents=1;shape=mxgraph.aws4.network_load_balancer;" vertex="1" parent="1">
          <mxGeometry x="500" y="1568" width="43" height="43" as="geometry" />
        </mxCell>
        <mxCell id="Nbi36h-DLI-Xkn04NWu4-5" value="ALB" style="sketch=0;outlineConnect=0;fontColor=#232F3E;gradientColor=none;fillColor=#8C4FFF;strokeColor=none;dashed=0;verticalLabelPosition=bottom;verticalAlign=top;align=center;html=1;fontSize=12;fontStyle=0;aspect=fixed;pointerEvents=1;shape=mxgraph.aws4.application_load_balancer;" vertex="1" parent="1">
          <mxGeometry x="600" y="1566.74" width="47.26" height="47.26" as="geometry" />
        </mxCell>
        <mxCell id="Nbi36h-DLI-Xkn04NWu4-6" value="Lambda" style="sketch=0;points=[[0,0,0],[0.25,0,0],[0.5,0,0],[0.75,0,0],[1,0,0],[0,1,0],[0.25,1,0],[0.5,1,0],[0.75,1,0],[1,1,0],[0,0.25,0],[0,0.5,0],[0,0.75,0],[1,0.25,0],[1,0.5,0],[1,0.75,0]];outlineConnect=0;fontColor=#232F3E;fillColor=#ED7100;strokeColor=#ffffff;dashed=0;verticalLabelPosition=bottom;verticalAlign=top;align=center;html=1;fontSize=12;fontStyle=0;aspect=fixed;shape=mxgraph.aws4.resourceIcon;resIcon=mxgraph.aws4.lambda;" vertex="1" parent="1">
          <mxGeometry x="710" y="1574" width="34" height="34" as="geometry" />
        </mxCell>
        <mxCell id="Nbi36h-DLI-Xkn04NWu4-7" style="edgeStyle=orthogonalEdgeStyle;rounded=0;orthogonalLoop=1;jettySize=auto;html=1;entryX=0;entryY=0.5;entryDx=0;entryDy=0;entryPerimeter=0;" edge="1" parent="1" source="Nbi36h-DLI-Xkn04NWu4-5" target="Nbi36h-DLI-Xkn04NWu4-6">
          <mxGeometry relative="1" as="geometry" />
        </mxCell>
        <mxCell id="Nbi36h-DLI-Xkn04NWu4-12" style="edgeStyle=orthogonalEdgeStyle;rounded=0;orthogonalLoop=1;jettySize=auto;html=1;" edge="1" parent="1" source="Nbi36h-DLI-Xkn04NWu4-9" target="Nbi36h-DLI-Xkn04NWu4-11">
          <mxGeometry relative="1" as="geometry" />
        </mxCell>
        <mxCell id="Nbi36h-DLI-Xkn04NWu4-9" value="Client EC2" style="sketch=0;points=[[0,0,0],[0.25,0,0],[0.5,0,0],[0.75,0,0],[1,0,0],[0,1,0],[0.25,1,0],[0.5,1,0],[0.75,1,0],[1,1,0],[0,0.25,0],[0,0.5,0],[0,0.75,0],[1,0.25,0],[1,0.5,0],[1,0.75,0]];outlineConnect=0;fontColor=#232F3E;fillColor=#ED7100;strokeColor=#ffffff;dashed=0;verticalLabelPosition=bottom;verticalAlign=top;align=center;html=1;fontSize=12;fontStyle=0;aspect=fixed;shape=mxgraph.aws4.resourceIcon;resIcon=mxgraph.aws4.ec2;" vertex="1" parent="1">
          <mxGeometry x="133.5" y="1567" width="43" height="43" as="geometry" />
        </mxCell>
        <mxCell id="Nbi36h-DLI-Xkn04NWu4-14" style="edgeStyle=orthogonalEdgeStyle;rounded=0;orthogonalLoop=1;jettySize=auto;html=1;" edge="1" parent="1" source="Nbi36h-DLI-Xkn04NWu4-10" target="Nbi36h-DLI-Xkn04NWu4-4">
          <mxGeometry relative="1" as="geometry" />
        </mxCell>
        <mxCell id="Nbi36h-DLI-Xkn04NWu4-10" value="Endpoint Service" style="sketch=0;outlineConnect=0;fontColor=#232F3E;gradientColor=none;fillColor=#8C4FFF;strokeColor=none;dashed=0;verticalLabelPosition=bottom;verticalAlign=top;align=center;html=1;fontSize=12;fontStyle=0;aspect=fixed;pointerEvents=1;shape=mxgraph.aws4.endpoints;" vertex="1" parent="1">
          <mxGeometry x="394" y="1568.74" width="40" height="40" as="geometry" />
        </mxCell>
        <mxCell id="Nbi36h-DLI-Xkn04NWu4-13" style="edgeStyle=orthogonalEdgeStyle;rounded=0;orthogonalLoop=1;jettySize=auto;html=1;" edge="1" parent="1" source="Nbi36h-DLI-Xkn04NWu4-11" target="Nbi36h-DLI-Xkn04NWu4-10">
          <mxGeometry relative="1" as="geometry" />
        </mxCell>
        <mxCell id="Nbi36h-DLI-Xkn04NWu4-11" value="ENI" style="sketch=0;outlineConnect=0;fontColor=#232F3E;gradientColor=none;fillColor=#8C4FFF;strokeColor=none;dashed=0;verticalLabelPosition=bottom;verticalAlign=top;align=center;html=1;fontSize=12;fontStyle=0;aspect=fixed;pointerEvents=1;shape=mxgraph.aws4.elastic_network_interface;" vertex="1" parent="1">
          <mxGeometry x="247.38" y="1564" width="49" height="49" as="geometry" />
        </mxCell>
      </root>
    </mxGraphModel>
  </diagram>
  <diagram id="b5dc72Vi0_bYK5qodMeo" name="Module 6 : Containers">
    <mxGraphModel dx="1036" dy="3040" grid="1" gridSize="10" guides="1" tooltips="1" connect="1" arrows="1" fold="1" page="1" pageScale="1" pageWidth="827" pageHeight="1169" math="0" shadow="0">
      <root>
        <mxCell id="0" />
        <mxCell id="1" parent="0" />
        <mxCell id="JxidLG4axhIq42eq01ID-16" value="Subnet" style="sketch=0;outlineConnect=0;gradientColor=none;html=1;whiteSpace=wrap;fontSize=12;fontStyle=0;shape=mxgraph.aws4.group;grIcon=mxgraph.aws4.group_subnet;strokeColor=#879196;fillColor=none;verticalAlign=top;align=left;spacingLeft=30;fontColor=#879196;dashed=0;" parent="1" vertex="1">
          <mxGeometry x="91.33" y="-1169" width="388.67" height="330" as="geometry" />
        </mxCell>
        <mxCell id="JxidLG4axhIq42eq01ID-38" value="SG1" style="fillColor=none;strokeColor=#DD3522;verticalAlign=top;fontStyle=0;fontColor=#DD3522;fontSize=10;" parent="1" vertex="1">
          <mxGeometry x="220" y="-1050" width="145.5" height="127" as="geometry" />
        </mxCell>
        <mxCell id="JxidLG4axhIq42eq01ID-5" value="Subnet" style="sketch=0;outlineConnect=0;gradientColor=none;html=1;whiteSpace=wrap;fontSize=12;fontStyle=0;shape=mxgraph.aws4.group;grIcon=mxgraph.aws4.group_subnet;strokeColor=#879196;fillColor=none;verticalAlign=top;align=left;spacingLeft=30;fontColor=#879196;dashed=0;" parent="1" vertex="1">
          <mxGeometry x="91.33" y="-1620" width="368.67" height="330" as="geometry" />
        </mxCell>
        <mxCell id="JxidLG4axhIq42eq01ID-13" value="SG2" style="fillColor=none;strokeColor=#DD3522;verticalAlign=top;fontStyle=0;fontColor=#DD3522;fontSize=10;" parent="1" vertex="1">
          <mxGeometry x="304.5" y="-1430" width="135.5" height="127" as="geometry" />
        </mxCell>
        <mxCell id="JxidLG4axhIq42eq01ID-12" value="SG1" style="fillColor=none;strokeColor=#DD3522;verticalAlign=top;fontStyle=0;fontColor=#DD3522;fontSize=10;" parent="1" vertex="1">
          <mxGeometry x="304.5" y="-1570" width="135.5" height="130" as="geometry" />
        </mxCell>
        <mxCell id="JxidLG4axhIq42eq01ID-1" value="Networking Mode" style="text;html=1;strokeColor=none;fillColor=none;align=center;verticalAlign=middle;whiteSpace=wrap;rounded=0;fontSize=16;fontColor=#000000;fontStyle=1" parent="1" vertex="1">
          <mxGeometry x="51.330000000000005" y="-1830" width="230" height="30" as="geometry" />
        </mxCell>
        <mxCell id="JxidLG4axhIq42eq01ID-2" value="EC2 instance contents" style="points=[[0,0],[0.25,0],[0.5,0],[0.75,0],[1,0],[1,0.25],[1,0.5],[1,0.75],[1,1],[0.75,1],[0.5,1],[0.25,1],[0,1],[0,0.75],[0,0.5],[0,0.25]];outlineConnect=0;gradientColor=none;html=1;whiteSpace=wrap;fontSize=12;fontStyle=0;container=1;pointerEvents=0;collapsible=0;recursiveResize=0;shape=mxgraph.aws4.group;grIcon=mxgraph.aws4.group_ec2_instance_contents;strokeColor=#D86613;fillColor=none;verticalAlign=top;align=left;spacingLeft=30;fontColor=#D86613;dashed=0;" parent="1" vertex="1">
          <mxGeometry x="160" y="-1590" width="130" height="280" as="geometry" />
        </mxCell>
        <mxCell id="JxidLG4axhIq42eq01ID-3" value="Task 1&lt;br&gt;Port 80" style="sketch=0;outlineConnect=0;fontColor=#232F3E;gradientColor=none;fillColor=#D45B07;strokeColor=none;dashed=0;verticalLabelPosition=bottom;verticalAlign=top;align=center;html=1;fontSize=12;fontStyle=0;aspect=fixed;pointerEvents=1;shape=mxgraph.aws4.ecs_task;" parent="JxidLG4axhIq42eq01ID-2" vertex="1">
          <mxGeometry x="50" y="52.97" width="27" height="35.03" as="geometry" />
        </mxCell>
        <mxCell id="JxidLG4axhIq42eq01ID-4" value="Task 2&lt;br&gt;Port 80" style="sketch=0;outlineConnect=0;fontColor=#232F3E;gradientColor=none;fillColor=#D45B07;strokeColor=none;dashed=0;verticalLabelPosition=bottom;verticalAlign=top;align=center;html=1;fontSize=12;fontStyle=0;aspect=fixed;pointerEvents=1;shape=mxgraph.aws4.ecs_task;" parent="JxidLG4axhIq42eq01ID-2" vertex="1">
          <mxGeometry x="50" y="190" width="27" height="35.03" as="geometry" />
        </mxCell>
        <mxCell id="JxidLG4axhIq42eq01ID-7" value="Public IP : 65.32.0.126&lt;br style=&quot;font-size: 10px;&quot;&gt;Private IP : 192.168.0.10&lt;br&gt;Port : 80" style="outlineConnect=0;dashed=0;verticalLabelPosition=bottom;verticalAlign=top;align=center;html=1;shape=mxgraph.aws3.elastic_network_interface;fillColor=#F58534;gradientColor=none;fontSize=10;" parent="1" vertex="1">
          <mxGeometry x="345" y="-1540" width="39" height="42" as="geometry" />
        </mxCell>
        <mxCell id="JxidLG4axhIq42eq01ID-8" style="edgeStyle=orthogonalEdgeStyle;rounded=0;orthogonalLoop=1;jettySize=auto;html=1;entryX=0;entryY=0.5;entryDx=0;entryDy=0;entryPerimeter=0;" parent="1" source="JxidLG4axhIq42eq01ID-3" target="JxidLG4axhIq42eq01ID-7" edge="1">
          <mxGeometry relative="1" as="geometry" />
        </mxCell>
        <mxCell id="JxidLG4axhIq42eq01ID-9" value="Public IP : 65.32.0.127&lt;br style=&quot;border-color: var(--border-color); font-size: 10px;&quot;&gt;Private IP : 192.168.0.11&lt;br&gt;Port : 80" style="outlineConnect=0;dashed=0;verticalLabelPosition=bottom;verticalAlign=top;align=center;html=1;shape=mxgraph.aws3.elastic_network_interface;fillColor=#F58534;gradientColor=none;fontSize=10;" parent="1" vertex="1">
          <mxGeometry x="346" y="-1403" width="39" height="42" as="geometry" />
        </mxCell>
        <mxCell id="JxidLG4axhIq42eq01ID-10" style="edgeStyle=orthogonalEdgeStyle;rounded=0;orthogonalLoop=1;jettySize=auto;html=1;entryX=0;entryY=0.5;entryDx=0;entryDy=0;entryPerimeter=0;" parent="1" source="JxidLG4axhIq42eq01ID-4" target="JxidLG4axhIq42eq01ID-9" edge="1">
          <mxGeometry relative="1" as="geometry" />
        </mxCell>
        <mxCell id="JxidLG4axhIq42eq01ID-14" value="AWSVPC" style="text;html=1;strokeColor=none;fillColor=none;align=center;verticalAlign=middle;whiteSpace=wrap;rounded=0;fontSize=14;fontColor=#000000;fontStyle=1" parent="1" vertex="1">
          <mxGeometry x="51.330000000000005" y="-1670" width="230" height="30" as="geometry" />
        </mxCell>
        <mxCell id="JxidLG4axhIq42eq01ID-15" value="Bridge" style="text;html=1;strokeColor=none;fillColor=none;align=center;verticalAlign=middle;whiteSpace=wrap;rounded=0;fontSize=14;fontColor=#000000;fontStyle=1" parent="1" vertex="1">
          <mxGeometry x="60.00000000000001" y="-1240" width="230" height="30" as="geometry" />
        </mxCell>
        <mxCell id="JxidLG4axhIq42eq01ID-17" value="EC2 instance contents" style="points=[[0,0],[0.25,0],[0.5,0],[0.75,0],[1,0],[1,0.25],[1,0.5],[1,0.75],[1,1],[0.75,1],[0.5,1],[0.25,1],[0,1],[0,0.75],[0,0.5],[0,0.25]];outlineConnect=0;gradientColor=none;html=1;whiteSpace=wrap;fontSize=12;fontStyle=0;container=1;pointerEvents=0;collapsible=0;recursiveResize=0;shape=mxgraph.aws4.group;grIcon=mxgraph.aws4.group_ec2_instance_contents;strokeColor=#D86613;fillColor=none;verticalAlign=top;align=left;spacingLeft=30;fontColor=#D86613;dashed=0;" parent="1" vertex="1">
          <mxGeometry x="112" y="-1130" width="130" height="260" as="geometry" />
        </mxCell>
        <mxCell id="JxidLG4axhIq42eq01ID-18" value="Task 1&lt;br&gt;&lt;font color=&quot;#ffb366&quot;&gt;Port 8080&lt;/font&gt;" style="sketch=0;outlineConnect=0;fontColor=#232F3E;gradientColor=none;fillColor=#D45B07;strokeColor=none;dashed=0;verticalLabelPosition=bottom;verticalAlign=top;align=center;html=1;fontSize=12;fontStyle=0;aspect=fixed;pointerEvents=1;shape=mxgraph.aws4.ecs_task;" parent="JxidLG4axhIq42eq01ID-17" vertex="1">
          <mxGeometry x="50" y="52.97" width="27" height="35.03" as="geometry" />
        </mxCell>
        <mxCell id="JxidLG4axhIq42eq01ID-19" value="Task 2 &lt;br&gt;&lt;font color=&quot;#cc99ff&quot;&gt;Port 8080&lt;/font&gt;" style="sketch=0;outlineConnect=0;fontColor=#232F3E;gradientColor=none;fillColor=#D45B07;strokeColor=none;dashed=0;verticalLabelPosition=bottom;verticalAlign=top;align=center;html=1;fontSize=12;fontStyle=0;aspect=fixed;pointerEvents=1;shape=mxgraph.aws4.ecs_task;" parent="JxidLG4axhIq42eq01ID-17" vertex="1">
          <mxGeometry x="50" y="160" width="27" height="35.03" as="geometry" />
        </mxCell>
        <mxCell id="JxidLG4axhIq42eq01ID-20" value="&lt;ul&gt;&lt;li&gt;Task have separate ENI&lt;/li&gt;&lt;ul&gt;&lt;li&gt;Distinct Pirvate IPs&lt;/li&gt;&lt;li&gt;Distinct Public IPs&lt;/li&gt;&lt;li&gt;Distinct Security Group&lt;/li&gt;&lt;li&gt;Exposition on the same port&lt;/li&gt;&lt;/ul&gt;&lt;li&gt;Fine grained control on security but scales slower because of ENI creation&lt;/li&gt;&lt;/ul&gt;" style="text;html=1;strokeColor=none;fillColor=none;align=left;verticalAlign=middle;whiteSpace=wrap;rounded=0;fontSize=10;" parent="1" vertex="1">
          <mxGeometry x="520" y="-1590" width="250" height="110" as="geometry" />
        </mxCell>
        <mxCell id="JxidLG4axhIq42eq01ID-24" value="port 50762" style="fontStyle=0;labelPosition=right;verticalLabelPosition=middle;align=left;verticalAlign=middle;spacingLeft=2;fontSize=10;fontColor=#FFB366;" parent="1" vertex="1">
          <mxGeometry x="395" y="-1030" width="20" height="20" as="geometry" />
        </mxCell>
        <mxCell id="JxidLG4axhIq42eq01ID-25" value="&lt;br&gt;&lt;span style=&quot;&quot;&gt;&#x9;&lt;/span&gt;&lt;br&gt;&lt;ul&gt;&lt;li&gt;Ephemeral ports&lt;/li&gt;&lt;ul&gt;&lt;li&gt;49153 - 65535 (Linux)&lt;/li&gt;&lt;li&gt;49152 - 65535 (Windows)&lt;/li&gt;&lt;/ul&gt;&lt;li&gt;&lt;span style=&quot;background-color: initial;&quot;&gt;Share the same ENI&lt;/span&gt;&lt;br&gt;&lt;/li&gt;&lt;ul&gt;&lt;li&gt;Same public and private IP&lt;/li&gt;&lt;li&gt;Same Security group&lt;/li&gt;&lt;/ul&gt;&lt;li&gt;When port is assigned dynamically, ECS will update load balancer accordingly&lt;/li&gt;&lt;li&gt;If port is statically assigned, cannot run more than on task instance on a single EC2 (Task of same service must all be spread on distinct EC2)&lt;/li&gt;&lt;li&gt;Scales faster than awsvpc mode, as there is no dynamic ENI creation&lt;/li&gt;&lt;/ul&gt;" style="text;html=1;strokeColor=none;fillColor=none;align=left;verticalAlign=middle;whiteSpace=wrap;rounded=0;fontSize=10;" parent="1" vertex="1">
          <mxGeometry x="490" y="-1094" width="280" height="190" as="geometry" />
        </mxCell>
        <mxCell id="JxidLG4axhIq42eq01ID-29" style="edgeStyle=orthogonalEdgeStyle;rounded=0;orthogonalLoop=1;jettySize=auto;html=1;entryX=0;entryY=0.5;entryDx=0;entryDy=0;fontSize=10;entryPerimeter=0;exitX=1;exitY=0.5;exitDx=0;exitDy=0;" parent="1" source="JxidLG4axhIq42eq01ID-17" target="JxidLG4axhIq42eq01ID-30" edge="1">
          <mxGeometry relative="1" as="geometry" />
        </mxCell>
        <mxCell id="JxidLG4axhIq42eq01ID-36" style="edgeStyle=orthogonalEdgeStyle;rounded=0;orthogonalLoop=1;jettySize=auto;html=1;entryX=0;entryY=0.5;entryDx=0;entryDy=0;fontSize=10;fillColor=#ffe6cc;strokeColor=#d79b00;" parent="1" source="JxidLG4axhIq42eq01ID-30" target="JxidLG4axhIq42eq01ID-24" edge="1">
          <mxGeometry relative="1" as="geometry" />
        </mxCell>
        <mxCell id="JxidLG4axhIq42eq01ID-37" style="edgeStyle=orthogonalEdgeStyle;rounded=0;orthogonalLoop=1;jettySize=auto;html=1;entryX=0;entryY=0.5;entryDx=0;entryDy=0;fontSize=10;fillColor=#e1d5e7;strokeColor=#9673a6;" parent="1" source="JxidLG4axhIq42eq01ID-30" target="JxidLG4axhIq42eq01ID-34" edge="1">
          <mxGeometry relative="1" as="geometry" />
        </mxCell>
        <mxCell id="JxidLG4axhIq42eq01ID-30" value="Public IP : 65.32.0.127&lt;br style=&quot;border-color: var(--border-color); font-size: 10px;&quot;&gt;Private IP : 192.168.0.11" style="outlineConnect=0;dashed=0;verticalLabelPosition=bottom;verticalAlign=top;align=center;html=1;shape=mxgraph.aws3.elastic_network_interface;fillColor=#F58534;gradientColor=none;fontSize=10;" parent="1" vertex="1">
          <mxGeometry x="274" y="-1015" width="29" height="31" as="geometry" />
        </mxCell>
        <mxCell id="JxidLG4axhIq42eq01ID-34" value="port 60876" style="fontStyle=0;labelPosition=right;verticalLabelPosition=middle;align=left;verticalAlign=middle;spacingLeft=2;fontSize=10;fontColor=#CC99FF;" parent="1" vertex="1">
          <mxGeometry x="394" y="-984" width="20" height="20" as="geometry" />
        </mxCell>
        <mxCell id="JxidLG4axhIq42eq01ID-40" style="edgeStyle=orthogonalEdgeStyle;rounded=0;orthogonalLoop=1;jettySize=auto;html=1;entryX=0;entryY=0.5;entryDx=0;entryDy=0;entryPerimeter=0;fontSize=10;fillColor=#ffe6cc;strokeColor=#d79b00;" parent="1" source="JxidLG4axhIq42eq01ID-18" target="JxidLG4axhIq42eq01ID-30" edge="1">
          <mxGeometry relative="1" as="geometry" />
        </mxCell>
        <mxCell id="JxidLG4axhIq42eq01ID-41" style="edgeStyle=orthogonalEdgeStyle;rounded=0;orthogonalLoop=1;jettySize=auto;html=1;entryX=0;entryY=0.5;entryDx=0;entryDy=0;entryPerimeter=0;fontSize=10;fillColor=#e1d5e7;strokeColor=#9673a6;" parent="1" source="JxidLG4axhIq42eq01ID-19" target="JxidLG4axhIq42eq01ID-30" edge="1">
          <mxGeometry relative="1" as="geometry" />
        </mxCell>
        <mxCell id="JxidLG4axhIq42eq01ID-45" value="Host" style="text;html=1;strokeColor=none;fillColor=none;align=center;verticalAlign=middle;whiteSpace=wrap;rounded=0;fontSize=14;fontColor=#000000;fontStyle=1" parent="1" vertex="1">
          <mxGeometry x="51.33" y="-800" width="230" height="30" as="geometry" />
        </mxCell>
        <mxCell id="JxidLG4axhIq42eq01ID-51" value="Subnet" style="sketch=0;outlineConnect=0;gradientColor=none;html=1;whiteSpace=wrap;fontSize=12;fontStyle=0;shape=mxgraph.aws4.group;grIcon=mxgraph.aws4.group_subnet;strokeColor=#879196;fillColor=none;verticalAlign=top;align=left;spacingLeft=30;fontColor=#879196;dashed=0;" parent="1" vertex="1">
          <mxGeometry x="91.33" y="-749" width="388.67" height="330" as="geometry" />
        </mxCell>
        <mxCell id="JxidLG4axhIq42eq01ID-52" value="SG1" style="fillColor=none;strokeColor=#DD3522;verticalAlign=top;fontStyle=0;fontColor=#DD3522;fontSize=10;" parent="1" vertex="1">
          <mxGeometry x="220" y="-630" width="145.5" height="127" as="geometry" />
        </mxCell>
        <mxCell id="JxidLG4axhIq42eq01ID-53" value="EC2 instance contents" style="points=[[0,0],[0.25,0],[0.5,0],[0.75,0],[1,0],[1,0.25],[1,0.5],[1,0.75],[1,1],[0.75,1],[0.5,1],[0.25,1],[0,1],[0,0.75],[0,0.5],[0,0.25]];outlineConnect=0;gradientColor=none;html=1;whiteSpace=wrap;fontSize=12;fontStyle=0;container=1;pointerEvents=0;collapsible=0;recursiveResize=0;shape=mxgraph.aws4.group;grIcon=mxgraph.aws4.group_ec2_instance_contents;strokeColor=#D86613;fillColor=none;verticalAlign=top;align=left;spacingLeft=30;fontColor=#D86613;dashed=0;" parent="1" vertex="1">
          <mxGeometry x="112" y="-710" width="130" height="260" as="geometry" />
        </mxCell>
        <mxCell id="JxidLG4axhIq42eq01ID-54" value="Task 1&lt;br&gt;&lt;font color=&quot;#ffb366&quot;&gt;Port 8080&lt;/font&gt;" style="sketch=0;outlineConnect=0;fontColor=#232F3E;gradientColor=none;fillColor=#D45B07;strokeColor=none;dashed=0;verticalLabelPosition=bottom;verticalAlign=top;align=center;html=1;fontSize=12;fontStyle=0;aspect=fixed;pointerEvents=1;shape=mxgraph.aws4.ecs_task;" parent="JxidLG4axhIq42eq01ID-53" vertex="1">
          <mxGeometry x="50" y="49.97" width="27" height="35.03" as="geometry" />
        </mxCell>
        <mxCell id="JxidLG4axhIq42eq01ID-55" value="Task 2 &lt;br&gt;&lt;font color=&quot;#cc99ff&quot;&gt;Port 8081&lt;/font&gt;" style="sketch=0;outlineConnect=0;fontColor=#232F3E;gradientColor=none;fillColor=#D45B07;strokeColor=none;dashed=0;verticalLabelPosition=bottom;verticalAlign=top;align=center;html=1;fontSize=12;fontStyle=0;aspect=fixed;pointerEvents=1;shape=mxgraph.aws4.ecs_task;" parent="JxidLG4axhIq42eq01ID-53" vertex="1">
          <mxGeometry x="50" y="160" width="27" height="35.03" as="geometry" />
        </mxCell>
        <mxCell id="JxidLG4axhIq42eq01ID-56" value="port 8080" style="fontStyle=0;labelPosition=right;verticalLabelPosition=middle;align=left;verticalAlign=middle;spacingLeft=2;fontSize=10;fontColor=#FFB366;" parent="1" vertex="1">
          <mxGeometry x="395" y="-610" width="20" height="20" as="geometry" />
        </mxCell>
        <mxCell id="JxidLG4axhIq42eq01ID-57" style="edgeStyle=orthogonalEdgeStyle;rounded=0;orthogonalLoop=1;jettySize=auto;html=1;entryX=0;entryY=0.5;entryDx=0;entryDy=0;fontSize=10;entryPerimeter=0;exitX=1;exitY=0.5;exitDx=0;exitDy=0;" parent="1" source="JxidLG4axhIq42eq01ID-53" target="JxidLG4axhIq42eq01ID-60" edge="1">
          <mxGeometry relative="1" as="geometry" />
        </mxCell>
        <mxCell id="JxidLG4axhIq42eq01ID-58" style="edgeStyle=orthogonalEdgeStyle;rounded=0;orthogonalLoop=1;jettySize=auto;html=1;entryX=0;entryY=0.5;entryDx=0;entryDy=0;fontSize=10;fillColor=#ffe6cc;strokeColor=#d79b00;" parent="1" source="JxidLG4axhIq42eq01ID-60" target="JxidLG4axhIq42eq01ID-56" edge="1">
          <mxGeometry relative="1" as="geometry" />
        </mxCell>
        <mxCell id="JxidLG4axhIq42eq01ID-59" style="edgeStyle=orthogonalEdgeStyle;rounded=0;orthogonalLoop=1;jettySize=auto;html=1;entryX=0;entryY=0.5;entryDx=0;entryDy=0;fontSize=10;fillColor=#e1d5e7;strokeColor=#9673a6;" parent="1" source="JxidLG4axhIq42eq01ID-60" target="JxidLG4axhIq42eq01ID-61" edge="1">
          <mxGeometry relative="1" as="geometry" />
        </mxCell>
        <mxCell id="JxidLG4axhIq42eq01ID-60" value="Public IP : 65.32.0.127&lt;br style=&quot;border-color: var(--border-color); font-size: 10px;&quot;&gt;Private IP : 192.168.0.11" style="outlineConnect=0;dashed=0;verticalLabelPosition=bottom;verticalAlign=top;align=center;html=1;shape=mxgraph.aws3.elastic_network_interface;fillColor=#F58534;gradientColor=none;fontSize=10;" parent="1" vertex="1">
          <mxGeometry x="274" y="-595" width="29" height="31" as="geometry" />
        </mxCell>
        <mxCell id="JxidLG4axhIq42eq01ID-61" value="port 8081" style="fontStyle=0;labelPosition=right;verticalLabelPosition=middle;align=left;verticalAlign=middle;spacingLeft=2;fontSize=10;fontColor=#CC99FF;" parent="1" vertex="1">
          <mxGeometry x="394" y="-564" width="20" height="20" as="geometry" />
        </mxCell>
        <mxCell id="JxidLG4axhIq42eq01ID-62" style="edgeStyle=orthogonalEdgeStyle;rounded=0;orthogonalLoop=1;jettySize=auto;html=1;entryX=0;entryY=0.5;entryDx=0;entryDy=0;entryPerimeter=0;fontSize=10;fillColor=#ffe6cc;strokeColor=#d79b00;" parent="1" source="JxidLG4axhIq42eq01ID-54" target="JxidLG4axhIq42eq01ID-60" edge="1">
          <mxGeometry relative="1" as="geometry" />
        </mxCell>
        <mxCell id="JxidLG4axhIq42eq01ID-63" style="edgeStyle=orthogonalEdgeStyle;rounded=0;orthogonalLoop=1;jettySize=auto;html=1;entryX=0;entryY=0.5;entryDx=0;entryDy=0;entryPerimeter=0;fontSize=10;fillColor=#e1d5e7;strokeColor=#9673a6;" parent="1" source="JxidLG4axhIq42eq01ID-55" target="JxidLG4axhIq42eq01ID-60" edge="1">
          <mxGeometry relative="1" as="geometry" />
        </mxCell>
        <mxCell id="JxidLG4axhIq42eq01ID-64" value="&lt;ul&gt;&lt;li&gt;Port used on EC2 = port used by the container&lt;/li&gt;&lt;li&gt;subject to port conflicts&lt;/li&gt;&lt;li&gt;cannot run more than on task instance on a single EC2 (Task of same service must all be spread on distinct EC2)&lt;br&gt;&lt;/li&gt;&lt;/ul&gt;" style="text;html=1;strokeColor=none;fillColor=none;align=left;verticalAlign=middle;whiteSpace=wrap;rounded=0;fontSize=10;" parent="1" vertex="1">
          <mxGeometry x="505" y="-700" width="280" height="190" as="geometry" />
        </mxCell>
        <mxCell id="JxidLG4axhIq42eq01ID-65" value="&lt;ul&gt;&lt;li&gt;Fargate is AWSVPC. Cannot use other modes&lt;/li&gt;&lt;li&gt;Bridge and host not supported on EC2 Windows instances&lt;/li&gt;&lt;/ul&gt;" style="text;html=1;strokeColor=none;fillColor=none;align=left;verticalAlign=middle;whiteSpace=wrap;rounded=0;fontSize=10;fontColor=#000000;" parent="1" vertex="1">
          <mxGeometry x="112" y="-1779" width="378" height="52" as="geometry" />
        </mxCell>
      </root>
    </mxGraphModel>
  </diagram>
  <diagram id="dTc4IUwB-NLw07YYWqBw" name="Module 9 : Securing DataStore">
    <mxGraphModel dx="1036" dy="3040" grid="1" gridSize="10" guides="1" tooltips="1" connect="1" arrows="1" fold="1" page="1" pageScale="1" pageWidth="827" pageHeight="1169" math="0" shadow="0">
      <root>
        <mxCell id="0" />
        <mxCell id="1" parent="0" />
        <mxCell id="nzXPx3cfkU8LYWl3NEx1-1" value="XKS (External Key Store)" style="text;html=1;strokeColor=none;fillColor=none;align=center;verticalAlign=middle;whiteSpace=wrap;rounded=0;fontSize=16;fontColor=#000000;fontStyle=1" parent="1" vertex="1">
          <mxGeometry x="60" y="-1960" width="230" height="30" as="geometry" />
        </mxCell>
        <mxCell id="nzXPx3cfkU8LYWl3NEx1-2" value="" style="sketch=0;points=[[0,0,0],[0.25,0,0],[0.5,0,0],[0.75,0,0],[1,0,0],[0,1,0],[0.25,1,0],[0.5,1,0],[0.75,1,0],[1,1,0],[0,0.25,0],[0,0.5,0],[0,0.75,0],[1,0.25,0],[1,0.5,0],[1,0.75,0]];outlineConnect=0;fontColor=#232F3E;gradientColor=#F54749;gradientDirection=north;fillColor=#C7131F;strokeColor=#ffffff;dashed=0;verticalLabelPosition=bottom;verticalAlign=top;align=center;html=1;fontSize=12;fontStyle=0;aspect=fixed;shape=mxgraph.aws4.resourceIcon;resIcon=mxgraph.aws4.key_management_service;" parent="1" vertex="1">
          <mxGeometry x="176" y="-1690" width="28" height="28" as="geometry" />
        </mxCell>
        <mxCell id="nzXPx3cfkU8LYWl3NEx1-3" value="" style="rounded=1;whiteSpace=wrap;html=1;dashed=1;strokeColor=#FF3333;fillColor=none;" parent="1" vertex="1">
          <mxGeometry x="166" y="-1690" width="140" height="210" as="geometry" />
        </mxCell>
        <mxCell id="nzXPx3cfkU8LYWl3NEx1-4" value="KMS" style="text;html=1;strokeColor=none;fillColor=none;align=left;verticalAlign=middle;whiteSpace=wrap;rounded=0;fontSize=10;" parent="1" vertex="1">
          <mxGeometry x="208" y="-1690" width="60" height="30" as="geometry" />
        </mxCell>
        <mxCell id="nzXPx3cfkU8LYWl3NEx1-13" style="edgeStyle=orthogonalEdgeStyle;rounded=0;orthogonalLoop=1;jettySize=auto;html=1;exitX=0;exitY=0.5;exitDx=0;exitDy=0;entryX=1;entryY=0.5;entryDx=0;entryDy=0;fontSize=12;startArrow=classic;startFill=1;" parent="1" source="nzXPx3cfkU8LYWl3NEx1-5" target="nzXPx3cfkU8LYWl3NEx1-10" edge="1">
          <mxGeometry relative="1" as="geometry" />
        </mxCell>
        <mxCell id="nzXPx3cfkU8LYWl3NEx1-16" style="edgeStyle=orthogonalEdgeStyle;rounded=0;orthogonalLoop=1;jettySize=auto;html=1;fontSize=12;startArrow=none;startFill=0;" parent="1" source="nzXPx3cfkU8LYWl3NEx1-5" target="nzXPx3cfkU8LYWl3NEx1-15" edge="1">
          <mxGeometry relative="1" as="geometry" />
        </mxCell>
        <mxCell id="nzXPx3cfkU8LYWl3NEx1-5" value="XKS" style="text;html=1;strokeColor=default;fillColor=none;align=center;verticalAlign=middle;whiteSpace=wrap;rounded=0;fontSize=12;fontStyle=1" parent="1" vertex="1">
          <mxGeometry x="183" y="-1610" width="110" height="60" as="geometry" />
        </mxCell>
        <mxCell id="nzXPx3cfkU8LYWl3NEx1-11" value="" style="group" parent="1" vertex="1" connectable="0">
          <mxGeometry x="90" y="-1668.5" width="50" height="175.5" as="geometry" />
        </mxCell>
        <mxCell id="nzXPx3cfkU8LYWl3NEx1-6" value="" style="sketch=0;points=[[0,0,0],[0.25,0,0],[0.5,0,0],[0.75,0,0],[1,0,0],[0,1,0],[0.25,1,0],[0.5,1,0],[0.75,1,0],[1,1,0],[0,0.25,0],[0,0.5,0],[0,0.75,0],[1,0.25,0],[1,0.5,0],[1,0.75,0]];outlineConnect=0;fontColor=#232F3E;gradientColor=#60A337;gradientDirection=north;fillColor=#277116;strokeColor=#ffffff;dashed=0;verticalLabelPosition=bottom;verticalAlign=top;align=center;html=1;fontSize=12;fontStyle=0;aspect=fixed;shape=mxgraph.aws4.resourceIcon;resIcon=mxgraph.aws4.s3;" parent="nzXPx3cfkU8LYWl3NEx1-11" vertex="1">
          <mxGeometry x="10" y="15.5" width="29" height="29" as="geometry" />
        </mxCell>
        <mxCell id="nzXPx3cfkU8LYWl3NEx1-7" value="" style="sketch=0;points=[[0,0,0],[0.25,0,0],[0.5,0,0],[0.75,0,0],[1,0,0],[0,1,0],[0.25,1,0],[0.5,1,0],[0.75,1,0],[1,1,0],[0,0.25,0],[0,0.5,0],[0,0.75,0],[1,0.25,0],[1,0.5,0],[1,0.75,0]];outlineConnect=0;fontColor=#232F3E;gradientColor=#4D72F3;gradientDirection=north;fillColor=#3334B9;strokeColor=#ffffff;dashed=0;verticalLabelPosition=bottom;verticalAlign=top;align=center;html=1;fontSize=12;fontStyle=0;aspect=fixed;shape=mxgraph.aws4.resourceIcon;resIcon=mxgraph.aws4.dynamodb;" parent="nzXPx3cfkU8LYWl3NEx1-11" vertex="1">
          <mxGeometry x="10.5" y="54.5" width="28" height="28" as="geometry" />
        </mxCell>
        <mxCell id="nzXPx3cfkU8LYWl3NEx1-8" value="" style="sketch=0;points=[[0,0,0],[0.25,0,0],[0.5,0,0],[0.75,0,0],[1,0,0],[0,1,0],[0.25,1,0],[0.5,1,0],[0.75,1,0],[1,1,0],[0,0.25,0],[0,0.5,0],[0,0.75,0],[1,0.25,0],[1,0.5,0],[1,0.75,0]];outlineConnect=0;fontColor=#232F3E;gradientColor=#60A337;gradientDirection=north;fillColor=#277116;strokeColor=#ffffff;dashed=0;verticalLabelPosition=bottom;verticalAlign=top;align=center;html=1;fontSize=12;fontStyle=0;aspect=fixed;shape=mxgraph.aws4.resourceIcon;resIcon=mxgraph.aws4.efs_standard;" parent="nzXPx3cfkU8LYWl3NEx1-11" vertex="1">
          <mxGeometry x="11" y="94.5" width="28" height="28" as="geometry" />
        </mxCell>
        <mxCell id="nzXPx3cfkU8LYWl3NEx1-9" value="" style="sketch=0;points=[[0,0,0],[0.25,0,0],[0.5,0,0],[0.75,0,0],[1,0,0],[0,1,0],[0.25,1,0],[0.5,1,0],[0.75,1,0],[1,1,0],[0,0.25,0],[0,0.5,0],[0,0.75,0],[1,0.25,0],[1,0.5,0],[1,0.75,0]];outlineConnect=0;fontColor=#232F3E;gradientColor=#945DF2;gradientDirection=north;fillColor=#5A30B5;strokeColor=#ffffff;dashed=0;verticalLabelPosition=bottom;verticalAlign=top;align=center;html=1;fontSize=12;fontStyle=0;aspect=fixed;shape=mxgraph.aws4.resourceIcon;resIcon=mxgraph.aws4.redshift;" parent="nzXPx3cfkU8LYWl3NEx1-11" vertex="1">
          <mxGeometry x="11" y="134.5" width="28" height="28" as="geometry" />
        </mxCell>
        <mxCell id="nzXPx3cfkU8LYWl3NEx1-10" value="" style="rounded=1;whiteSpace=wrap;html=1;dashed=1;strokeColor=default;fontSize=12;fillColor=none;" parent="nzXPx3cfkU8LYWl3NEx1-11" vertex="1">
          <mxGeometry y="1" width="50" height="175.5" as="geometry" />
        </mxCell>
        <mxCell id="nzXPx3cfkU8LYWl3NEx1-23" style="edgeStyle=orthogonalEdgeStyle;rounded=0;orthogonalLoop=1;jettySize=auto;html=1;fontSize=12;startArrow=classic;startFill=1;entryX=0;entryY=0.5;entryDx=0;entryDy=0;" parent="1" source="nzXPx3cfkU8LYWl3NEx1-14" target="nzXPx3cfkU8LYWl3NEx1-26" edge="1">
          <mxGeometry relative="1" as="geometry" />
        </mxCell>
        <mxCell id="nzXPx3cfkU8LYWl3NEx1-14" value="VPC" style="points=[[0,0],[0.25,0],[0.5,0],[0.75,0],[1,0],[1,0.25],[1,0.5],[1,0.75],[1,1],[0.75,1],[0.5,1],[0.25,1],[0,1],[0,0.75],[0,0.5],[0,0.25]];outlineConnect=0;gradientColor=none;html=1;whiteSpace=wrap;fontSize=12;fontStyle=0;container=1;pointerEvents=0;collapsible=0;recursiveResize=0;shape=mxgraph.aws4.group;grIcon=mxgraph.aws4.group_vpc;strokeColor=#248814;fillColor=none;verticalAlign=top;align=left;spacingLeft=30;fontColor=#AAB7B8;dashed=0;" parent="1" vertex="1">
          <mxGeometry x="326" y="-1690" width="220" height="210" as="geometry" />
        </mxCell>
        <mxCell id="nzXPx3cfkU8LYWl3NEx1-15" value="NLB" style="sketch=0;outlineConnect=0;fontColor=#232F3E;gradientColor=none;fillColor=#4D27AA;strokeColor=none;dashed=0;verticalLabelPosition=bottom;verticalAlign=top;align=center;html=1;fontSize=12;fontStyle=0;aspect=fixed;pointerEvents=1;shape=mxgraph.aws4.network_load_balancer;" parent="nzXPx3cfkU8LYWl3NEx1-14" vertex="1">
          <mxGeometry x="15" y="92.75" width="33" height="33" as="geometry" />
        </mxCell>
        <mxCell id="nzXPx3cfkU8LYWl3NEx1-21" style="edgeStyle=orthogonalEdgeStyle;rounded=0;orthogonalLoop=1;jettySize=auto;html=1;fontSize=12;startArrow=classic;startFill=1;" parent="nzXPx3cfkU8LYWl3NEx1-14" source="nzXPx3cfkU8LYWl3NEx1-19" target="nzXPx3cfkU8LYWl3NEx1-15" edge="1">
          <mxGeometry relative="1" as="geometry" />
        </mxCell>
        <mxCell id="nzXPx3cfkU8LYWl3NEx1-19" value="Subnet (AZ-2)" style="sketch=0;outlineConnect=0;gradientColor=none;html=1;whiteSpace=wrap;fontSize=12;fontStyle=0;shape=mxgraph.aws4.group;grIcon=mxgraph.aws4.group_subnet;strokeColor=#879196;fillColor=none;verticalAlign=top;align=left;spacingLeft=30;fontColor=#879196;dashed=0;" parent="nzXPx3cfkU8LYWl3NEx1-14" vertex="1">
          <mxGeometry x="80" y="110" width="130" height="90" as="geometry" />
        </mxCell>
        <mxCell id="nzXPx3cfkU8LYWl3NEx1-20" style="edgeStyle=orthogonalEdgeStyle;rounded=0;orthogonalLoop=1;jettySize=auto;html=1;fontSize=12;startArrow=classic;startFill=1;" parent="nzXPx3cfkU8LYWl3NEx1-14" source="nzXPx3cfkU8LYWl3NEx1-18" target="nzXPx3cfkU8LYWl3NEx1-15" edge="1">
          <mxGeometry relative="1" as="geometry" />
        </mxCell>
        <mxCell id="nzXPx3cfkU8LYWl3NEx1-18" value="Subnet (AZ-1)" style="sketch=0;outlineConnect=0;gradientColor=none;html=1;whiteSpace=wrap;fontSize=12;fontStyle=0;shape=mxgraph.aws4.group;grIcon=mxgraph.aws4.group_subnet;strokeColor=#879196;fillColor=none;verticalAlign=top;align=left;spacingLeft=30;fontColor=#879196;dashed=0;" parent="nzXPx3cfkU8LYWl3NEx1-14" vertex="1">
          <mxGeometry x="80" y="6.75" width="130" height="93.25" as="geometry" />
        </mxCell>
        <mxCell id="nzXPx3cfkU8LYWl3NEx1-22" value="On-Premise" style="sketch=0;outlineConnect=0;gradientColor=none;html=1;whiteSpace=wrap;fontSize=12;fontStyle=0;shape=mxgraph.aws4.group;grIcon=mxgraph.aws4.group_on_premise;strokeColor=#858B94;fillColor=none;verticalAlign=top;align=left;spacingLeft=30;fontColor=#858B94;dashed=0;" parent="1" vertex="1">
          <mxGeometry x="700" y="-1720" width="310" height="270" as="geometry" />
        </mxCell>
        <mxCell id="nzXPx3cfkU8LYWl3NEx1-24" value="Direct Connect" style="sketch=0;points=[[0,0,0],[0.25,0,0],[0.5,0,0],[0.75,0,0],[1,0,0],[0,1,0],[0.25,1,0],[0.5,1,0],[0.75,1,0],[1,1,0],[0,0.25,0],[0,0.5,0],[0,0.75,0],[1,0.25,0],[1,0.5,0],[1,0.75,0]];outlineConnect=0;fontColor=#232F3E;gradientColor=#945DF2;gradientDirection=north;fillColor=#5A30B5;strokeColor=#ffffff;dashed=0;verticalLabelPosition=bottom;verticalAlign=top;align=center;html=1;fontSize=10;fontStyle=0;aspect=fixed;shape=mxgraph.aws4.resourceIcon;resIcon=mxgraph.aws4.direct_connect;" parent="1" vertex="1">
          <mxGeometry x="618" y="-1648" width="38" height="38" as="geometry" />
        </mxCell>
        <mxCell id="nzXPx3cfkU8LYWl3NEx1-25" value="Internet" style="aspect=fixed;perimeter=ellipsePerimeter;html=1;align=center;shadow=0;dashed=0;spacingTop=3;image;image=img/lib/active_directory/internet_cloud.svg;strokeColor=default;fontSize=10;fillColor=none;" parent="1" vertex="1">
          <mxGeometry x="613" y="-1570" width="50" height="31.5" as="geometry" />
        </mxCell>
        <mxCell id="nzXPx3cfkU8LYWl3NEx1-34" style="edgeStyle=orthogonalEdgeStyle;rounded=0;orthogonalLoop=1;jettySize=auto;html=1;entryX=0;entryY=0.5;entryDx=0;entryDy=0;fontSize=10;startArrow=classic;startFill=1;" parent="1" source="nzXPx3cfkU8LYWl3NEx1-26" target="nzXPx3cfkU8LYWl3NEx1-27" edge="1">
          <mxGeometry relative="1" as="geometry" />
        </mxCell>
        <mxCell id="nzXPx3cfkU8LYWl3NEx1-35" style="edgeStyle=orthogonalEdgeStyle;rounded=0;orthogonalLoop=1;jettySize=auto;html=1;entryX=0;entryY=0.5;entryDx=0;entryDy=0;fontSize=10;startArrow=classic;startFill=1;" parent="1" source="nzXPx3cfkU8LYWl3NEx1-26" target="nzXPx3cfkU8LYWl3NEx1-32" edge="1">
          <mxGeometry relative="1" as="geometry" />
        </mxCell>
        <mxCell id="nzXPx3cfkU8LYWl3NEx1-26" value="XKS&lt;br&gt;Proxy&lt;br&gt;(PKCS #11 interface)" style="text;html=1;strokeColor=#82b366;fillColor=#d5e8d4;align=center;verticalAlign=middle;whiteSpace=wrap;rounded=0;fontSize=12;fontStyle=1" parent="1" vertex="1">
          <mxGeometry x="730" y="-1649" width="80" height="128" as="geometry" />
        </mxCell>
        <mxCell id="nzXPx3cfkU8LYWl3NEx1-30" value="" style="group" parent="1" vertex="1" connectable="0">
          <mxGeometry x="862" y="-1694" width="120" height="108" as="geometry" />
        </mxCell>
        <mxCell id="nzXPx3cfkU8LYWl3NEx1-27" value="External HSM" style="text;html=1;strokeColor=#82b366;fillColor=#d5e8d4;align=center;verticalAlign=middle;whiteSpace=wrap;rounded=0;fontSize=12;fontStyle=1" parent="nzXPx3cfkU8LYWl3NEx1-30" vertex="1">
          <mxGeometry x="1" width="120" height="108" as="geometry" />
        </mxCell>
        <mxCell id="nzXPx3cfkU8LYWl3NEx1-28" value="" style="sketch=0;pointerEvents=1;shadow=0;dashed=0;html=1;strokeColor=none;labelPosition=center;verticalLabelPosition=bottom;verticalAlign=top;outlineConnect=0;align=center;shape=mxgraph.office.security.key_permissions;fillColor=#7FBA42;fontSize=10;rotation=90;" parent="nzXPx3cfkU8LYWl3NEx1-30" vertex="1">
          <mxGeometry x="45" y="-2" width="25" height="53" as="geometry" />
        </mxCell>
        <mxCell id="nzXPx3cfkU8LYWl3NEx1-31" value="" style="group" parent="1" vertex="1" connectable="0">
          <mxGeometry x="863" y="-1578" width="120" height="108" as="geometry" />
        </mxCell>
        <mxCell id="nzXPx3cfkU8LYWl3NEx1-32" value="External HSM" style="text;html=1;strokeColor=#82b366;fillColor=#d5e8d4;align=center;verticalAlign=middle;whiteSpace=wrap;rounded=0;fontSize=12;fontStyle=1" parent="nzXPx3cfkU8LYWl3NEx1-31" vertex="1">
          <mxGeometry x="1" width="120" height="108" as="geometry" />
        </mxCell>
        <mxCell id="nzXPx3cfkU8LYWl3NEx1-33" value="" style="sketch=0;pointerEvents=1;shadow=0;dashed=0;html=1;strokeColor=none;labelPosition=center;verticalLabelPosition=bottom;verticalAlign=top;outlineConnect=0;align=center;shape=mxgraph.office.security.key_permissions;fillColor=#7FBA42;fontSize=10;rotation=90;" parent="nzXPx3cfkU8LYWl3NEx1-31" vertex="1">
          <mxGeometry x="45" y="-2" width="25" height="53" as="geometry" />
        </mxCell>
        <mxCell id="nzXPx3cfkU8LYWl3NEx1-36" value="&lt;ul style=&quot;font-size: 11px;&quot;&gt;&lt;li style=&quot;font-size: 11px;&quot;&gt;&lt;b&gt;Server-side&lt;/b&gt; encryption with keys that are stored &lt;b&gt;outside of AWS&lt;/b&gt;&lt;/li&gt;&lt;li style=&quot;font-size: 11px;&quot;&gt;XKS feature of KMS translate KMS calls to PKCS #11 calls&lt;/li&gt;&lt;li style=&quot;font-size: 11px;&quot;&gt;External Key Store Examples (not exhaustive) :&amp;nbsp;&lt;/li&gt;&lt;ul style=&quot;font-size: 11px;&quot;&gt;&lt;li style=&quot;font-size: 11px;&quot;&gt;Thales&lt;/li&gt;&lt;li style=&quot;font-size: 11px;&quot;&gt;Fortanix&lt;/li&gt;&lt;li style=&quot;font-size: 11px;&quot;&gt;Hashicorp&lt;/li&gt;&lt;li style=&quot;font-size: 11px;&quot;&gt;T-systems&lt;/li&gt;&lt;li style=&quot;font-size: 11px;&quot;&gt;SalesForce&lt;/li&gt;&lt;li style=&quot;font-size: 11px;&quot;&gt;...&lt;/li&gt;&lt;/ul&gt;&lt;li style=&quot;font-size: 11px;&quot;&gt;Customer have to manage scalability, latency, availability, durability, etc...&lt;/li&gt;&lt;li style=&quot;font-size: 11px;&quot;&gt;If connectivity is lost, services will cease to function. If the key was cached (S3 bucket keys for ex.), operations will continue until the key expires.&lt;/li&gt;&lt;li style=&quot;font-size: 11px;&quot;&gt;AWS recommends to use this feature only on data that have high compliance requirements&lt;/li&gt;&lt;/ul&gt;" style="text;html=1;strokeColor=none;fillColor=none;align=left;verticalAlign=middle;whiteSpace=wrap;rounded=0;fontSize=11;" parent="1" vertex="1">
          <mxGeometry x="60" y="-1923" width="560" height="170" as="geometry" />
        </mxCell>
      </root>
    </mxGraphModel>
  </diagram>
  <diagram id="TgCZ2NPSGXFx7-jZZoHG" name="Module 10 - Large Scale Data Stores">
    <mxGraphModel dx="1036" dy="3040" grid="1" gridSize="10" guides="1" tooltips="1" connect="1" arrows="1" fold="1" page="1" pageScale="1" pageWidth="827" pageHeight="1169" math="0" shadow="0">
      <root>
        <mxCell id="0" />
        <mxCell id="1" parent="0" />
        <mxCell id="zYzWYzy83fE7Cqr0joHZ-1" value="Lake Formation Data Mesh Architecture" style="text;html=1;strokeColor=none;fillColor=none;align=center;verticalAlign=middle;whiteSpace=wrap;rounded=0;fontSize=16;fontColor=#000000;fontStyle=1" parent="1" vertex="1">
          <mxGeometry x="60" y="-1960" width="360" height="30" as="geometry" />
        </mxCell>
        <mxCell id="zYzWYzy83fE7Cqr0joHZ-2" value="Producer Account" style="points=[[0,0],[0.25,0],[0.5,0],[0.75,0],[1,0],[1,0.25],[1,0.5],[1,0.75],[1,1],[0.75,1],[0.5,1],[0.25,1],[0,1],[0,0.75],[0,0.5],[0,0.25]];outlineConnect=0;gradientColor=none;html=1;whiteSpace=wrap;fontSize=12;fontStyle=0;container=1;pointerEvents=0;collapsible=0;recursiveResize=0;shape=mxgraph.aws4.group;grIcon=mxgraph.aws4.group_account;strokeColor=#CD2264;fillColor=none;verticalAlign=top;align=left;spacingLeft=30;fontColor=#CD2264;dashed=0;" parent="1" vertex="1">
          <mxGeometry y="-1720" width="290" height="270" as="geometry" />
        </mxCell>
        <mxCell id="zYzWYzy83fE7Cqr0joHZ-6" value="S3" style="sketch=0;outlineConnect=0;fontColor=#232F3E;gradientColor=none;fillColor=#3F8624;strokeColor=none;dashed=0;verticalLabelPosition=bottom;verticalAlign=top;align=center;html=1;fontSize=10;fontStyle=0;aspect=fixed;pointerEvents=1;shape=mxgraph.aws4.bucket_with_objects;" parent="zYzWYzy83fE7Cqr0joHZ-2" vertex="1">
          <mxGeometry x="31.5" y="68.4" width="35" height="36.4" as="geometry" />
        </mxCell>
        <mxCell id="zYzWYzy83fE7Cqr0joHZ-8" value="Redshift" style="sketch=0;points=[[0,0,0],[0.25,0,0],[0.5,0,0],[0.75,0,0],[1,0,0],[0,1,0],[0.25,1,0],[0.5,1,0],[0.75,1,0],[1,1,0],[0,0.25,0],[0,0.5,0],[0,0.75,0],[1,0.25,0],[1,0.5,0],[1,0.75,0]];outlineConnect=0;fontColor=#232F3E;gradientColor=#945DF2;gradientDirection=north;fillColor=#5A30B5;strokeColor=#ffffff;dashed=0;verticalLabelPosition=bottom;verticalAlign=top;align=center;html=1;fontSize=10;fontStyle=0;aspect=fixed;shape=mxgraph.aws4.resourceIcon;resIcon=mxgraph.aws4.redshift;" parent="zYzWYzy83fE7Cqr0joHZ-2" vertex="1">
          <mxGeometry x="100" y="68.4" width="38" height="38" as="geometry" />
        </mxCell>
        <mxCell id="zYzWYzy83fE7Cqr0joHZ-16" style="edgeStyle=orthogonalEdgeStyle;rounded=0;orthogonalLoop=1;jettySize=auto;html=1;entryX=0;entryY=0.5;entryDx=0;entryDy=0;entryPerimeter=0;fontSize=10;startArrow=none;startFill=0;" parent="zYzWYzy83fE7Cqr0joHZ-2" source="zYzWYzy83fE7Cqr0joHZ-9" target="zYzWYzy83fE7Cqr0joHZ-10" edge="1">
          <mxGeometry relative="1" as="geometry" />
        </mxCell>
        <mxCell id="zYzWYzy83fE7Cqr0joHZ-9" value="Glue Data Catalog" style="sketch=0;outlineConnect=0;fontColor=#232F3E;gradientColor=none;fillColor=#4D27AA;strokeColor=none;dashed=0;verticalLabelPosition=bottom;verticalAlign=top;align=center;html=1;fontSize=10;fontStyle=0;aspect=fixed;pointerEvents=1;shape=mxgraph.aws4.glue_data_catalog;" parent="zYzWYzy83fE7Cqr0joHZ-2" vertex="1">
          <mxGeometry x="110" y="178" width="42" height="45.5" as="geometry" />
        </mxCell>
        <mxCell id="zYzWYzy83fE7Cqr0joHZ-10" value="Lake Formation" style="sketch=0;points=[[0,0,0],[0.25,0,0],[0.5,0,0],[0.75,0,0],[1,0,0],[0,1,0],[0.25,1,0],[0.5,1,0],[0.75,1,0],[1,1,0],[0,0.25,0],[0,0.5,0],[0,0.75,0],[1,0.25,0],[1,0.5,0],[1,0.75,0]];outlineConnect=0;fontColor=#232F3E;gradientColor=#945DF2;gradientDirection=north;fillColor=#5A30B5;strokeColor=#ffffff;dashed=0;verticalLabelPosition=bottom;verticalAlign=top;align=center;html=1;fontSize=10;fontStyle=0;aspect=fixed;shape=mxgraph.aws4.resourceIcon;resIcon=mxgraph.aws4.lake_formation;" parent="zYzWYzy83fE7Cqr0joHZ-2" vertex="1">
          <mxGeometry x="200" y="181" width="38" height="38" as="geometry" />
        </mxCell>
        <mxCell id="zYzWYzy83fE7Cqr0joHZ-12" style="edgeStyle=orthogonalEdgeStyle;rounded=0;orthogonalLoop=1;jettySize=auto;html=1;fontSize=10;startArrow=none;startFill=0;" parent="zYzWYzy83fE7Cqr0joHZ-2" source="zYzWYzy83fE7Cqr0joHZ-11" target="zYzWYzy83fE7Cqr0joHZ-6" edge="1">
          <mxGeometry relative="1" as="geometry" />
        </mxCell>
        <mxCell id="zYzWYzy83fE7Cqr0joHZ-14" style="edgeStyle=orthogonalEdgeStyle;rounded=0;orthogonalLoop=1;jettySize=auto;html=1;entryX=0.5;entryY=1;entryDx=0;entryDy=0;entryPerimeter=0;fontSize=10;startArrow=none;startFill=0;exitX=0.5;exitY=0;exitDx=0;exitDy=0;exitPerimeter=0;" parent="zYzWYzy83fE7Cqr0joHZ-2" source="zYzWYzy83fE7Cqr0joHZ-11" target="zYzWYzy83fE7Cqr0joHZ-8" edge="1">
          <mxGeometry relative="1" as="geometry" />
        </mxCell>
        <mxCell id="zYzWYzy83fE7Cqr0joHZ-15" style="edgeStyle=orthogonalEdgeStyle;rounded=0;orthogonalLoop=1;jettySize=auto;html=1;fontSize=10;startArrow=none;startFill=0;" parent="zYzWYzy83fE7Cqr0joHZ-2" source="zYzWYzy83fE7Cqr0joHZ-11" target="zYzWYzy83fE7Cqr0joHZ-9" edge="1">
          <mxGeometry relative="1" as="geometry" />
        </mxCell>
        <mxCell id="zYzWYzy83fE7Cqr0joHZ-11" value="Glue" style="sketch=0;points=[[0,0,0],[0.25,0,0],[0.5,0,0],[0.75,0,0],[1,0,0],[0,1,0],[0.25,1,0],[0.5,1,0],[0.75,1,0],[1,1,0],[0,0.25,0],[0,0.5,0],[0,0.75,0],[1,0.25,0],[1,0.5,0],[1,0.75,0]];outlineConnect=0;fontColor=#232F3E;gradientColor=#945DF2;gradientDirection=north;fillColor=#5A30B5;strokeColor=#ffffff;dashed=0;verticalLabelPosition=bottom;verticalAlign=top;align=center;html=1;fontSize=10;fontStyle=0;aspect=fixed;shape=mxgraph.aws4.resourceIcon;resIcon=mxgraph.aws4.glue;" parent="zYzWYzy83fE7Cqr0joHZ-2" vertex="1">
          <mxGeometry x="25" y="177.5" width="48" height="48" as="geometry" />
        </mxCell>
        <mxCell id="zYzWYzy83fE7Cqr0joHZ-3" value="Consumer Account" style="points=[[0,0],[0.25,0],[0.5,0],[0.75,0],[1,0],[1,0.25],[1,0.5],[1,0.75],[1,1],[0.75,1],[0.5,1],[0.25,1],[0,1],[0,0.75],[0,0.5],[0,0.25]];outlineConnect=0;gradientColor=none;html=1;whiteSpace=wrap;fontSize=12;fontStyle=0;container=1;pointerEvents=0;collapsible=0;recursiveResize=0;shape=mxgraph.aws4.group;grIcon=mxgraph.aws4.group_account;strokeColor=#CD2264;fillColor=none;verticalAlign=top;align=left;spacingLeft=30;fontColor=#CD2264;dashed=0;" parent="1" vertex="1">
          <mxGeometry x="620" y="-1720" width="290" height="270" as="geometry" />
        </mxCell>
        <mxCell id="zYzWYzy83fE7Cqr0joHZ-21" value="Athena" style="sketch=0;points=[[0,0,0],[0.25,0,0],[0.5,0,0],[0.75,0,0],[1,0,0],[0,1,0],[0.25,1,0],[0.5,1,0],[0.75,1,0],[1,1,0],[0,0.25,0],[0,0.5,0],[0,0.75,0],[1,0.25,0],[1,0.5,0],[1,0.75,0]];outlineConnect=0;fontColor=#232F3E;gradientColor=#945DF2;gradientDirection=north;fillColor=#5A30B5;strokeColor=#ffffff;dashed=0;verticalLabelPosition=bottom;verticalAlign=top;align=center;html=1;fontSize=10;fontStyle=0;aspect=fixed;shape=mxgraph.aws4.resourceIcon;resIcon=mxgraph.aws4.athena;" parent="zYzWYzy83fE7Cqr0joHZ-3" vertex="1">
          <mxGeometry x="60" y="66" width="34" height="34" as="geometry" />
        </mxCell>
        <mxCell id="zYzWYzy83fE7Cqr0joHZ-22" value="Redshift" style="sketch=0;points=[[0,0,0],[0.25,0,0],[0.5,0,0],[0.75,0,0],[1,0,0],[0,1,0],[0.25,1,0],[0.5,1,0],[0.75,1,0],[1,1,0],[0,0.25,0],[0,0.5,0],[0,0.75,0],[1,0.25,0],[1,0.5,0],[1,0.75,0]];outlineConnect=0;fontColor=#232F3E;gradientColor=#945DF2;gradientDirection=north;fillColor=#5A30B5;strokeColor=#ffffff;dashed=0;verticalLabelPosition=bottom;verticalAlign=top;align=center;html=1;fontSize=10;fontStyle=0;aspect=fixed;shape=mxgraph.aws4.resourceIcon;resIcon=mxgraph.aws4.redshift;" parent="zYzWYzy83fE7Cqr0joHZ-3" vertex="1">
          <mxGeometry x="112" y="66" width="34" height="34" as="geometry" />
        </mxCell>
        <mxCell id="zYzWYzy83fE7Cqr0joHZ-23" value="Glue" style="sketch=0;points=[[0,0,0],[0.25,0,0],[0.5,0,0],[0.75,0,0],[1,0,0],[0,1,0],[0.25,1,0],[0.5,1,0],[0.75,1,0],[1,1,0],[0,0.25,0],[0,0.5,0],[0,0.75,0],[1,0.25,0],[1,0.5,0],[1,0.75,0]];outlineConnect=0;fontColor=#232F3E;gradientColor=#945DF2;gradientDirection=north;fillColor=#5A30B5;strokeColor=#ffffff;dashed=0;verticalLabelPosition=bottom;verticalAlign=top;align=center;html=1;fontSize=10;fontStyle=0;aspect=fixed;shape=mxgraph.aws4.resourceIcon;resIcon=mxgraph.aws4.glue;" parent="zYzWYzy83fE7Cqr0joHZ-3" vertex="1">
          <mxGeometry x="160" y="66" width="34" height="34" as="geometry" />
        </mxCell>
        <mxCell id="zYzWYzy83fE7Cqr0joHZ-28" style="edgeStyle=orthogonalEdgeStyle;rounded=0;orthogonalLoop=1;jettySize=auto;html=1;entryX=0.5;entryY=1;entryDx=0;entryDy=0;entryPerimeter=0;fontSize=10;startArrow=none;startFill=0;" parent="zYzWYzy83fE7Cqr0joHZ-3" source="zYzWYzy83fE7Cqr0joHZ-25" target="zYzWYzy83fE7Cqr0joHZ-21" edge="1">
          <mxGeometry relative="1" as="geometry">
            <Array as="points">
              <mxPoint x="129" y="150" />
              <mxPoint x="77" y="150" />
            </Array>
          </mxGeometry>
        </mxCell>
        <mxCell id="zYzWYzy83fE7Cqr0joHZ-29" style="edgeStyle=orthogonalEdgeStyle;rounded=0;orthogonalLoop=1;jettySize=auto;html=1;entryX=0.5;entryY=1;entryDx=0;entryDy=0;entryPerimeter=0;fontSize=10;startArrow=none;startFill=0;" parent="zYzWYzy83fE7Cqr0joHZ-3" source="zYzWYzy83fE7Cqr0joHZ-25" target="zYzWYzy83fE7Cqr0joHZ-22" edge="1">
          <mxGeometry relative="1" as="geometry" />
        </mxCell>
        <mxCell id="zYzWYzy83fE7Cqr0joHZ-30" style="edgeStyle=orthogonalEdgeStyle;rounded=0;orthogonalLoop=1;jettySize=auto;html=1;entryX=0.5;entryY=1;entryDx=0;entryDy=0;entryPerimeter=0;fontSize=10;startArrow=none;startFill=0;" parent="zYzWYzy83fE7Cqr0joHZ-3" source="zYzWYzy83fE7Cqr0joHZ-25" target="zYzWYzy83fE7Cqr0joHZ-23" edge="1">
          <mxGeometry relative="1" as="geometry">
            <Array as="points">
              <mxPoint x="129" y="150" />
              <mxPoint x="177" y="150" />
            </Array>
          </mxGeometry>
        </mxCell>
        <mxCell id="zYzWYzy83fE7Cqr0joHZ-36" style="edgeStyle=orthogonalEdgeStyle;rounded=0;orthogonalLoop=1;jettySize=auto;html=1;entryX=0;entryY=0.5;entryDx=0;entryDy=0;entryPerimeter=0;fontSize=10;startArrow=none;startFill=0;" parent="zYzWYzy83fE7Cqr0joHZ-3" source="zYzWYzy83fE7Cqr0joHZ-25" target="zYzWYzy83fE7Cqr0joHZ-32" edge="1">
          <mxGeometry relative="1" as="geometry" />
        </mxCell>
        <mxCell id="zYzWYzy83fE7Cqr0joHZ-25" value="Glue Data Catalog" style="sketch=0;outlineConnect=0;fontColor=#232F3E;gradientColor=none;fillColor=#4D27AA;strokeColor=none;dashed=0;verticalLabelPosition=bottom;verticalAlign=top;align=center;html=1;fontSize=10;fontStyle=0;aspect=fixed;pointerEvents=1;shape=mxgraph.aws4.glue_data_catalog;" parent="zYzWYzy83fE7Cqr0joHZ-3" vertex="1">
          <mxGeometry x="108" y="176" width="42" height="45.5" as="geometry" />
        </mxCell>
        <mxCell id="zYzWYzy83fE7Cqr0joHZ-32" value="Lake Formation" style="sketch=0;points=[[0,0,0],[0.25,0,0],[0.5,0,0],[0.75,0,0],[1,0,0],[0,1,0],[0.25,1,0],[0.5,1,0],[0.75,1,0],[1,1,0],[0,0.25,0],[0,0.5,0],[0,0.75,0],[1,0.25,0],[1,0.5,0],[1,0.75,0]];outlineConnect=0;fontColor=#232F3E;gradientColor=#945DF2;gradientDirection=north;fillColor=#5A30B5;strokeColor=#ffffff;dashed=0;verticalLabelPosition=bottom;verticalAlign=top;align=center;html=1;fontSize=10;fontStyle=0;aspect=fixed;shape=mxgraph.aws4.resourceIcon;resIcon=mxgraph.aws4.lake_formation;" parent="zYzWYzy83fE7Cqr0joHZ-3" vertex="1">
          <mxGeometry x="220" y="179.75" width="38" height="38" as="geometry" />
        </mxCell>
        <mxCell id="zYzWYzy83fE7Cqr0joHZ-4" value="Governance Account" style="points=[[0,0],[0.25,0],[0.5,0],[0.75,0],[1,0],[1,0.25],[1,0.5],[1,0.75],[1,1],[0.75,1],[0.5,1],[0.25,1],[0,1],[0,0.75],[0,0.5],[0,0.25]];outlineConnect=0;gradientColor=none;html=1;whiteSpace=wrap;fontSize=12;fontStyle=0;container=1;pointerEvents=0;collapsible=0;recursiveResize=0;shape=mxgraph.aws4.group;grIcon=mxgraph.aws4.group_account;strokeColor=#CD2264;fillColor=none;verticalAlign=top;align=left;spacingLeft=30;fontColor=#CD2264;dashed=0;" parent="1" vertex="1">
          <mxGeometry x="320" y="-1720" width="260" height="270" as="geometry" />
        </mxCell>
        <mxCell id="zYzWYzy83fE7Cqr0joHZ-19" style="edgeStyle=orthogonalEdgeStyle;rounded=0;orthogonalLoop=1;jettySize=auto;html=1;entryX=0.5;entryY=1;entryDx=0;entryDy=0;entryPerimeter=0;fontSize=10;startArrow=none;startFill=0;" parent="zYzWYzy83fE7Cqr0joHZ-4" source="zYzWYzy83fE7Cqr0joHZ-17" target="zYzWYzy83fE7Cqr0joHZ-18" edge="1">
          <mxGeometry relative="1" as="geometry" />
        </mxCell>
        <mxCell id="zYzWYzy83fE7Cqr0joHZ-17" value="Glue Data Catalog" style="sketch=0;outlineConnect=0;fontColor=#232F3E;gradientColor=none;fillColor=#4D27AA;strokeColor=none;dashed=0;verticalLabelPosition=bottom;verticalAlign=top;align=center;html=1;fontSize=10;fontStyle=0;aspect=fixed;pointerEvents=1;shape=mxgraph.aws4.glue_data_catalog;" parent="zYzWYzy83fE7Cqr0joHZ-4" vertex="1">
          <mxGeometry x="105" y="176" width="42" height="45.5" as="geometry" />
        </mxCell>
        <mxCell id="zYzWYzy83fE7Cqr0joHZ-18" value="Lake Formation" style="sketch=0;points=[[0,0,0],[0.25,0,0],[0.5,0,0],[0.75,0,0],[1,0,0],[0,1,0],[0.25,1,0],[0.5,1,0],[0.75,1,0],[1,1,0],[0,0.25,0],[0,0.5,0],[0,0.75,0],[1,0.25,0],[1,0.5,0],[1,0.75,0]];outlineConnect=0;fontColor=#232F3E;gradientColor=#945DF2;gradientDirection=north;fillColor=#5A30B5;strokeColor=#ffffff;dashed=0;verticalLabelPosition=bottom;verticalAlign=top;align=center;html=1;fontSize=10;fontStyle=0;aspect=fixed;shape=mxgraph.aws4.resourceIcon;resIcon=mxgraph.aws4.lake_formation;" parent="zYzWYzy83fE7Cqr0joHZ-4" vertex="1">
          <mxGeometry x="107" y="100" width="38" height="38" as="geometry" />
        </mxCell>
        <mxCell id="zYzWYzy83fE7Cqr0joHZ-20" value="Share Tables" style="edgeStyle=orthogonalEdgeStyle;rounded=0;orthogonalLoop=1;jettySize=auto;html=1;fontSize=10;startArrow=classic;startFill=1;" parent="1" source="zYzWYzy83fE7Cqr0joHZ-10" target="zYzWYzy83fE7Cqr0joHZ-17" edge="1">
          <mxGeometry relative="1" as="geometry" />
        </mxCell>
        <mxCell id="zYzWYzy83fE7Cqr0joHZ-31" value="Share Tables" style="edgeStyle=orthogonalEdgeStyle;rounded=0;orthogonalLoop=1;jettySize=auto;html=1;fontSize=10;startArrow=classic;startFill=1;" parent="1" source="zYzWYzy83fE7Cqr0joHZ-17" target="zYzWYzy83fE7Cqr0joHZ-25" edge="1">
          <mxGeometry relative="1" as="geometry" />
        </mxCell>
        <mxCell id="zYzWYzy83fE7Cqr0joHZ-37" value="&lt;ul&gt;&lt;li&gt;Central catalog updated from each data domain&lt;/li&gt;&lt;li&gt;Manage access to consumers&lt;/li&gt;&lt;/ul&gt;" style="text;html=1;strokeColor=none;fillColor=none;align=left;verticalAlign=middle;whiteSpace=wrap;rounded=0;fontSize=10;" parent="1" vertex="1">
          <mxGeometry x="300" y="-1440" width="270" height="30" as="geometry" />
        </mxCell>
        <mxCell id="zYzWYzy83fE7Cqr0joHZ-38" value="&lt;ul&gt;&lt;li&gt;Classify data&lt;/li&gt;&lt;li&gt;Publish data to central catalog&lt;/li&gt;&lt;/ul&gt;" style="text;html=1;strokeColor=none;fillColor=none;align=left;verticalAlign=middle;whiteSpace=wrap;rounded=0;fontSize=10;" parent="1" vertex="1">
          <mxGeometry y="-1440" width="270" height="30" as="geometry" />
        </mxCell>
        <mxCell id="zYzWYzy83fE7Cqr0joHZ-39" value="&lt;ul&gt;&lt;li&gt;Get Access from Governance on tables that belongs to multiple domains&lt;/li&gt;&lt;li&gt;Build cross domain views for specific use cases&lt;/li&gt;&lt;/ul&gt;" style="text;html=1;strokeColor=none;fillColor=none;align=left;verticalAlign=middle;whiteSpace=wrap;rounded=0;fontSize=10;" parent="1" vertex="1">
          <mxGeometry x="603" y="-1440" width="290" height="30" as="geometry" />
        </mxCell>
        <mxCell id="zYzWYzy83fE7Cqr0joHZ-40" value="&lt;ul style=&quot;font-size: 12px;&quot;&gt;&lt;li style=&quot;font-size: 12px;&quot;&gt;Data Mesh is a pattern that decentralizes data production&lt;/li&gt;&lt;li style=&quot;font-size: 12px;&quot;&gt;Each domain publishes its data to consumers&lt;/li&gt;&lt;li style=&quot;font-size: 12px;&quot;&gt;Data Mesh architecture creates a unique enterprise data catalog and data accesses are managed by a centralized governance entity&lt;/li&gt;&lt;li style=&quot;font-size: 12px;&quot;&gt;Data sharing can also works for peer-to-peer (without governance in the middle). Can be used by smaller size enterprises. Data mesh is more complex to handle but scales better.&lt;/li&gt;&lt;/ul&gt;" style="text;html=1;strokeColor=none;fillColor=none;align=left;verticalAlign=middle;whiteSpace=wrap;rounded=0;fontSize=12;" parent="1" vertex="1">
          <mxGeometry x="50" y="-1910" width="560" height="130" as="geometry" />
        </mxCell>
      </root>
    </mxGraphModel>
  </diagram>
  <diagram id="cpH_xuy0J3W2Q-3TSj0c" name="Module 11 : Migrating Workloads">
    <mxGraphModel dx="1036" dy="702" grid="1" gridSize="10" guides="1" tooltips="1" connect="1" arrows="1" fold="1" page="1" pageScale="1" pageWidth="827" pageHeight="1169" math="0" shadow="0">
      <root>
        <mxCell id="0" />
        <mxCell id="1" parent="0" />
        <mxCell id="iSR1QwnA4bNmtFupJBjT-1" value="On-Premise" style="sketch=0;outlineConnect=0;gradientColor=none;html=1;whiteSpace=wrap;fontSize=12;fontStyle=0;shape=mxgraph.aws4.group;grIcon=mxgraph.aws4.group_on_premise;strokeColor=#858B94;fillColor=none;verticalAlign=top;align=left;spacingLeft=30;fontColor=#858B94;dashed=0;" parent="1" vertex="1">
          <mxGeometry x="160" y="90" width="550" height="280" as="geometry" />
        </mxCell>
        <mxCell id="iSR1QwnA4bNmtFupJBjT-2" value="Windows Server" style="sketch=0;outlineConnect=0;gradientColor=none;html=1;whiteSpace=wrap;fontSize=12;fontStyle=0;shape=mxgraph.aws4.group;grIcon=mxgraph.aws4.group_on_premise;strokeColor=#AAB7B8;fillColor=none;verticalAlign=top;align=left;spacingLeft=30;fontColor=#AAB7B8;dashed=0;" parent="1" vertex="1">
          <mxGeometry x="180" y="140" width="280" height="210" as="geometry" />
        </mxCell>
        <mxCell id="iSR1QwnA4bNmtFupJBjT-10" style="edgeStyle=orthogonalEdgeStyle;rounded=0;orthogonalLoop=1;jettySize=auto;html=1;fontSize=12;startArrow=none;startFill=0;" parent="1" source="iSR1QwnA4bNmtFupJBjT-4" target="iSR1QwnA4bNmtFupJBjT-5" edge="1">
          <mxGeometry relative="1" as="geometry" />
        </mxCell>
        <mxCell id="iSR1QwnA4bNmtFupJBjT-21" style="edgeStyle=orthogonalEdgeStyle;rounded=0;orthogonalLoop=1;jettySize=auto;html=1;fontSize=12;startArrow=none;startFill=0;" parent="1" source="iSR1QwnA4bNmtFupJBjT-4" target="iSR1QwnA4bNmtFupJBjT-11" edge="1">
          <mxGeometry relative="1" as="geometry">
            <Array as="points">
              <mxPoint x="510" y="199" />
            </Array>
          </mxGeometry>
        </mxCell>
        <mxCell id="iSR1QwnA4bNmtFupJBjT-22" style="edgeStyle=orthogonalEdgeStyle;rounded=0;orthogonalLoop=1;jettySize=auto;html=1;fontSize=12;startArrow=none;startFill=0;" parent="1" source="iSR1QwnA4bNmtFupJBjT-4" target="iSR1QwnA4bNmtFupJBjT-17" edge="1">
          <mxGeometry relative="1" as="geometry">
            <Array as="points">
              <mxPoint x="510" y="199" />
            </Array>
          </mxGeometry>
        </mxCell>
        <mxCell id="iSR1QwnA4bNmtFupJBjT-23" style="edgeStyle=orthogonalEdgeStyle;rounded=0;orthogonalLoop=1;jettySize=auto;html=1;fontSize=12;startArrow=none;startFill=0;" parent="1" source="iSR1QwnA4bNmtFupJBjT-4" target="iSR1QwnA4bNmtFupJBjT-14" edge="1">
          <mxGeometry relative="1" as="geometry">
            <Array as="points">
              <mxPoint x="553" y="199" />
            </Array>
          </mxGeometry>
        </mxCell>
        <mxCell id="iSR1QwnA4bNmtFupJBjT-24" style="edgeStyle=orthogonalEdgeStyle;rounded=0;orthogonalLoop=1;jettySize=auto;html=1;fontSize=12;startArrow=none;startFill=0;" parent="1" source="iSR1QwnA4bNmtFupJBjT-4" target="iSR1QwnA4bNmtFupJBjT-18" edge="1">
          <mxGeometry relative="1" as="geometry">
            <Array as="points">
              <mxPoint x="553" y="199" />
            </Array>
          </mxGeometry>
        </mxCell>
        <mxCell id="iSR1QwnA4bNmtFupJBjT-25" style="edgeStyle=orthogonalEdgeStyle;rounded=0;orthogonalLoop=1;jettySize=auto;html=1;fontSize=12;startArrow=none;startFill=0;" parent="1" source="iSR1QwnA4bNmtFupJBjT-4" target="iSR1QwnA4bNmtFupJBjT-15" edge="1">
          <mxGeometry relative="1" as="geometry">
            <Array as="points">
              <mxPoint x="593" y="199" />
            </Array>
          </mxGeometry>
        </mxCell>
        <mxCell id="iSR1QwnA4bNmtFupJBjT-26" style="edgeStyle=orthogonalEdgeStyle;rounded=0;orthogonalLoop=1;jettySize=auto;html=1;fontSize=12;startArrow=none;startFill=0;" parent="1" source="iSR1QwnA4bNmtFupJBjT-4" target="iSR1QwnA4bNmtFupJBjT-19" edge="1">
          <mxGeometry relative="1" as="geometry">
            <Array as="points">
              <mxPoint x="593" y="199" />
            </Array>
          </mxGeometry>
        </mxCell>
        <mxCell id="iSR1QwnA4bNmtFupJBjT-27" style="edgeStyle=orthogonalEdgeStyle;rounded=0;orthogonalLoop=1;jettySize=auto;html=1;fontSize=12;startArrow=none;startFill=0;" parent="1" source="iSR1QwnA4bNmtFupJBjT-4" target="iSR1QwnA4bNmtFupJBjT-16" edge="1">
          <mxGeometry relative="1" as="geometry">
            <Array as="points">
              <mxPoint x="633" y="199" />
            </Array>
          </mxGeometry>
        </mxCell>
        <mxCell id="iSR1QwnA4bNmtFupJBjT-28" style="edgeStyle=orthogonalEdgeStyle;rounded=0;orthogonalLoop=1;jettySize=auto;html=1;fontSize=12;startArrow=none;startFill=0;" parent="1" source="iSR1QwnA4bNmtFupJBjT-4" target="iSR1QwnA4bNmtFupJBjT-20" edge="1">
          <mxGeometry relative="1" as="geometry">
            <Array as="points">
              <mxPoint x="633" y="199" />
            </Array>
          </mxGeometry>
        </mxCell>
        <mxCell id="iSR1QwnA4bNmtFupJBjT-4" value="Collector" style="sketch=0;points=[[0,0,0],[0.25,0,0],[0.5,0,0],[0.75,0,0],[1,0,0],[0,1,0],[0.25,1,0],[0.5,1,0],[0.75,1,0],[1,1,0],[0,0.25,0],[0,0.5,0],[0,0.75,0],[1,0.25,0],[1,0.5,0],[1,0.75,0]];outlineConnect=0;fontColor=#232F3E;gradientColor=#4AB29A;gradientDirection=north;fillColor=#116D5B;strokeColor=#ffffff;dashed=0;verticalLabelPosition=bottom;verticalAlign=top;align=center;html=1;fontSize=12;fontStyle=0;aspect=fixed;shape=mxgraph.aws4.resourceIcon;resIcon=mxgraph.aws4.migration_evaluator;" parent="1" vertex="1">
          <mxGeometry x="360" y="180" width="38" height="38" as="geometry" />
        </mxCell>
        <mxCell id="iSR1QwnA4bNmtFupJBjT-29" style="edgeStyle=orthogonalEdgeStyle;rounded=0;orthogonalLoop=1;jettySize=auto;html=1;fontSize=12;startArrow=none;startFill=0;" parent="1" source="iSR1QwnA4bNmtFupJBjT-5" target="iSR1QwnA4bNmtFupJBjT-9" edge="1">
          <mxGeometry relative="1" as="geometry" />
        </mxCell>
        <mxCell id="iSR1QwnA4bNmtFupJBjT-5" value="Local DB" style="shape=cylinder3;whiteSpace=wrap;html=1;boundedLbl=1;backgroundOutline=1;size=15;strokeColor=default;fontSize=12;fillColor=none;" parent="1" vertex="1">
          <mxGeometry x="360" y="260" width="40" height="60" as="geometry" />
        </mxCell>
        <mxCell id="iSR1QwnA4bNmtFupJBjT-6" value="AWS Cloud" style="sketch=0;outlineConnect=0;gradientColor=none;html=1;whiteSpace=wrap;fontSize=12;fontStyle=0;shape=mxgraph.aws4.group;grIcon=mxgraph.aws4.group_aws_cloud;strokeColor=#AAB7B8;fillColor=none;verticalAlign=top;align=left;spacingLeft=30;fontColor=#AAB7B8;dashed=0;" parent="1" vertex="1">
          <mxGeometry x="160" y="430" width="480" height="260" as="geometry" />
        </mxCell>
        <mxCell id="iSR1QwnA4bNmtFupJBjT-7" value="Bucket" style="sketch=0;points=[[0,0,0],[0.25,0,0],[0.5,0,0],[0.75,0,0],[1,0,0],[0,1,0],[0.25,1,0],[0.5,1,0],[0.75,1,0],[1,1,0],[0,0.25,0],[0,0.5,0],[0,0.75,0],[1,0.25,0],[1,0.5,0],[1,0.75,0]];outlineConnect=0;fontColor=#232F3E;gradientColor=#60A337;gradientDirection=north;fillColor=#277116;strokeColor=#ffffff;dashed=0;verticalLabelPosition=bottom;verticalAlign=top;align=center;html=1;fontSize=12;fontStyle=0;aspect=fixed;shape=mxgraph.aws4.resourceIcon;resIcon=mxgraph.aws4.s3;" parent="1" vertex="1">
          <mxGeometry x="260" y="500" width="38" height="38" as="geometry" />
        </mxCell>
        <mxCell id="iSR1QwnA4bNmtFupJBjT-32" style="edgeStyle=orthogonalEdgeStyle;rounded=0;orthogonalLoop=1;jettySize=auto;html=1;fontSize=12;startArrow=none;startFill=0;" parent="1" source="iSR1QwnA4bNmtFupJBjT-8" target="iSR1QwnA4bNmtFupJBjT-7" edge="1">
          <mxGeometry relative="1" as="geometry" />
        </mxCell>
        <mxCell id="iSR1QwnA4bNmtFupJBjT-8" value="Mgt Console" style="sketch=0;points=[[0,0,0],[0.25,0,0],[0.5,0,0],[0.75,0,0],[1,0,0],[0,1,0],[0.25,1,0],[0.5,1,0],[0.75,1,0],[1,1,0],[0,0.25,0],[0,0.5,0],[0,0.75,0],[1,0.25,0],[1,0.5,0],[1,0.75,0]];outlineConnect=0;fontColor=#232F3E;gradientColor=#4AB29A;gradientDirection=north;fillColor=#116D5B;strokeColor=#ffffff;dashed=0;verticalLabelPosition=bottom;verticalAlign=top;align=center;html=1;fontSize=12;fontStyle=0;aspect=fixed;shape=mxgraph.aws4.resourceIcon;resIcon=mxgraph.aws4.migration_evaluator;" parent="1" vertex="1">
          <mxGeometry x="422" y="500" width="38" height="38" as="geometry" />
        </mxCell>
        <mxCell id="iSR1QwnA4bNmtFupJBjT-30" style="edgeStyle=orthogonalEdgeStyle;rounded=0;orthogonalLoop=1;jettySize=auto;html=1;entryX=0;entryY=0.5;entryDx=0;entryDy=0;entryPerimeter=0;fontSize=12;startArrow=none;startFill=0;" parent="1" source="iSR1QwnA4bNmtFupJBjT-9" target="iSR1QwnA4bNmtFupJBjT-7" edge="1">
          <mxGeometry relative="1" as="geometry">
            <Array as="points">
              <mxPoint x="216" y="519" />
            </Array>
          </mxGeometry>
        </mxCell>
        <mxCell id="iSR1QwnA4bNmtFupJBjT-38" style="edgeStyle=orthogonalEdgeStyle;rounded=0;orthogonalLoop=1;jettySize=auto;html=1;entryX=0;entryY=0.5;entryDx=0;entryDy=0;entryPerimeter=0;fontSize=10;startArrow=none;startFill=0;" parent="1" source="iSR1QwnA4bNmtFupJBjT-9" target="iSR1QwnA4bNmtFupJBjT-36" edge="1">
          <mxGeometry relative="1" as="geometry">
            <Array as="points">
              <mxPoint x="216" y="603" />
            </Array>
          </mxGeometry>
        </mxCell>
        <mxCell id="iSR1QwnA4bNmtFupJBjT-9" value="Encrypted &lt;br&gt;data" style="sketch=0;outlineConnect=0;fontColor=#232F3E;gradientColor=none;fillColor=#BF0816;strokeColor=none;dashed=0;verticalLabelPosition=bottom;verticalAlign=top;align=center;html=1;fontSize=12;fontStyle=0;aspect=fixed;pointerEvents=1;shape=mxgraph.aws4.encrypted_data;" parent="1" vertex="1">
          <mxGeometry x="200" y="269.87" width="32" height="40.26" as="geometry" />
        </mxCell>
        <mxCell id="iSR1QwnA4bNmtFupJBjT-11" value="" style="sketch=0;outlineConnect=0;fontColor=#232F3E;gradientColor=none;fillColor=#232F3D;strokeColor=none;dashed=0;verticalLabelPosition=bottom;verticalAlign=top;align=center;html=1;fontSize=12;fontStyle=0;aspect=fixed;pointerEvents=1;shape=mxgraph.aws4.traditional_server;" parent="1" vertex="1">
          <mxGeometry x="500" y="136.67000000000002" width="25" height="43.33" as="geometry" />
        </mxCell>
        <mxCell id="iSR1QwnA4bNmtFupJBjT-14" value="" style="sketch=0;outlineConnect=0;fontColor=#232F3E;gradientColor=none;fillColor=#232F3D;strokeColor=none;dashed=0;verticalLabelPosition=bottom;verticalAlign=top;align=center;html=1;fontSize=12;fontStyle=0;aspect=fixed;pointerEvents=1;shape=mxgraph.aws4.traditional_server;" parent="1" vertex="1">
          <mxGeometry x="540" y="136.67000000000002" width="25" height="43.33" as="geometry" />
        </mxCell>
        <mxCell id="iSR1QwnA4bNmtFupJBjT-15" value="" style="sketch=0;outlineConnect=0;fontColor=#232F3E;gradientColor=none;fillColor=#232F3D;strokeColor=none;dashed=0;verticalLabelPosition=bottom;verticalAlign=top;align=center;html=1;fontSize=12;fontStyle=0;aspect=fixed;pointerEvents=1;shape=mxgraph.aws4.traditional_server;" parent="1" vertex="1">
          <mxGeometry x="580" y="136.67000000000002" width="25" height="43.33" as="geometry" />
        </mxCell>
        <mxCell id="iSR1QwnA4bNmtFupJBjT-16" value="" style="sketch=0;outlineConnect=0;fontColor=#232F3E;gradientColor=none;fillColor=#232F3D;strokeColor=none;dashed=0;verticalLabelPosition=bottom;verticalAlign=top;align=center;html=1;fontSize=12;fontStyle=0;aspect=fixed;pointerEvents=1;shape=mxgraph.aws4.traditional_server;" parent="1" vertex="1">
          <mxGeometry x="620" y="136.67000000000002" width="25" height="43.33" as="geometry" />
        </mxCell>
        <mxCell id="iSR1QwnA4bNmtFupJBjT-17" value="" style="sketch=0;outlineConnect=0;fontColor=#232F3E;gradientColor=none;fillColor=#232F3D;strokeColor=none;dashed=0;verticalLabelPosition=bottom;verticalAlign=top;align=center;html=1;fontSize=12;fontStyle=0;aspect=fixed;pointerEvents=1;shape=mxgraph.aws4.traditional_server;" parent="1" vertex="1">
          <mxGeometry x="500" y="215.33" width="25" height="43.33" as="geometry" />
        </mxCell>
        <mxCell id="iSR1QwnA4bNmtFupJBjT-18" value="" style="sketch=0;outlineConnect=0;fontColor=#232F3E;gradientColor=none;fillColor=#232F3D;strokeColor=none;dashed=0;verticalLabelPosition=bottom;verticalAlign=top;align=center;html=1;fontSize=12;fontStyle=0;aspect=fixed;pointerEvents=1;shape=mxgraph.aws4.traditional_server;" parent="1" vertex="1">
          <mxGeometry x="540" y="215.33" width="25" height="43.33" as="geometry" />
        </mxCell>
        <mxCell id="iSR1QwnA4bNmtFupJBjT-19" value="" style="sketch=0;outlineConnect=0;fontColor=#232F3E;gradientColor=none;fillColor=#232F3D;strokeColor=none;dashed=0;verticalLabelPosition=bottom;verticalAlign=top;align=center;html=1;fontSize=12;fontStyle=0;aspect=fixed;pointerEvents=1;shape=mxgraph.aws4.traditional_server;" parent="1" vertex="1">
          <mxGeometry x="580" y="215.33" width="25" height="43.33" as="geometry" />
        </mxCell>
        <mxCell id="iSR1QwnA4bNmtFupJBjT-20" value="" style="sketch=0;outlineConnect=0;fontColor=#232F3E;gradientColor=none;fillColor=#232F3D;strokeColor=none;dashed=0;verticalLabelPosition=bottom;verticalAlign=top;align=center;html=1;fontSize=12;fontStyle=0;aspect=fixed;pointerEvents=1;shape=mxgraph.aws4.traditional_server;" parent="1" vertex="1">
          <mxGeometry x="620" y="215.33" width="25" height="43.33" as="geometry" />
        </mxCell>
        <mxCell id="iSR1QwnA4bNmtFupJBjT-31" value="Optional Automatic Workflow" style="text;html=1;strokeColor=none;fillColor=none;align=center;verticalAlign=middle;whiteSpace=wrap;rounded=0;fontSize=12;fontStyle=2" parent="1" vertex="1">
          <mxGeometry x="150" y="380" width="60" height="30" as="geometry" />
        </mxCell>
        <mxCell id="iSR1QwnA4bNmtFupJBjT-34" style="edgeStyle=orthogonalEdgeStyle;rounded=0;orthogonalLoop=1;jettySize=auto;html=1;entryX=1;entryY=0.5;entryDx=0;entryDy=0;entryPerimeter=0;fontSize=12;startArrow=none;startFill=0;" parent="1" source="iSR1QwnA4bNmtFupJBjT-33" target="iSR1QwnA4bNmtFupJBjT-8" edge="1">
          <mxGeometry relative="1" as="geometry" />
        </mxCell>
        <mxCell id="iSR1QwnA4bNmtFupJBjT-40" style="edgeStyle=orthogonalEdgeStyle;rounded=0;orthogonalLoop=1;jettySize=auto;html=1;entryX=1;entryY=0.5;entryDx=0;entryDy=0;entryPerimeter=0;fontSize=10;startArrow=none;startFill=0;" parent="1" source="iSR1QwnA4bNmtFupJBjT-33" target="iSR1QwnA4bNmtFupJBjT-37" edge="1">
          <mxGeometry relative="1" as="geometry" />
        </mxCell>
        <mxCell id="iSR1QwnA4bNmtFupJBjT-33" value="IT Admin" style="sketch=0;outlineConnect=0;fontColor=#232F3E;gradientColor=none;fillColor=#232F3D;strokeColor=none;dashed=0;verticalLabelPosition=bottom;verticalAlign=top;align=center;html=1;fontSize=12;fontStyle=0;aspect=fixed;pointerEvents=1;shape=mxgraph.aws4.user;" parent="1" vertex="1">
          <mxGeometry x="570" y="290" width="40" height="40" as="geometry" />
        </mxCell>
        <mxCell id="iSR1QwnA4bNmtFupJBjT-35" value="Optional Manual Workflow" style="text;html=1;strokeColor=none;fillColor=none;align=center;verticalAlign=middle;whiteSpace=wrap;rounded=0;fontSize=12;fontStyle=2" parent="1" vertex="1">
          <mxGeometry x="454" y="384" width="60" height="30" as="geometry" />
        </mxCell>
        <mxCell id="iSR1QwnA4bNmtFupJBjT-39" style="edgeStyle=orthogonalEdgeStyle;rounded=0;orthogonalLoop=1;jettySize=auto;html=1;entryX=0;entryY=0.5;entryDx=0;entryDy=0;entryPerimeter=0;fontSize=10;startArrow=none;startFill=0;" parent="1" source="iSR1QwnA4bNmtFupJBjT-36" target="iSR1QwnA4bNmtFupJBjT-37" edge="1">
          <mxGeometry relative="1" as="geometry" />
        </mxCell>
        <mxCell id="iSR1QwnA4bNmtFupJBjT-36" value="Application &lt;br style=&quot;font-size: 10px;&quot;&gt;Discovery &lt;br style=&quot;font-size: 10px;&quot;&gt;Service" style="sketch=0;points=[[0,0,0],[0.25,0,0],[0.5,0,0],[0.75,0,0],[1,0,0],[0,1,0],[0.25,1,0],[0.5,1,0],[0.75,1,0],[1,1,0],[0,0.25,0],[0,0.5,0],[0,0.75,0],[1,0.25,0],[1,0.5,0],[1,0.75,0]];outlineConnect=0;fontColor=#232F3E;gradientColor=#4AB29A;gradientDirection=north;fillColor=#116D5B;strokeColor=#ffffff;dashed=0;verticalLabelPosition=bottom;verticalAlign=top;align=center;html=1;fontSize=10;fontStyle=0;aspect=fixed;shape=mxgraph.aws4.resourceIcon;resIcon=mxgraph.aws4.application_discovery_service;" parent="1" vertex="1">
          <mxGeometry x="264" y="585" width="35" height="35" as="geometry" />
        </mxCell>
        <mxCell id="iSR1QwnA4bNmtFupJBjT-37" value="Migration Hub" style="sketch=0;points=[[0,0,0],[0.25,0,0],[0.5,0,0],[0.75,0,0],[1,0,0],[0,1,0],[0.25,1,0],[0.5,1,0],[0.75,1,0],[1,1,0],[0,0.25,0],[0,0.5,0],[0,0.75,0],[1,0.25,0],[1,0.5,0],[1,0.75,0]];outlineConnect=0;fontColor=#232F3E;gradientColor=#4AB29A;gradientDirection=north;fillColor=#116D5B;strokeColor=#ffffff;dashed=0;verticalLabelPosition=bottom;verticalAlign=top;align=center;html=1;fontSize=10;fontStyle=0;aspect=fixed;shape=mxgraph.aws4.resourceIcon;resIcon=mxgraph.aws4.migration_hub;" parent="1" vertex="1">
          <mxGeometry x="422" y="583" width="40" height="40" as="geometry" />
        </mxCell>
      </root>
    </mxGraphModel>
  </diagram>
  <diagram id="IgenZPXN9xK-QF3MTWUQ" name="Module 13 : Architecting For The Edge">
    <mxGraphModel dx="1863" dy="1871" grid="1" gridSize="10" guides="1" tooltips="1" connect="1" arrows="1" fold="1" page="1" pageScale="1" pageWidth="827" pageHeight="1169" math="0" shadow="0">
      <root>
        <mxCell id="0" />
        <mxCell id="1" parent="0" />
        <mxCell id="K-5c89zvMybrpeLBYLSP-1" value="Global Accelerator Concepts" style="text;html=1;strokeColor=none;fillColor=none;align=center;verticalAlign=middle;whiteSpace=wrap;rounded=0;fontStyle=1;fontSize=14;" vertex="1" parent="1">
          <mxGeometry x="-30" y="-50" width="250" height="30" as="geometry" />
        </mxCell>
        <mxCell id="K-5c89zvMybrpeLBYLSP-5" value="" style="sketch=0;points=[[0,0,0],[0.25,0,0],[0.5,0,0],[0.75,0,0],[1,0,0],[0,1,0],[0.25,1,0],[0.5,1,0],[0.75,1,0],[1,1,0],[0,0.25,0],[0,0.5,0],[0,0.75,0],[1,0.25,0],[1,0.5,0],[1,0.75,0]];outlineConnect=0;fontColor=#232F3E;gradientColor=#945DF2;gradientDirection=north;fillColor=#5A30B5;strokeColor=#ffffff;dashed=0;verticalLabelPosition=bottom;verticalAlign=top;align=center;html=1;fontSize=12;fontStyle=0;aspect=fixed;shape=mxgraph.aws4.resourceIcon;resIcon=mxgraph.aws4.global_accelerator;" vertex="1" parent="1">
          <mxGeometry x="130" y="164" width="48" height="48" as="geometry" />
        </mxCell>
        <mxCell id="K-5c89zvMybrpeLBYLSP-6" value="us-east-1" style="points=[[0,0],[0.25,0],[0.5,0],[0.75,0],[1,0],[1,0.25],[1,0.5],[1,0.75],[1,1],[0.75,1],[0.5,1],[0.25,1],[0,1],[0,0.75],[0,0.5],[0,0.25]];outlineConnect=0;gradientColor=none;html=1;whiteSpace=wrap;fontSize=12;fontStyle=0;container=1;pointerEvents=0;collapsible=0;recursiveResize=0;shape=mxgraph.aws4.group;grIcon=mxgraph.aws4.group_region;strokeColor=#147EBA;fillColor=none;verticalAlign=top;align=left;spacingLeft=30;fontColor=#147EBA;dashed=1;" vertex="1" parent="1">
          <mxGeometry x="261" y="20" width="249" height="150" as="geometry" />
        </mxCell>
        <mxCell id="K-5c89zvMybrpeLBYLSP-11" value="" style="rounded=1;arcSize=10;dashed=1;fillColor=none;gradientColor=none;dashPattern=8 3 1 3;strokeWidth=2;strokeColor=default;fontSize=12;align=left;" vertex="1" parent="K-5c89zvMybrpeLBYLSP-6">
          <mxGeometry x="49" y="40" width="161" height="90" as="geometry" />
        </mxCell>
        <mxCell id="K-5c89zvMybrpeLBYLSP-14" value="Endpoint group 1.1 : dial 50%" style="text;html=1;strokeColor=none;fillColor=none;align=center;verticalAlign=middle;whiteSpace=wrap;rounded=0;fontSize=10;" vertex="1" parent="K-5c89zvMybrpeLBYLSP-6">
          <mxGeometry x="49" y="40" width="151" height="30" as="geometry" />
        </mxCell>
        <mxCell id="K-5c89zvMybrpeLBYLSP-17" value="ALB" style="sketch=0;outlineConnect=0;fontColor=#232F3E;gradientColor=none;fillColor=#4D27AA;strokeColor=none;dashed=0;verticalLabelPosition=bottom;verticalAlign=top;align=center;html=1;fontSize=10;fontStyle=0;aspect=fixed;pointerEvents=1;shape=mxgraph.aws4.application_load_balancer;" vertex="1" parent="K-5c89zvMybrpeLBYLSP-6">
          <mxGeometry x="113.25" y="73.75" width="32.5" height="32.5" as="geometry" />
        </mxCell>
        <mxCell id="K-5c89zvMybrpeLBYLSP-48" value="eu-west-1" style="points=[[0,0],[0.25,0],[0.5,0],[0.75,0],[1,0],[1,0.25],[1,0.5],[1,0.75],[1,1],[0.75,1],[0.5,1],[0.25,1],[0,1],[0,0.75],[0,0.5],[0,0.25]];outlineConnect=0;gradientColor=none;html=1;whiteSpace=wrap;fontSize=12;fontStyle=0;container=1;pointerEvents=0;collapsible=0;recursiveResize=0;shape=mxgraph.aws4.group;grIcon=mxgraph.aws4.group_region;strokeColor=#147EBA;fillColor=none;verticalAlign=top;align=left;spacingLeft=30;fontColor=#147EBA;dashed=1;" vertex="1" parent="1">
          <mxGeometry x="261" y="194" width="249" height="150" as="geometry" />
        </mxCell>
        <mxCell id="K-5c89zvMybrpeLBYLSP-49" value="" style="rounded=1;arcSize=10;dashed=1;fillColor=none;gradientColor=none;dashPattern=8 3 1 3;strokeWidth=2;strokeColor=default;fontSize=12;align=left;" vertex="1" parent="K-5c89zvMybrpeLBYLSP-48">
          <mxGeometry x="49" y="40" width="161" height="90" as="geometry" />
        </mxCell>
        <mxCell id="K-5c89zvMybrpeLBYLSP-50" value="Endpoint group 2.1 : dial 50%" style="text;html=1;strokeColor=none;fillColor=none;align=center;verticalAlign=middle;whiteSpace=wrap;rounded=0;fontSize=10;" vertex="1" parent="K-5c89zvMybrpeLBYLSP-48">
          <mxGeometry x="49" y="40" width="151" height="30" as="geometry" />
        </mxCell>
        <mxCell id="K-5c89zvMybrpeLBYLSP-51" value="ALB" style="sketch=0;outlineConnect=0;fontColor=#232F3E;gradientColor=none;fillColor=#4D27AA;strokeColor=none;dashed=0;verticalLabelPosition=bottom;verticalAlign=top;align=center;html=1;fontSize=10;fontStyle=0;aspect=fixed;pointerEvents=1;shape=mxgraph.aws4.application_load_balancer;" vertex="1" parent="K-5c89zvMybrpeLBYLSP-48">
          <mxGeometry x="113.25" y="73.75" width="32.5" height="32.5" as="geometry" />
        </mxCell>
        <mxCell id="K-5c89zvMybrpeLBYLSP-52" value="" style="shape=flexArrow;endArrow=classic;html=1;rounded=0;fontSize=10;fillColor=#f8cecc;strokeColor=#b85450;" edge="1" parent="1">
          <mxGeometry width="50" height="50" relative="1" as="geometry">
            <mxPoint x="40" y="170" as="sourcePoint" />
            <mxPoint x="100" y="170" as="targetPoint" />
          </mxGeometry>
        </mxCell>
        <mxCell id="K-5c89zvMybrpeLBYLSP-53" value="" style="shape=flexArrow;endArrow=classic;html=1;rounded=0;fontSize=10;fillColor=#dae8fc;strokeColor=#6c8ebf;" edge="1" parent="1">
          <mxGeometry width="50" height="50" relative="1" as="geometry">
            <mxPoint x="40" y="208" as="sourcePoint" />
            <mxPoint x="100" y="208" as="targetPoint" />
          </mxGeometry>
        </mxCell>
        <mxCell id="K-5c89zvMybrpeLBYLSP-54" value="50% european traffic" style="text;html=1;strokeColor=none;fillColor=none;align=center;verticalAlign=middle;whiteSpace=wrap;rounded=0;fontSize=10;" vertex="1" parent="1">
          <mxGeometry x="-30" y="194" width="60" height="30" as="geometry" />
        </mxCell>
        <mxCell id="K-5c89zvMybrpeLBYLSP-55" value="50% american traffic" style="text;html=1;strokeColor=none;fillColor=none;align=center;verticalAlign=middle;whiteSpace=wrap;rounded=0;fontSize=10;" vertex="1" parent="1">
          <mxGeometry x="-30" y="152" width="60" height="30" as="geometry" />
        </mxCell>
        <mxCell id="K-5c89zvMybrpeLBYLSP-58" value="" style="shape=flexArrow;endArrow=classic;html=1;rounded=0;fontSize=10;fillColor=#f8cecc;strokeColor=#b85450;entryX=0;entryY=0.5;entryDx=0;entryDy=0;" edge="1" parent="1" target="K-5c89zvMybrpeLBYLSP-6">
          <mxGeometry width="50" height="50" relative="1" as="geometry">
            <mxPoint x="190" y="152" as="sourcePoint" />
            <mxPoint x="250" y="152" as="targetPoint" />
          </mxGeometry>
        </mxCell>
        <mxCell id="K-5c89zvMybrpeLBYLSP-59" value="" style="shape=flexArrow;endArrow=classic;html=1;rounded=0;fontSize=10;fillColor=#dae8fc;strokeColor=#6c8ebf;entryX=0;entryY=0.5;entryDx=0;entryDy=0;" edge="1" parent="1" target="K-5c89zvMybrpeLBYLSP-48">
          <mxGeometry width="50" height="50" relative="1" as="geometry">
            <mxPoint x="190" y="210" as="sourcePoint" />
            <mxPoint x="250" y="212" as="targetPoint" />
          </mxGeometry>
        </mxCell>
        <mxCell id="K-5c89zvMybrpeLBYLSP-60" value="50%" style="text;html=1;strokeColor=none;fillColor=none;align=center;verticalAlign=middle;whiteSpace=wrap;rounded=0;fontSize=10;" vertex="1" parent="1">
          <mxGeometry x="174" y="104" width="60" height="30" as="geometry" />
        </mxCell>
        <mxCell id="K-5c89zvMybrpeLBYLSP-61" value="50%" style="text;html=1;strokeColor=none;fillColor=none;align=center;verticalAlign=middle;whiteSpace=wrap;rounded=0;fontSize=10;" vertex="1" parent="1">
          <mxGeometry x="176" y="235" width="60" height="30" as="geometry" />
        </mxCell>
        <mxCell id="K-5c89zvMybrpeLBYLSP-62" value="" style="sketch=0;points=[[0,0,0],[0.25,0,0],[0.5,0,0],[0.75,0,0],[1,0,0],[0,1,0],[0.25,1,0],[0.5,1,0],[0.75,1,0],[1,1,0],[0,0.25,0],[0,0.5,0],[0,0.75,0],[1,0.25,0],[1,0.5,0],[1,0.75,0]];outlineConnect=0;fontColor=#232F3E;gradientColor=#945DF2;gradientDirection=north;fillColor=#5A30B5;strokeColor=#ffffff;dashed=0;verticalLabelPosition=bottom;verticalAlign=top;align=center;html=1;fontSize=12;fontStyle=0;aspect=fixed;shape=mxgraph.aws4.resourceIcon;resIcon=mxgraph.aws4.global_accelerator;" vertex="1" parent="1">
          <mxGeometry x="130" y="694" width="48" height="48" as="geometry" />
        </mxCell>
        <mxCell id="K-5c89zvMybrpeLBYLSP-63" value="us-east-1" style="points=[[0,0],[0.25,0],[0.5,0],[0.75,0],[1,0],[1,0.25],[1,0.5],[1,0.75],[1,1],[0.75,1],[0.5,1],[0.25,1],[0,1],[0,0.75],[0,0.5],[0,0.25]];outlineConnect=0;gradientColor=none;html=1;whiteSpace=wrap;fontSize=12;fontStyle=0;container=1;pointerEvents=0;collapsible=0;recursiveResize=0;shape=mxgraph.aws4.group;grIcon=mxgraph.aws4.group_region;strokeColor=#147EBA;fillColor=none;verticalAlign=top;align=left;spacingLeft=30;fontColor=#147EBA;dashed=1;" vertex="1" parent="1">
          <mxGeometry x="261" y="430" width="249" height="270" as="geometry" />
        </mxCell>
        <mxCell id="K-5c89zvMybrpeLBYLSP-64" value="" style="rounded=1;arcSize=10;dashed=1;fillColor=none;gradientColor=none;dashPattern=8 3 1 3;strokeWidth=2;strokeColor=default;fontSize=12;align=left;" vertex="1" parent="K-5c89zvMybrpeLBYLSP-63">
          <mxGeometry x="49" y="40" width="161" height="90" as="geometry" />
        </mxCell>
        <mxCell id="K-5c89zvMybrpeLBYLSP-65" value="Endpoint group 1.1 : dial 50%" style="text;html=1;strokeColor=none;fillColor=none;align=center;verticalAlign=middle;whiteSpace=wrap;rounded=0;fontSize=10;" vertex="1" parent="K-5c89zvMybrpeLBYLSP-63">
          <mxGeometry x="49" y="40" width="151" height="30" as="geometry" />
        </mxCell>
        <mxCell id="K-5c89zvMybrpeLBYLSP-66" value="ALB" style="sketch=0;outlineConnect=0;fontColor=#232F3E;gradientColor=none;fillColor=#4D27AA;strokeColor=none;dashed=0;verticalLabelPosition=bottom;verticalAlign=top;align=center;html=1;fontSize=10;fontStyle=0;aspect=fixed;pointerEvents=1;shape=mxgraph.aws4.application_load_balancer;" vertex="1" parent="K-5c89zvMybrpeLBYLSP-63">
          <mxGeometry x="113.25" y="73.75" width="32.5" height="32.5" as="geometry" />
        </mxCell>
        <mxCell id="K-5c89zvMybrpeLBYLSP-79" value="" style="rounded=1;arcSize=10;dashed=1;fillColor=none;gradientColor=none;dashPattern=8 3 1 3;strokeWidth=2;strokeColor=default;fontSize=12;align=left;" vertex="1" parent="K-5c89zvMybrpeLBYLSP-63">
          <mxGeometry x="49" y="154.5" width="161" height="90" as="geometry" />
        </mxCell>
        <mxCell id="K-5c89zvMybrpeLBYLSP-80" value="Endpoint group 1.2 : dial 50%" style="text;html=1;strokeColor=none;fillColor=none;align=center;verticalAlign=middle;whiteSpace=wrap;rounded=0;fontSize=10;" vertex="1" parent="K-5c89zvMybrpeLBYLSP-63">
          <mxGeometry x="49" y="154.5" width="151" height="30" as="geometry" />
        </mxCell>
        <mxCell id="K-5c89zvMybrpeLBYLSP-81" value="ALB" style="sketch=0;outlineConnect=0;fontColor=#232F3E;gradientColor=none;fillColor=#4D27AA;strokeColor=none;dashed=0;verticalLabelPosition=bottom;verticalAlign=top;align=center;html=1;fontSize=10;fontStyle=0;aspect=fixed;pointerEvents=1;shape=mxgraph.aws4.application_load_balancer;" vertex="1" parent="K-5c89zvMybrpeLBYLSP-63">
          <mxGeometry x="113.25" y="188.25" width="32.5" height="32.5" as="geometry" />
        </mxCell>
        <mxCell id="K-5c89zvMybrpeLBYLSP-67" value="eu-west-1" style="points=[[0,0],[0.25,0],[0.5,0],[0.75,0],[1,0],[1,0.25],[1,0.5],[1,0.75],[1,1],[0.75,1],[0.5,1],[0.25,1],[0,1],[0,0.75],[0,0.5],[0,0.25]];outlineConnect=0;gradientColor=none;html=1;whiteSpace=wrap;fontSize=12;fontStyle=0;container=1;pointerEvents=0;collapsible=0;recursiveResize=0;shape=mxgraph.aws4.group;grIcon=mxgraph.aws4.group_region;strokeColor=#147EBA;fillColor=none;verticalAlign=top;align=left;spacingLeft=30;fontColor=#147EBA;dashed=1;" vertex="1" parent="1">
          <mxGeometry x="261" y="724" width="249" height="150" as="geometry" />
        </mxCell>
        <mxCell id="K-5c89zvMybrpeLBYLSP-68" value="" style="rounded=1;arcSize=10;dashed=1;fillColor=none;gradientColor=none;dashPattern=8 3 1 3;strokeWidth=2;strokeColor=default;fontSize=12;align=left;" vertex="1" parent="K-5c89zvMybrpeLBYLSP-67">
          <mxGeometry x="49" y="40" width="161" height="90" as="geometry" />
        </mxCell>
        <mxCell id="K-5c89zvMybrpeLBYLSP-69" value="Endpoint group 2.1 : dial 50%" style="text;html=1;strokeColor=none;fillColor=none;align=center;verticalAlign=middle;whiteSpace=wrap;rounded=0;fontSize=10;" vertex="1" parent="K-5c89zvMybrpeLBYLSP-67">
          <mxGeometry x="49" y="40" width="151" height="30" as="geometry" />
        </mxCell>
        <mxCell id="K-5c89zvMybrpeLBYLSP-70" value="ALB" style="sketch=0;outlineConnect=0;fontColor=#232F3E;gradientColor=none;fillColor=#4D27AA;strokeColor=none;dashed=0;verticalLabelPosition=bottom;verticalAlign=top;align=center;html=1;fontSize=10;fontStyle=0;aspect=fixed;pointerEvents=1;shape=mxgraph.aws4.application_load_balancer;" vertex="1" parent="K-5c89zvMybrpeLBYLSP-67">
          <mxGeometry x="113.25" y="73.75" width="32.5" height="32.5" as="geometry" />
        </mxCell>
        <mxCell id="K-5c89zvMybrpeLBYLSP-71" value="" style="shape=flexArrow;endArrow=classic;html=1;rounded=0;fontSize=10;fillColor=#f8cecc;strokeColor=#b85450;" edge="1" parent="1">
          <mxGeometry width="50" height="50" relative="1" as="geometry">
            <mxPoint x="40" y="700" as="sourcePoint" />
            <mxPoint x="100" y="700" as="targetPoint" />
          </mxGeometry>
        </mxCell>
        <mxCell id="K-5c89zvMybrpeLBYLSP-72" value="" style="shape=flexArrow;endArrow=classic;html=1;rounded=0;fontSize=10;fillColor=#dae8fc;strokeColor=#6c8ebf;" edge="1" parent="1">
          <mxGeometry width="50" height="50" relative="1" as="geometry">
            <mxPoint x="40" y="738" as="sourcePoint" />
            <mxPoint x="100" y="738" as="targetPoint" />
          </mxGeometry>
        </mxCell>
        <mxCell id="K-5c89zvMybrpeLBYLSP-73" value="50% european traffic" style="text;html=1;strokeColor=none;fillColor=none;align=center;verticalAlign=middle;whiteSpace=wrap;rounded=0;fontSize=10;" vertex="1" parent="1">
          <mxGeometry x="-30" y="724" width="60" height="30" as="geometry" />
        </mxCell>
        <mxCell id="K-5c89zvMybrpeLBYLSP-74" value="50% american traffic" style="text;html=1;strokeColor=none;fillColor=none;align=center;verticalAlign=middle;whiteSpace=wrap;rounded=0;fontSize=10;" vertex="1" parent="1">
          <mxGeometry x="-30" y="682" width="60" height="30" as="geometry" />
        </mxCell>
        <mxCell id="K-5c89zvMybrpeLBYLSP-75" value="" style="shape=flexArrow;endArrow=classic;html=1;rounded=0;fontSize=10;fillColor=#f8cecc;strokeColor=#b85450;entryX=0;entryY=0.5;entryDx=0;entryDy=0;" edge="1" parent="1" target="K-5c89zvMybrpeLBYLSP-63">
          <mxGeometry width="50" height="50" relative="1" as="geometry">
            <mxPoint x="190" y="682" as="sourcePoint" />
            <mxPoint x="250" y="682" as="targetPoint" />
          </mxGeometry>
        </mxCell>
        <mxCell id="K-5c89zvMybrpeLBYLSP-76" value="" style="shape=flexArrow;endArrow=classic;html=1;rounded=0;fontSize=10;fillColor=#dae8fc;strokeColor=#6c8ebf;entryX=0;entryY=0.5;entryDx=0;entryDy=0;" edge="1" parent="1" target="K-5c89zvMybrpeLBYLSP-67">
          <mxGeometry width="50" height="50" relative="1" as="geometry">
            <mxPoint x="190" y="740" as="sourcePoint" />
            <mxPoint x="250" y="742" as="targetPoint" />
          </mxGeometry>
        </mxCell>
        <mxCell id="K-5c89zvMybrpeLBYLSP-77" value="50%" style="text;html=1;strokeColor=none;fillColor=none;align=center;verticalAlign=middle;whiteSpace=wrap;rounded=0;fontSize=10;" vertex="1" parent="1">
          <mxGeometry x="174" y="611" width="60" height="30" as="geometry" />
        </mxCell>
        <mxCell id="K-5c89zvMybrpeLBYLSP-78" value="33%" style="text;html=1;strokeColor=none;fillColor=none;align=center;verticalAlign=middle;whiteSpace=wrap;rounded=0;fontSize=10;" vertex="1" parent="1">
          <mxGeometry x="176" y="765" width="60" height="30" as="geometry" />
        </mxCell>
        <mxCell id="K-5c89zvMybrpeLBYLSP-82" value="" style="shape=flexArrow;endArrow=classic;html=1;rounded=0;fontSize=10;fillColor=#dae8fc;strokeColor=#6c8ebf;entryX=0;entryY=0.75;entryDx=0;entryDy=0;" edge="1" parent="1" target="K-5c89zvMybrpeLBYLSP-63">
          <mxGeometry width="50" height="50" relative="1" as="geometry">
            <mxPoint x="200" y="700" as="sourcePoint" />
            <mxPoint x="271" y="809" as="targetPoint" />
          </mxGeometry>
        </mxCell>
        <mxCell id="K-5c89zvMybrpeLBYLSP-83" value="16%" style="text;html=1;strokeColor=none;fillColor=none;align=center;verticalAlign=middle;whiteSpace=wrap;rounded=0;fontSize=10;" vertex="1" parent="1">
          <mxGeometry x="210" y="670" width="60" height="30" as="geometry" />
        </mxCell>
        <mxCell id="K-5c89zvMybrpeLBYLSP-84" value="In this case, each endpoint group will receive approx. 33% of the traffic" style="text;html=1;strokeColor=none;fillColor=none;align=center;verticalAlign=middle;whiteSpace=wrap;rounded=0;fontSize=10;" vertex="1" parent="1">
          <mxGeometry x="-60" y="430" width="190" height="30" as="geometry" />
        </mxCell>
        <mxCell id="K-5c89zvMybrpeLBYLSP-85" value="" style="sketch=0;points=[[0,0,0],[0.25,0,0],[0.5,0,0],[0.75,0,0],[1,0,0],[0,1,0],[0.25,1,0],[0.5,1,0],[0.75,1,0],[1,1,0],[0,0.25,0],[0,0.5,0],[0,0.75,0],[1,0.25,0],[1,0.5,0],[1,0.75,0]];outlineConnect=0;fontColor=#232F3E;gradientColor=#945DF2;gradientDirection=north;fillColor=#5A30B5;strokeColor=#ffffff;dashed=0;verticalLabelPosition=bottom;verticalAlign=top;align=center;html=1;fontSize=12;fontStyle=0;aspect=fixed;shape=mxgraph.aws4.resourceIcon;resIcon=mxgraph.aws4.global_accelerator;" vertex="1" parent="1">
          <mxGeometry x="140" y="1204" width="48" height="48" as="geometry" />
        </mxCell>
        <mxCell id="K-5c89zvMybrpeLBYLSP-86" value="us-east-1" style="points=[[0,0],[0.25,0],[0.5,0],[0.75,0],[1,0],[1,0.25],[1,0.5],[1,0.75],[1,1],[0.75,1],[0.5,1],[0.25,1],[0,1],[0,0.75],[0,0.5],[0,0.25]];outlineConnect=0;gradientColor=none;html=1;whiteSpace=wrap;fontSize=12;fontStyle=0;container=1;pointerEvents=0;collapsible=0;recursiveResize=0;shape=mxgraph.aws4.group;grIcon=mxgraph.aws4.group_region;strokeColor=#147EBA;fillColor=none;verticalAlign=top;align=left;spacingLeft=30;fontColor=#147EBA;dashed=1;" vertex="1" parent="1">
          <mxGeometry x="271" y="940" width="289" height="270" as="geometry" />
        </mxCell>
        <mxCell id="K-5c89zvMybrpeLBYLSP-87" value="" style="rounded=1;arcSize=10;dashed=1;fillColor=none;gradientColor=none;dashPattern=8 3 1 3;strokeWidth=2;strokeColor=default;fontSize=12;align=left;" vertex="1" parent="K-5c89zvMybrpeLBYLSP-86">
          <mxGeometry x="10" y="40" width="270" height="200" as="geometry" />
        </mxCell>
        <mxCell id="K-5c89zvMybrpeLBYLSP-88" value="Endpoint group 1.1 : dial 50%" style="text;html=1;strokeColor=none;fillColor=none;align=center;verticalAlign=middle;whiteSpace=wrap;rounded=0;fontSize=10;" vertex="1" parent="K-5c89zvMybrpeLBYLSP-86">
          <mxGeometry x="49" y="40" width="151" height="30" as="geometry" />
        </mxCell>
        <mxCell id="K-5c89zvMybrpeLBYLSP-89" value="ALB" style="sketch=0;outlineConnect=0;fontColor=#232F3E;gradientColor=none;fillColor=#4D27AA;strokeColor=none;dashed=0;verticalLabelPosition=bottom;verticalAlign=top;align=center;html=1;fontSize=10;fontStyle=0;aspect=fixed;pointerEvents=1;shape=mxgraph.aws4.application_load_balancer;" vertex="1" parent="K-5c89zvMybrpeLBYLSP-86">
          <mxGeometry x="113.25" y="90" width="32.5" height="32.5" as="geometry" />
        </mxCell>
        <mxCell id="K-5c89zvMybrpeLBYLSP-92" value="ALB" style="sketch=0;outlineConnect=0;fontColor=#232F3E;gradientColor=none;fillColor=#4D27AA;strokeColor=none;dashed=0;verticalLabelPosition=bottom;verticalAlign=top;align=center;html=1;fontSize=10;fontStyle=0;aspect=fixed;pointerEvents=1;shape=mxgraph.aws4.application_load_balancer;" vertex="1" parent="K-5c89zvMybrpeLBYLSP-86">
          <mxGeometry x="113.25" y="170" width="32.5" height="32.5" as="geometry" />
        </mxCell>
        <mxCell id="K-5c89zvMybrpeLBYLSP-111" value="endpoint weight : 90 %" style="text;html=1;strokeColor=none;fillColor=none;align=center;verticalAlign=middle;whiteSpace=wrap;rounded=0;fontSize=10;" vertex="1" parent="K-5c89zvMybrpeLBYLSP-86">
          <mxGeometry x="153" y="92.5" width="107" height="30" as="geometry" />
        </mxCell>
        <mxCell id="K-5c89zvMybrpeLBYLSP-112" value="endpoint weight : 10 %" style="text;html=1;strokeColor=none;fillColor=none;align=center;verticalAlign=middle;whiteSpace=wrap;rounded=0;fontSize=10;" vertex="1" parent="K-5c89zvMybrpeLBYLSP-86">
          <mxGeometry x="159" y="172.5" width="107" height="30" as="geometry" />
        </mxCell>
        <mxCell id="K-5c89zvMybrpeLBYLSP-115" value="" style="shape=flexArrow;endArrow=classic;html=1;rounded=0;fontSize=10;fillColor=#f8cecc;strokeColor=#b85450;" edge="1" parent="K-5c89zvMybrpeLBYLSP-86">
          <mxGeometry width="50" height="50" relative="1" as="geometry">
            <mxPoint x="9" y="137" as="sourcePoint" />
            <mxPoint x="99" y="110" as="targetPoint" />
          </mxGeometry>
        </mxCell>
        <mxCell id="K-5c89zvMybrpeLBYLSP-117" value="90% of 50%" style="text;html=1;strokeColor=none;fillColor=none;align=center;verticalAlign=middle;whiteSpace=wrap;rounded=0;fontSize=10;" vertex="1" parent="K-5c89zvMybrpeLBYLSP-86">
          <mxGeometry x="16" y="86" width="60" height="30" as="geometry" />
        </mxCell>
        <mxCell id="K-5c89zvMybrpeLBYLSP-118" value="10% of 50%" style="text;html=1;strokeColor=none;fillColor=none;align=center;verticalAlign=middle;whiteSpace=wrap;rounded=0;fontSize=10;" vertex="1" parent="K-5c89zvMybrpeLBYLSP-86">
          <mxGeometry x="12" y="170.25" width="60" height="30" as="geometry" />
        </mxCell>
        <mxCell id="K-5c89zvMybrpeLBYLSP-93" value="eu-west-1" style="points=[[0,0],[0.25,0],[0.5,0],[0.75,0],[1,0],[1,0.25],[1,0.5],[1,0.75],[1,1],[0.75,1],[0.5,1],[0.25,1],[0,1],[0,0.75],[0,0.5],[0,0.25]];outlineConnect=0;gradientColor=none;html=1;whiteSpace=wrap;fontSize=12;fontStyle=0;container=1;pointerEvents=0;collapsible=0;recursiveResize=0;shape=mxgraph.aws4.group;grIcon=mxgraph.aws4.group_region;strokeColor=#147EBA;fillColor=none;verticalAlign=top;align=left;spacingLeft=30;fontColor=#147EBA;dashed=1;" vertex="1" parent="1">
          <mxGeometry x="271" y="1234" width="249" height="150" as="geometry" />
        </mxCell>
        <mxCell id="K-5c89zvMybrpeLBYLSP-94" value="" style="rounded=1;arcSize=10;dashed=1;fillColor=none;gradientColor=none;dashPattern=8 3 1 3;strokeWidth=2;strokeColor=default;fontSize=12;align=left;" vertex="1" parent="K-5c89zvMybrpeLBYLSP-93">
          <mxGeometry x="49" y="40" width="161" height="90" as="geometry" />
        </mxCell>
        <mxCell id="K-5c89zvMybrpeLBYLSP-95" value="Endpoint group 2.1 : dial 50%" style="text;html=1;strokeColor=none;fillColor=none;align=center;verticalAlign=middle;whiteSpace=wrap;rounded=0;fontSize=10;" vertex="1" parent="K-5c89zvMybrpeLBYLSP-93">
          <mxGeometry x="49" y="40" width="151" height="30" as="geometry" />
        </mxCell>
        <mxCell id="K-5c89zvMybrpeLBYLSP-96" value="ALB" style="sketch=0;outlineConnect=0;fontColor=#232F3E;gradientColor=none;fillColor=#4D27AA;strokeColor=none;dashed=0;verticalLabelPosition=bottom;verticalAlign=top;align=center;html=1;fontSize=10;fontStyle=0;aspect=fixed;pointerEvents=1;shape=mxgraph.aws4.application_load_balancer;" vertex="1" parent="K-5c89zvMybrpeLBYLSP-93">
          <mxGeometry x="113.25" y="73.75" width="32.5" height="32.5" as="geometry" />
        </mxCell>
        <mxCell id="K-5c89zvMybrpeLBYLSP-97" value="" style="shape=flexArrow;endArrow=classic;html=1;rounded=0;fontSize=10;fillColor=#f8cecc;strokeColor=#b85450;" edge="1" parent="1">
          <mxGeometry width="50" height="50" relative="1" as="geometry">
            <mxPoint x="50" y="1210" as="sourcePoint" />
            <mxPoint x="110" y="1210" as="targetPoint" />
          </mxGeometry>
        </mxCell>
        <mxCell id="K-5c89zvMybrpeLBYLSP-98" value="" style="shape=flexArrow;endArrow=classic;html=1;rounded=0;fontSize=10;fillColor=#dae8fc;strokeColor=#6c8ebf;" edge="1" parent="1">
          <mxGeometry width="50" height="50" relative="1" as="geometry">
            <mxPoint x="50" y="1248" as="sourcePoint" />
            <mxPoint x="110" y="1248" as="targetPoint" />
          </mxGeometry>
        </mxCell>
        <mxCell id="K-5c89zvMybrpeLBYLSP-99" value="50% european traffic" style="text;html=1;strokeColor=none;fillColor=none;align=center;verticalAlign=middle;whiteSpace=wrap;rounded=0;fontSize=10;" vertex="1" parent="1">
          <mxGeometry x="-20" y="1234" width="60" height="30" as="geometry" />
        </mxCell>
        <mxCell id="K-5c89zvMybrpeLBYLSP-100" value="50% american traffic" style="text;html=1;strokeColor=none;fillColor=none;align=center;verticalAlign=middle;whiteSpace=wrap;rounded=0;fontSize=10;" vertex="1" parent="1">
          <mxGeometry x="-20" y="1192" width="60" height="30" as="geometry" />
        </mxCell>
        <mxCell id="K-5c89zvMybrpeLBYLSP-101" value="" style="shape=flexArrow;endArrow=classic;html=1;rounded=0;fontSize=10;fillColor=#f8cecc;strokeColor=#b85450;entryX=0;entryY=0.5;entryDx=0;entryDy=0;" edge="1" parent="1" target="K-5c89zvMybrpeLBYLSP-86">
          <mxGeometry width="50" height="50" relative="1" as="geometry">
            <mxPoint x="200" y="1192" as="sourcePoint" />
            <mxPoint x="260" y="1192" as="targetPoint" />
          </mxGeometry>
        </mxCell>
        <mxCell id="K-5c89zvMybrpeLBYLSP-102" value="" style="shape=flexArrow;endArrow=classic;html=1;rounded=0;fontSize=10;fillColor=#dae8fc;strokeColor=#6c8ebf;entryX=0;entryY=0.5;entryDx=0;entryDy=0;" edge="1" parent="1" target="K-5c89zvMybrpeLBYLSP-93">
          <mxGeometry width="50" height="50" relative="1" as="geometry">
            <mxPoint x="200" y="1250" as="sourcePoint" />
            <mxPoint x="260" y="1252" as="targetPoint" />
          </mxGeometry>
        </mxCell>
        <mxCell id="K-5c89zvMybrpeLBYLSP-103" value="50%" style="text;html=1;strokeColor=none;fillColor=none;align=center;verticalAlign=middle;whiteSpace=wrap;rounded=0;fontSize=10;" vertex="1" parent="1">
          <mxGeometry x="184" y="1121" width="60" height="30" as="geometry" />
        </mxCell>
        <mxCell id="K-5c89zvMybrpeLBYLSP-104" value="50 %" style="text;html=1;strokeColor=none;fillColor=none;align=center;verticalAlign=middle;whiteSpace=wrap;rounded=0;fontSize=10;" vertex="1" parent="1">
          <mxGeometry x="186" y="1275" width="60" height="30" as="geometry" />
        </mxCell>
        <mxCell id="K-5c89zvMybrpeLBYLSP-107" value="In this case, each endpoint group will receive approx. 33% of the traffic" style="text;html=1;strokeColor=none;fillColor=none;align=center;verticalAlign=middle;whiteSpace=wrap;rounded=0;fontSize=10;" vertex="1" parent="1">
          <mxGeometry x="-50" y="940" width="190" height="30" as="geometry" />
        </mxCell>
        <mxCell id="K-5c89zvMybrpeLBYLSP-116" value="" style="shape=flexArrow;endArrow=classic;html=1;rounded=0;fontSize=10;fillColor=#f8cecc;strokeColor=#b85450;" edge="1" parent="1">
          <mxGeometry width="50" height="50" relative="1" as="geometry">
            <mxPoint x="290" y="1087" as="sourcePoint" />
            <mxPoint x="370" y="1120" as="targetPoint" />
          </mxGeometry>
        </mxCell>
      </root>
    </mxGraphModel>
  </diagram>
</mxfile>
